<ttFont>
    <TTGlyph name="A" xMin="4" yMin="-21" xMax="589" yMax="663">
      <contour>
        <pt x="374" y="274" on="1"/>
        <pt x="359" y="315" on="0"/>
        <pt x="330" y="404" on="0"/>
        <pt x="298" y="506" on="0"/>
        <pt x="292" y="525" on="1"/>
        <pt x="244" y="374" on="0"/>
        <pt x="204" y="275" on="1"/>
        <pt x="268" y="273" on="0"/>
        <pt x="302" y="273" on="1"/>
        <pt x="354" y="273" on="0"/>
      </contour>
      <contour>
        <pt x="281" y="199" on="1"/>
        <pt x="255" y="199" on="0"/>
        <pt x="173" y="201" on="1"/>
        <pt x="108" y="34" on="0"/>
        <pt x="93" y="-21" on="1"/>
        <pt x="4" y="-11" on="0"/>
        <pt x="4" y="20" on="1"/>
        <pt x="4" y="34" on="0"/>
        <pt x="89" y="233" on="0"/>
        <pt x="211" y="541" on="0"/>
        <pt x="246" y="660" on="1"/>
        <pt x="266" y="663" on="0"/>
        <pt x="298" y="663" on="1"/>
        <pt x="324" y="663" on="0"/>
        <pt x="353" y="642" on="0"/>
        <pt x="364" y="610" on="1"/>
        <pt x="441" y="370" on="0"/>
        <pt x="476" y="280" on="1"/>
        <pt x="551" y="85" on="0"/>
        <pt x="589" y="10" on="1"/>
        <pt x="551" y="-10" on="0"/>
        <pt x="525" y="-10" on="1"/>
        <pt x="483" y="-10" on="0"/>
        <pt x="467" y="17" on="1"/>
        <pt x="455" y="48" on="0"/>
        <pt x="412" y="169" on="0"/>
        <pt x="400" y="201" on="1"/>
        <pt x="302" y="199" on="0"/>
      </contour>
    </TTGlyph>
    <TTGlyph name="AE" xMin="0" yMin="-8" xMax="768" yMax="666">
      <contour>
        <pt x="230" y="274" on="1"/>
        <pt x="264" y="273" on="0"/>
        <pt x="332" y="273" on="1"/>
        <pt x="372" y="273" on="1"/>
        <pt x="372" y="341" on="1"/>
        <pt x="372" y="497" on="0"/>
        <pt x="368" y="563" on="1"/>
        <pt x="274" y="358" on="0"/>
      </contour>
      <contour>
        <pt x="473" y="583" on="1"/>
        <pt x="477" y="544" on="0"/>
        <pt x="477" y="396" on="1"/>
        <pt x="552" y="396" on="1"/>
        <pt x="632" y="396" on="0"/>
        <pt x="666" y="400" on="1"/>
        <pt x="670" y="391" on="0"/>
        <pt x="670" y="368" on="1"/>
        <pt x="670" y="340" on="0"/>
        <pt x="650" y="319" on="0"/>
        <pt x="628" y="318" on="1"/>
        <pt x="603" y="317" on="0"/>
        <pt x="561" y="317" on="1"/>
        <pt x="477" y="317" on="1"/>
        <pt x="477" y="118" on="0"/>
        <pt x="484" y="78" on="1"/>
        <pt x="526" y="76" on="0"/>
        <pt x="553" y="76" on="1"/>
        <pt x="713" y="76" on="0"/>
        <pt x="760" y="98" on="1"/>
        <pt x="768" y="75" on="0"/>
        <pt x="768" y="45" on="1"/>
        <pt x="768" y="22" on="0"/>
        <pt x="759" y="13" on="1"/>
        <pt x="740" y="-2" on="0"/>
        <pt x="588" y="-2" on="1"/>
        <pt x="452" y="-2" on="0"/>
        <pt x="422" y="0" on="1"/>
        <pt x="391" y="1" on="0"/>
        <pt x="370" y="26" on="0"/>
        <pt x="370" y="57" on="1"/>
        <pt x="370" y="93" on="0"/>
        <pt x="372" y="199" on="1"/>
        <pt x="304" y="199" on="1"/>
        <pt x="240" y="199" on="0"/>
        <pt x="190" y="201" on="1"/>
        <pt x="182" y="186" on="0"/>
        <pt x="129" y="89" on="0"/>
        <pt x="99" y="25" on="0"/>
        <pt x="86" y="-8" on="1"/>
        <pt x="38" y="-1" on="0"/>
        <pt x="0" y="24" on="0"/>
        <pt x="0" y="45" on="1"/>
        <pt x="0" y="51" on="0"/>
        <pt x="18" y="89" on="0"/>
        <pt x="54" y="153" on="0"/>
        <pt x="87" y="211" on="0"/>
        <pt x="138" y="298" on="0"/>
        <pt x="152" y="322" on="1"/>
        <pt x="250" y="496" on="0"/>
        <pt x="314" y="646" on="1"/>
        <pt x="387" y="666" on="0"/>
        <pt x="587" y="666" on="1"/>
        <pt x="739" y="666" on="0"/>
        <pt x="758" y="651" on="1"/>
        <pt x="767" y="642" on="0"/>
        <pt x="767" y="619" on="1"/>
        <pt x="767" y="589" on="0"/>
        <pt x="759" y="565" on="1"/>
        <pt x="703" y="586" on="0"/>
        <pt x="579" y="586" on="1"/>
        <pt x="528" y="586" on="0"/>
      </contour>
    </TTGlyph>
    <TTGlyph name="Aacute" xMin="4" yMin="-21" xMax="589" yMax="921">
      <contour>
        <pt x="422" y="819" on="1"/>
        <pt x="404" y="805" on="0"/>
        <pt x="289" y="741" on="0"/>
        <pt x="262" y="716" on="1"/>
        <pt x="232" y="743" on="0"/>
        <pt x="232" y="765" on="1"/>
        <pt x="232" y="778" on="0"/>
        <pt x="252" y="797" on="0"/>
        <pt x="286" y="817" on="0"/>
        <pt x="356" y="878" on="0"/>
        <pt x="395" y="921" on="1"/>
        <pt x="449" y="893" on="0"/>
        <pt x="449" y="862" on="1"/>
        <pt x="449" y="838" on="0"/>
      </contour>
      <contour>
        <pt x="374" y="274" on="1"/>
        <pt x="359" y="315" on="0"/>
        <pt x="330" y="404" on="0"/>
        <pt x="298" y="506" on="0"/>
        <pt x="292" y="525" on="1"/>
        <pt x="244" y="374" on="0"/>
        <pt x="204" y="275" on="1"/>
        <pt x="268" y="273" on="0"/>
        <pt x="302" y="273" on="1"/>
        <pt x="354" y="273" on="0"/>
      </contour>
      <contour>
        <pt x="281" y="199" on="1"/>
        <pt x="255" y="199" on="0"/>
        <pt x="173" y="201" on="1"/>
        <pt x="108" y="34" on="0"/>
        <pt x="93" y="-21" on="1"/>
        <pt x="4" y="-11" on="0"/>
        <pt x="4" y="20" on="1"/>
        <pt x="4" y="34" on="0"/>
        <pt x="89" y="233" on="0"/>
        <pt x="211" y="541" on="0"/>
        <pt x="246" y="660" on="1"/>
        <pt x="266" y="663" on="0"/>
        <pt x="298" y="663" on="1"/>
        <pt x="324" y="663" on="0"/>
        <pt x="353" y="642" on="0"/>
        <pt x="364" y="610" on="1"/>
        <pt x="441" y="370" on="0"/>
        <pt x="476" y="280" on="1"/>
        <pt x="551" y="85" on="0"/>
        <pt x="589" y="10" on="1"/>
        <pt x="551" y="-10" on="0"/>
        <pt x="525" y="-10" on="1"/>
        <pt x="483" y="-10" on="0"/>
        <pt x="467" y="17" on="1"/>
        <pt x="455" y="48" on="0"/>
        <pt x="412" y="169" on="0"/>
        <pt x="400" y="201" on="1"/>
        <pt x="302" y="199" on="0"/>
      </contour>
    </TTGlyph>
    <TTGlyph name="Acircumflex" xMin="4" yMin="-21" xMax="589" yMax="895">
      <contour>
        <pt x="443" y="757" on="1"/>
        <pt x="443" y="736" on="0"/>
        <pt x="406" y="712" on="1"/>
        <pt x="389" y="733" on="0"/>
        <pt x="339" y="776" on="0"/>
        <pt x="322" y="788" on="1"/>
        <pt x="305" y="799" on="1"/>
        <pt x="218" y="724" on="0"/>
        <pt x="191" y="724" on="1"/>
        <pt x="170" y="724" on="0"/>
        <pt x="150" y="750" on="1"/>
        <pt x="224" y="837" on="0"/>
        <pt x="306" y="895" on="1"/>
        <pt x="443" y="800" on="0"/>
      </contour>
      <contour>
        <pt x="374" y="274" on="1"/>
        <pt x="359" y="315" on="0"/>
        <pt x="330" y="404" on="0"/>
        <pt x="298" y="506" on="0"/>
        <pt x="292" y="525" on="1"/>
        <pt x="244" y="374" on="0"/>
        <pt x="204" y="275" on="1"/>
        <pt x="268" y="273" on="0"/>
        <pt x="302" y="273" on="1"/>
        <pt x="354" y="273" on="0"/>
      </contour>
      <contour>
        <pt x="281" y="199" on="1"/>
        <pt x="255" y="199" on="0"/>
        <pt x="173" y="201" on="1"/>
        <pt x="108" y="34" on="0"/>
        <pt x="93" y="-21" on="1"/>
        <pt x="4" y="-11" on="0"/>
        <pt x="4" y="20" on="1"/>
        <pt x="4" y="34" on="0"/>
        <pt x="89" y="233" on="0"/>
        <pt x="211" y="541" on="0"/>
        <pt x="246" y="660" on="1"/>
        <pt x="266" y="663" on="0"/>
        <pt x="298" y="663" on="1"/>
        <pt x="324" y="663" on="0"/>
        <pt x="353" y="642" on="0"/>
        <pt x="364" y="610" on="1"/>
        <pt x="441" y="370" on="0"/>
        <pt x="476" y="280" on="1"/>
        <pt x="551" y="85" on="0"/>
        <pt x="589" y="10" on="1"/>
        <pt x="551" y="-10" on="0"/>
        <pt x="525" y="-10" on="1"/>
        <pt x="483" y="-10" on="0"/>
        <pt x="467" y="17" on="1"/>
        <pt x="455" y="48" on="0"/>
        <pt x="412" y="169" on="0"/>
        <pt x="400" y="201" on="1"/>
        <pt x="302" y="199" on="0"/>
      </contour>
    </TTGlyph>
    <TTGlyph name="Adieresis" xMin="4" yMin="-21" xMax="589" yMax="854">
      <contour>
        <pt x="387" y="712" on="1"/>
        <pt x="357" y="712" on="0"/>
        <pt x="315" y="752" on="0"/>
        <pt x="315" y="783" on="1"/>
        <pt x="315" y="813" on="0"/>
        <pt x="359" y="854" on="0"/>
        <pt x="389" y="854" on="1"/>
        <pt x="418" y="854" on="0"/>
        <pt x="460" y="813" on="0"/>
        <pt x="460" y="753" on="0"/>
        <pt x="416" y="712" on="0"/>
      </contour>
      <contour>
        <pt x="197" y="712" on="1"/>
        <pt x="167" y="712" on="0"/>
        <pt x="125" y="752" on="0"/>
        <pt x="125" y="783" on="1"/>
        <pt x="125" y="813" on="0"/>
        <pt x="169" y="854" on="0"/>
        <pt x="199" y="854" on="1"/>
        <pt x="228" y="854" on="0"/>
        <pt x="270" y="813" on="0"/>
        <pt x="270" y="753" on="0"/>
        <pt x="226" y="712" on="0"/>
      </contour>
      <contour>
        <pt x="374" y="274" on="1"/>
        <pt x="359" y="315" on="0"/>
        <pt x="330" y="404" on="0"/>
        <pt x="298" y="506" on="0"/>
        <pt x="292" y="525" on="1"/>
        <pt x="244" y="374" on="0"/>
        <pt x="204" y="275" on="1"/>
        <pt x="268" y="273" on="0"/>
        <pt x="302" y="273" on="1"/>
        <pt x="354" y="273" on="0"/>
      </contour>
      <contour>
        <pt x="281" y="199" on="1"/>
        <pt x="255" y="199" on="0"/>
        <pt x="173" y="201" on="1"/>
        <pt x="108" y="34" on="0"/>
        <pt x="93" y="-21" on="1"/>
        <pt x="4" y="-11" on="0"/>
        <pt x="4" y="20" on="1"/>
        <pt x="4" y="34" on="0"/>
        <pt x="89" y="233" on="0"/>
        <pt x="211" y="541" on="0"/>
        <pt x="246" y="660" on="1"/>
        <pt x="266" y="663" on="0"/>
        <pt x="298" y="663" on="1"/>
        <pt x="324" y="663" on="0"/>
        <pt x="353" y="642" on="0"/>
        <pt x="364" y="610" on="1"/>
        <pt x="441" y="370" on="0"/>
        <pt x="476" y="280" on="1"/>
        <pt x="551" y="85" on="0"/>
        <pt x="589" y="10" on="1"/>
        <pt x="551" y="-10" on="0"/>
        <pt x="525" y="-10" on="1"/>
        <pt x="483" y="-10" on="0"/>
        <pt x="467" y="17" on="1"/>
        <pt x="455" y="48" on="0"/>
        <pt x="412" y="169" on="0"/>
        <pt x="400" y="201" on="1"/>
        <pt x="302" y="199" on="0"/>
      </contour>
    </TTGlyph>
    <TTGlyph name="Agrave" xMin="4" yMin="-21" xMax="589" yMax="915">
      <contour>
        <pt x="199" y="915" on="1"/>
        <pt x="239" y="872" on="0"/>
        <pt x="327" y="806" on="0"/>
        <pt x="366" y="776" on="0"/>
        <pt x="366" y="760" on="1"/>
        <pt x="366" y="737" on="0"/>
        <pt x="334" y="716" on="1"/>
        <pt x="303" y="739" on="0"/>
        <pt x="200" y="794" on="0"/>
        <pt x="147" y="833" on="0"/>
        <pt x="147" y="854" on="1"/>
        <pt x="147" y="889" on="0"/>
      </contour>
      <contour>
        <pt x="374" y="274" on="1"/>
        <pt x="359" y="315" on="0"/>
        <pt x="330" y="404" on="0"/>
        <pt x="298" y="506" on="0"/>
        <pt x="292" y="525" on="1"/>
        <pt x="244" y="374" on="0"/>
        <pt x="204" y="275" on="1"/>
        <pt x="268" y="273" on="0"/>
        <pt x="302" y="273" on="1"/>
        <pt x="354" y="273" on="0"/>
      </contour>
      <contour>
        <pt x="281" y="199" on="1"/>
        <pt x="255" y="199" on="0"/>
        <pt x="173" y="201" on="1"/>
        <pt x="108" y="34" on="0"/>
        <pt x="93" y="-21" on="1"/>
        <pt x="4" y="-11" on="0"/>
        <pt x="4" y="20" on="1"/>
        <pt x="4" y="34" on="0"/>
        <pt x="89" y="233" on="0"/>
        <pt x="211" y="541" on="0"/>
        <pt x="246" y="660" on="1"/>
        <pt x="266" y="663" on="0"/>
        <pt x="298" y="663" on="1"/>
        <pt x="324" y="663" on="0"/>
        <pt x="353" y="642" on="0"/>
        <pt x="364" y="610" on="1"/>
        <pt x="441" y="370" on="0"/>
        <pt x="476" y="280" on="1"/>
        <pt x="551" y="85" on="0"/>
        <pt x="589" y="10" on="1"/>
        <pt x="551" y="-10" on="0"/>
        <pt x="525" y="-10" on="1"/>
        <pt x="483" y="-10" on="0"/>
        <pt x="467" y="17" on="1"/>
        <pt x="455" y="48" on="0"/>
        <pt x="412" y="169" on="0"/>
        <pt x="400" y="201" on="1"/>
        <pt x="302" y="199" on="0"/>
      </contour>
    </TTGlyph>
    <TTGlyph name="Aring" xMin="4" yMin="-21" xMax="589" yMax="903">
      <contour>
        <pt x="333" y="803" on="1"/>
        <pt x="333" y="826" on="0"/>
        <pt x="314" y="855" on="0"/>
        <pt x="297" y="855" on="1"/>
        <pt x="259" y="855" on="0"/>
        <pt x="259" y="812" on="1"/>
        <pt x="259" y="790" on="0"/>
        <pt x="280" y="761" on="0"/>
        <pt x="297" y="761" on="1"/>
        <pt x="333" y="761" on="0"/>
      </contour>
      <contour>
        <pt x="339" y="713" on="0"/>
        <pt x="255" y="713" on="0"/>
        <pt x="202" y="765" on="0"/>
        <pt x="202" y="851" on="0"/>
        <pt x="255" y="903" on="0"/>
        <pt x="339" y="903" on="0"/>
        <pt x="390" y="851" on="0"/>
        <pt x="390" y="765" on="0"/>
      </contour>
      <contour>
        <pt x="374" y="274" on="1"/>
        <pt x="359" y="315" on="0"/>
        <pt x="330" y="404" on="0"/>
        <pt x="298" y="506" on="0"/>
        <pt x="292" y="525" on="1"/>
        <pt x="244" y="374" on="0"/>
        <pt x="204" y="275" on="1"/>
        <pt x="268" y="273" on="0"/>
        <pt x="302" y="273" on="1"/>
        <pt x="354" y="273" on="0"/>
      </contour>
      <contour>
        <pt x="281" y="199" on="1"/>
        <pt x="255" y="199" on="0"/>
        <pt x="173" y="201" on="1"/>
        <pt x="108" y="34" on="0"/>
        <pt x="93" y="-21" on="1"/>
        <pt x="4" y="-11" on="0"/>
        <pt x="4" y="20" on="1"/>
        <pt x="4" y="34" on="0"/>
        <pt x="89" y="233" on="0"/>
        <pt x="211" y="541" on="0"/>
        <pt x="246" y="660" on="1"/>
        <pt x="266" y="663" on="0"/>
        <pt x="298" y="663" on="1"/>
        <pt x="324" y="663" on="0"/>
        <pt x="353" y="642" on="0"/>
        <pt x="364" y="610" on="1"/>
        <pt x="441" y="370" on="0"/>
        <pt x="476" y="280" on="1"/>
        <pt x="551" y="85" on="0"/>
        <pt x="589" y="10" on="1"/>
        <pt x="551" y="-10" on="0"/>
        <pt x="525" y="-10" on="1"/>
        <pt x="483" y="-10" on="0"/>
        <pt x="467" y="17" on="1"/>
        <pt x="455" y="48" on="0"/>
        <pt x="412" y="169" on="0"/>
        <pt x="400" y="201" on="1"/>
        <pt x="302" y="199" on="0"/>
      </contour>
    </TTGlyph>
    <TTGlyph name="Atilde" xMin="4" yMin="-21" xMax="589" yMax="836">
      <contour>
        <pt x="374" y="274" on="1"/>
        <pt x="359" y="315" on="0"/>
        <pt x="330" y="404" on="0"/>
        <pt x="298" y="506" on="0"/>
        <pt x="292" y="525" on="1"/>
        <pt x="244" y="374" on="0"/>
        <pt x="204" y="275" on="1"/>
        <pt x="268" y="273" on="0"/>
        <pt x="302" y="273" on="1"/>
        <pt x="354" y="273" on="0"/>
      </contour>
      <contour>
        <pt x="281" y="199" on="1"/>
        <pt x="255" y="199" on="0"/>
        <pt x="173" y="201" on="1"/>
        <pt x="108" y="34" on="0"/>
        <pt x="93" y="-21" on="1"/>
        <pt x="4" y="-11" on="0"/>
        <pt x="4" y="20" on="1"/>
        <pt x="4" y="34" on="0"/>
        <pt x="89" y="233" on="0"/>
        <pt x="211" y="541" on="0"/>
        <pt x="246" y="660" on="1"/>
        <pt x="266" y="663" on="0"/>
        <pt x="298" y="663" on="1"/>
        <pt x="324" y="663" on="0"/>
        <pt x="353" y="642" on="0"/>
        <pt x="364" y="610" on="1"/>
        <pt x="441" y="370" on="0"/>
        <pt x="476" y="280" on="1"/>
        <pt x="551" y="85" on="0"/>
        <pt x="589" y="10" on="1"/>
        <pt x="551" y="-10" on="0"/>
        <pt x="525" y="-10" on="1"/>
        <pt x="483" y="-10" on="0"/>
        <pt x="467" y="17" on="1"/>
        <pt x="455" y="48" on="0"/>
        <pt x="412" y="169" on="0"/>
        <pt x="400" y="201" on="1"/>
        <pt x="302" y="199" on="0"/>
      </contour>
      <contour>
        <pt x="446" y="804" on="1"/>
        <pt x="446" y="774" on="0"/>
        <pt x="379" y="718" on="0"/>
        <pt x="339" y="718" on="1"/>
        <pt x="310" y="718" on="0"/>
        <pt x="234" y="762" on="0"/>
        <pt x="227" y="762" on="1"/>
        <pt x="213" y="762" on="0"/>
        <pt x="176" y="716" on="1"/>
        <pt x="142" y="731" on="0"/>
        <pt x="142" y="754" on="1"/>
        <pt x="142" y="783" on="0"/>
        <pt x="209" y="835" on="0"/>
        <pt x="250" y="835" on="1"/>
        <pt x="274" y="835" on="0"/>
        <pt x="349" y="791" on="0"/>
        <pt x="360" y="791" on="1"/>
        <pt x="379" y="791" on="0"/>
        <pt x="411" y="836" on="1"/>
        <pt x="446" y="826" on="0"/>
      </contour>
    </TTGlyph>
    <TTGlyph name="B" xMin="59" yMin="-10" xMax="512" yMax="673">
      <contour>
        <pt x="230" y="596" on="1"/>
        <pt x="211" y="596" on="0"/>
        <pt x="175" y="592" on="1"/>
        <pt x="179" y="516" on="0"/>
        <pt x="179" y="389" on="1"/>
        <pt x="205" y="387" on="0"/>
        <pt x="224" y="387" on="1"/>
        <pt x="374" y="387" on="0"/>
        <pt x="374" y="490" on="1"/>
        <pt x="374" y="596" on="0"/>
      </contour>
      <contour>
        <pt x="270" y="67" on="1"/>
        <pt x="324" y="67" on="0"/>
        <pt x="398" y="134" on="0"/>
        <pt x="398" y="192" on="1"/>
        <pt x="398" y="257" on="0"/>
        <pt x="317" y="325" on="0"/>
        <pt x="257" y="325" on="1"/>
        <pt x="203" y="325" on="0"/>
        <pt x="178" y="320" on="1"/>
        <pt x="178" y="277" on="0"/>
        <pt x="169" y="127" on="0"/>
        <pt x="165" y="103" on="1"/>
        <pt x="181" y="88" on="0"/>
        <pt x="242" y="67" on="0"/>
      </contour>
      <contour>
        <pt x="59" y="53" on="1"/>
        <pt x="75" y="167" on="0"/>
        <pt x="75" y="387" on="1"/>
        <pt x="75" y="573" on="0"/>
        <pt x="62" y="661" on="1"/>
        <pt x="139" y="673" on="0"/>
        <pt x="229" y="673" on="1"/>
        <pt x="343" y="673" on="0"/>
        <pt x="488" y="593" on="0"/>
        <pt x="488" y="501" on="1"/>
        <pt x="488" y="401" on="0"/>
        <pt x="401" y="362" on="1"/>
        <pt x="512" y="315" on="0"/>
        <pt x="512" y="191" on="1"/>
        <pt x="512" y="96" on="0"/>
        <pt x="383" y="-10" on="0"/>
        <pt x="290" y="-10" on="1"/>
        <pt x="139" y="-10" on="0"/>
      </contour>
    </TTGlyph>
    <TTGlyph name="C" xMin="42" yMin="-10" xMax="571" yMax="673">
      <contour>
        <pt x="517" y="155" on="1"/>
        <pt x="539" y="144" on="0"/>
        <pt x="571" y="109" on="0"/>
        <pt x="571" y="90" on="1"/>
        <pt x="571" y="49" on="0"/>
        <pt x="454" y="-10" on="0"/>
        <pt x="365" y="-10" on="1"/>
        <pt x="219" y="-10" on="0"/>
        <pt x="42" y="179" on="0"/>
        <pt x="42" y="332" on="1"/>
        <pt x="42" y="492" on="0"/>
        <pt x="219" y="673" on="0"/>
        <pt x="370" y="673" on="1"/>
        <pt x="451" y="673" on="0"/>
        <pt x="561" y="610" on="0"/>
        <pt x="561" y="564" on="1"/>
        <pt x="561" y="540" on="0"/>
        <pt x="522" y="504" on="0"/>
        <pt x="482" y="498" on="1"/>
        <pt x="467" y="545" on="0"/>
        <pt x="390" y="594" on="0"/>
        <pt x="348" y="594" on="1"/>
        <pt x="263" y="594" on="0"/>
        <pt x="156" y="456" on="0"/>
        <pt x="156" y="351" on="1"/>
        <pt x="156" y="230" on="0"/>
        <pt x="265" y="69" on="0"/>
        <pt x="364" y="69" on="1"/>
        <pt x="409" y="69" on="0"/>
        <pt x="493" y="112" on="0"/>
      </contour>
    </TTGlyph>
    <TTGlyph name="Ccedilla" xMin="42" yMin="-244" xMax="571" yMax="673">
      <contour>
        <pt x="517" y="155" on="1"/>
        <pt x="539" y="144" on="0"/>
        <pt x="571" y="109" on="0"/>
        <pt x="571" y="90" on="1"/>
        <pt x="571" y="50" on="0"/>
        <pt x="459" y="-9" on="0"/>
        <pt x="372" y="-10" on="1"/>
        <pt x="366" y="-32" on="0"/>
        <pt x="366" y="-39" on="1"/>
        <pt x="366" y="-45" on="0"/>
        <pt x="389" y="-58" on="1"/>
        <pt x="448" y="-89" on="0"/>
        <pt x="448" y="-139" on="1"/>
        <pt x="448" y="-180" on="0"/>
        <pt x="372" y="-244" on="0"/>
        <pt x="315" y="-244" on="1"/>
        <pt x="264" y="-244" on="0"/>
        <pt x="264" y="-212" on="1"/>
        <pt x="264" y="-193" on="0"/>
        <pt x="289" y="-170" on="1"/>
        <pt x="305" y="-184" on="0"/>
        <pt x="328" y="-184" on="1"/>
        <pt x="365" y="-184" on="0"/>
        <pt x="365" y="-153" on="1"/>
        <pt x="365" y="-132" on="0"/>
        <pt x="296" y="-84" on="0"/>
        <pt x="296" y="-62" on="1"/>
        <pt x="296" y="-43" on="0"/>
        <pt x="311" y="-6" on="1"/>
        <pt x="187" y="11" on="0"/>
        <pt x="42" y="194" on="0"/>
        <pt x="42" y="332" on="1"/>
        <pt x="42" y="492" on="0"/>
        <pt x="219" y="673" on="0"/>
        <pt x="370" y="673" on="1"/>
        <pt x="451" y="673" on="0"/>
        <pt x="561" y="610" on="0"/>
        <pt x="561" y="564" on="1"/>
        <pt x="561" y="540" on="0"/>
        <pt x="522" y="504" on="0"/>
        <pt x="482" y="498" on="1"/>
        <pt x="467" y="545" on="0"/>
        <pt x="390" y="594" on="0"/>
        <pt x="348" y="594" on="1"/>
        <pt x="263" y="594" on="0"/>
        <pt x="156" y="456" on="0"/>
        <pt x="156" y="351" on="1"/>
        <pt x="156" y="230" on="0"/>
        <pt x="265" y="69" on="0"/>
        <pt x="364" y="69" on="1"/>
        <pt x="409" y="69" on="0"/>
        <pt x="493" y="112" on="0"/>
      </contour>
    </TTGlyph>
    <TTGlyph name="D" xMin="56" yMin="-10" xMax="596" yMax="673">
      <contour>
        <pt x="56" y="53" on="1"/>
        <pt x="70" y="144" on="0"/>
        <pt x="72" y="389" on="1"/>
        <pt x="72" y="564" on="0"/>
        <pt x="59" y="661" on="1"/>
        <pt x="122" y="673" on="0"/>
        <pt x="220" y="673" on="1"/>
        <pt x="301" y="673" on="0"/>
        <pt x="430" y="639" on="0"/>
        <pt x="537" y="564" on="0"/>
        <pt x="596" y="428" on="0"/>
        <pt x="596" y="333" on="1"/>
        <pt x="596" y="183" on="0"/>
        <pt x="430" y="-10" on="0"/>
        <pt x="276" y="-10" on="1"/>
        <pt x="134" y="-10" on="0"/>
      </contour>
      <contour>
        <pt x="172" y="592" on="1"/>
        <pt x="176" y="527" on="0"/>
        <pt x="176" y="439" on="1"/>
        <pt x="176" y="232" on="0"/>
        <pt x="162" y="105" on="1"/>
        <pt x="210" y="70" on="0"/>
        <pt x="281" y="70" on="1"/>
        <pt x="337" y="70" on="0"/>
        <pt x="419" y="115" on="0"/>
        <pt x="462" y="190" on="0"/>
        <pt x="482" y="271" on="0"/>
        <pt x="482" y="315" on="1"/>
        <pt x="482" y="455" on="0"/>
        <pt x="351" y="596" on="0"/>
        <pt x="229" y="596" on="1"/>
        <pt x="210" y="596" on="0"/>
      </contour>
    </TTGlyph>
    <TTGlyph name="Delta" xMin="34" yMin="0" xMax="638" yMax="644">
      <contour>
        <pt x="317" y="527" on="1"/>
        <pt x="123" y="87" on="1"/>
        <pt x="178" y="80" on="0"/>
        <pt x="310" y="80" on="1"/>
        <pt x="441" y="80" on="0"/>
        <pt x="501" y="87" on="1"/>
      </contour>
      <contour>
        <pt x="594" y="0" on="1"/>
        <pt x="78" y="0" on="1"/>
        <pt x="34" y="0" on="0"/>
        <pt x="34" y="47" on="1"/>
        <pt x="229" y="478" on="0"/>
        <pt x="285" y="618" on="1"/>
        <pt x="295" y="644" on="0"/>
        <pt x="341" y="644" on="1"/>
        <pt x="366" y="644" on="0"/>
        <pt x="381" y="640" on="1"/>
        <pt x="410" y="573" on="0"/>
        <pt x="622" y="82" on="0"/>
        <pt x="638" y="48" on="1"/>
        <pt x="638" y="0" on="0"/>
      </contour>
    </TTGlyph>
    <TTGlyph name="E" xMin="56" yMin="-2" xMax="466" yMax="666">
      <contour>
        <pt x="171" y="583" on="1"/>
        <pt x="175" y="544" on="0"/>
        <pt x="175" y="396" on="1"/>
        <pt x="250" y="396" on="1"/>
        <pt x="330" y="396" on="0"/>
        <pt x="364" y="400" on="1"/>
        <pt x="368" y="391" on="0"/>
        <pt x="368" y="368" on="1"/>
        <pt x="368" y="340" on="0"/>
        <pt x="348" y="319" on="0"/>
        <pt x="326" y="318" on="1"/>
        <pt x="301" y="317" on="0"/>
        <pt x="259" y="317" on="1"/>
        <pt x="175" y="317" on="1"/>
        <pt x="175" y="118" on="0"/>
        <pt x="182" y="78" on="1"/>
        <pt x="224" y="76" on="0"/>
        <pt x="251" y="76" on="1"/>
        <pt x="411" y="76" on="0"/>
        <pt x="458" y="98" on="1"/>
        <pt x="466" y="75" on="0"/>
        <pt x="466" y="45" on="1"/>
        <pt x="466" y="22" on="0"/>
        <pt x="457" y="13" on="1"/>
        <pt x="438" y="-2" on="0"/>
        <pt x="286" y="-2" on="1"/>
        <pt x="150" y="-2" on="0"/>
        <pt x="120" y="0" on="1"/>
        <pt x="89" y="1" on="0"/>
        <pt x="68" y="26" on="0"/>
        <pt x="68" y="57" on="1"/>
        <pt x="68" y="76" on="0"/>
        <pt x="70" y="202" on="0"/>
        <pt x="70" y="236" on="1"/>
        <pt x="70" y="430" on="1"/>
        <pt x="70" y="570" on="0"/>
        <pt x="56" y="657" on="1"/>
        <pt x="165" y="666" on="0"/>
        <pt x="279" y="666" on="1"/>
        <pt x="427" y="666" on="0"/>
        <pt x="446" y="651" on="1"/>
        <pt x="455" y="642" on="0"/>
        <pt x="455" y="619" on="1"/>
        <pt x="455" y="589" on="0"/>
        <pt x="447" y="565" on="1"/>
        <pt x="392" y="586" on="0"/>
        <pt x="273" y="586" on="1"/>
        <pt x="225" y="586" on="0"/>
      </contour>
    </TTGlyph>
    <TTGlyph name="Eacute" xMin="56" yMin="-2" xMax="466" yMax="921">
      <contour>
        <pt x="383" y="819" on="1"/>
        <pt x="365" y="805" on="0"/>
        <pt x="250" y="741" on="0"/>
        <pt x="223" y="716" on="1"/>
        <pt x="193" y="743" on="0"/>
        <pt x="193" y="765" on="1"/>
        <pt x="193" y="778" on="0"/>
        <pt x="213" y="797" on="0"/>
        <pt x="247" y="817" on="0"/>
        <pt x="317" y="878" on="0"/>
        <pt x="356" y="921" on="1"/>
        <pt x="410" y="893" on="0"/>
        <pt x="410" y="862" on="1"/>
        <pt x="410" y="838" on="0"/>
      </contour>
      <contour>
        <pt x="171" y="583" on="1"/>
        <pt x="175" y="544" on="0"/>
        <pt x="175" y="396" on="1"/>
        <pt x="250" y="396" on="1"/>
        <pt x="330" y="396" on="0"/>
        <pt x="364" y="400" on="1"/>
        <pt x="368" y="391" on="0"/>
        <pt x="368" y="368" on="1"/>
        <pt x="368" y="340" on="0"/>
        <pt x="348" y="319" on="0"/>
        <pt x="326" y="318" on="1"/>
        <pt x="301" y="317" on="0"/>
        <pt x="259" y="317" on="1"/>
        <pt x="175" y="317" on="1"/>
        <pt x="175" y="118" on="0"/>
        <pt x="182" y="78" on="1"/>
        <pt x="224" y="76" on="0"/>
        <pt x="251" y="76" on="1"/>
        <pt x="411" y="76" on="0"/>
        <pt x="458" y="98" on="1"/>
        <pt x="466" y="75" on="0"/>
        <pt x="466" y="45" on="1"/>
        <pt x="466" y="22" on="0"/>
        <pt x="457" y="13" on="1"/>
        <pt x="438" y="-2" on="0"/>
        <pt x="286" y="-2" on="1"/>
        <pt x="150" y="-2" on="0"/>
        <pt x="120" y="0" on="1"/>
        <pt x="89" y="1" on="0"/>
        <pt x="68" y="26" on="0"/>
        <pt x="68" y="57" on="1"/>
        <pt x="68" y="76" on="0"/>
        <pt x="70" y="202" on="0"/>
        <pt x="70" y="236" on="1"/>
        <pt x="70" y="430" on="1"/>
        <pt x="70" y="570" on="0"/>
        <pt x="56" y="657" on="1"/>
        <pt x="165" y="666" on="0"/>
        <pt x="279" y="666" on="1"/>
        <pt x="427" y="666" on="0"/>
        <pt x="446" y="651" on="1"/>
        <pt x="455" y="642" on="0"/>
        <pt x="455" y="619" on="1"/>
        <pt x="455" y="589" on="0"/>
        <pt x="447" y="565" on="1"/>
        <pt x="392" y="586" on="0"/>
        <pt x="273" y="586" on="1"/>
        <pt x="225" y="586" on="0"/>
      </contour>
    </TTGlyph>
    <TTGlyph name="Ecircumflex" xMin="56" yMin="-2" xMax="466" yMax="895">
      <contour>
        <pt x="392" y="757" on="1"/>
        <pt x="392" y="736" on="0"/>
        <pt x="355" y="712" on="1"/>
        <pt x="338" y="733" on="0"/>
        <pt x="288" y="776" on="0"/>
        <pt x="271" y="788" on="1"/>
        <pt x="254" y="799" on="1"/>
        <pt x="167" y="724" on="0"/>
        <pt x="140" y="724" on="1"/>
        <pt x="118" y="724" on="0"/>
        <pt x="99" y="750" on="1"/>
        <pt x="173" y="837" on="0"/>
        <pt x="255" y="895" on="1"/>
        <pt x="392" y="800" on="0"/>
      </contour>
      <contour>
        <pt x="171" y="583" on="1"/>
        <pt x="175" y="544" on="0"/>
        <pt x="175" y="396" on="1"/>
        <pt x="250" y="396" on="1"/>
        <pt x="330" y="396" on="0"/>
        <pt x="364" y="400" on="1"/>
        <pt x="368" y="391" on="0"/>
        <pt x="368" y="368" on="1"/>
        <pt x="368" y="340" on="0"/>
        <pt x="348" y="319" on="0"/>
        <pt x="326" y="318" on="1"/>
        <pt x="301" y="317" on="0"/>
        <pt x="259" y="317" on="1"/>
        <pt x="175" y="317" on="1"/>
        <pt x="175" y="118" on="0"/>
        <pt x="182" y="78" on="1"/>
        <pt x="224" y="76" on="0"/>
        <pt x="251" y="76" on="1"/>
        <pt x="411" y="76" on="0"/>
        <pt x="458" y="98" on="1"/>
        <pt x="466" y="75" on="0"/>
        <pt x="466" y="45" on="1"/>
        <pt x="466" y="22" on="0"/>
        <pt x="457" y="13" on="1"/>
        <pt x="438" y="-2" on="0"/>
        <pt x="286" y="-2" on="1"/>
        <pt x="150" y="-2" on="0"/>
        <pt x="120" y="0" on="1"/>
        <pt x="89" y="1" on="0"/>
        <pt x="68" y="26" on="0"/>
        <pt x="68" y="57" on="1"/>
        <pt x="68" y="76" on="0"/>
        <pt x="70" y="202" on="0"/>
        <pt x="70" y="236" on="1"/>
        <pt x="70" y="430" on="1"/>
        <pt x="70" y="570" on="0"/>
        <pt x="56" y="657" on="1"/>
        <pt x="165" y="666" on="0"/>
        <pt x="279" y="666" on="1"/>
        <pt x="427" y="666" on="0"/>
        <pt x="446" y="651" on="1"/>
        <pt x="455" y="642" on="0"/>
        <pt x="455" y="619" on="1"/>
        <pt x="455" y="589" on="0"/>
        <pt x="447" y="565" on="1"/>
        <pt x="392" y="586" on="0"/>
        <pt x="273" y="586" on="1"/>
        <pt x="225" y="586" on="0"/>
      </contour>
    </TTGlyph>
    <TTGlyph name="Edieresis" xMin="56" yMin="-2" xMax="466" yMax="854">
      <contour>
        <pt x="171" y="583" on="1"/>
        <pt x="175" y="544" on="0"/>
        <pt x="175" y="396" on="1"/>
        <pt x="250" y="396" on="1"/>
        <pt x="330" y="396" on="0"/>
        <pt x="364" y="400" on="1"/>
        <pt x="368" y="391" on="0"/>
        <pt x="368" y="368" on="1"/>
        <pt x="368" y="340" on="0"/>
        <pt x="348" y="319" on="0"/>
        <pt x="326" y="318" on="1"/>
        <pt x="301" y="317" on="0"/>
        <pt x="259" y="317" on="1"/>
        <pt x="175" y="317" on="1"/>
        <pt x="175" y="118" on="0"/>
        <pt x="182" y="78" on="1"/>
        <pt x="224" y="76" on="0"/>
        <pt x="251" y="76" on="1"/>
        <pt x="411" y="76" on="0"/>
        <pt x="458" y="98" on="1"/>
        <pt x="466" y="75" on="0"/>
        <pt x="466" y="45" on="1"/>
        <pt x="466" y="22" on="0"/>
        <pt x="457" y="13" on="1"/>
        <pt x="438" y="-2" on="0"/>
        <pt x="286" y="-2" on="1"/>
        <pt x="150" y="-2" on="0"/>
        <pt x="120" y="0" on="1"/>
        <pt x="89" y="1" on="0"/>
        <pt x="68" y="26" on="0"/>
        <pt x="68" y="57" on="1"/>
        <pt x="68" y="76" on="0"/>
        <pt x="70" y="202" on="0"/>
        <pt x="70" y="236" on="1"/>
        <pt x="70" y="430" on="1"/>
        <pt x="70" y="570" on="0"/>
        <pt x="56" y="657" on="1"/>
        <pt x="165" y="666" on="0"/>
        <pt x="279" y="666" on="1"/>
        <pt x="427" y="666" on="0"/>
        <pt x="446" y="651" on="1"/>
        <pt x="455" y="642" on="0"/>
        <pt x="455" y="619" on="1"/>
        <pt x="455" y="589" on="0"/>
        <pt x="447" y="565" on="1"/>
        <pt x="392" y="586" on="0"/>
        <pt x="273" y="586" on="1"/>
        <pt x="225" y="586" on="0"/>
      </contour>
      <contour>
        <pt x="353" y="712" on="1"/>
        <pt x="323" y="712" on="0"/>
        <pt x="281" y="752" on="0"/>
        <pt x="281" y="783" on="1"/>
        <pt x="281" y="813" on="0"/>
        <pt x="325" y="854" on="0"/>
        <pt x="355" y="854" on="1"/>
        <pt x="384" y="854" on="0"/>
        <pt x="426" y="813" on="0"/>
        <pt x="426" y="753" on="0"/>
        <pt x="382" y="712" on="0"/>
      </contour>
      <contour>
        <pt x="163" y="712" on="1"/>
        <pt x="133" y="712" on="0"/>
        <pt x="91" y="752" on="0"/>
        <pt x="91" y="783" on="1"/>
        <pt x="91" y="813" on="0"/>
        <pt x="135" y="854" on="0"/>
        <pt x="165" y="854" on="1"/>
        <pt x="194" y="854" on="0"/>
        <pt x="236" y="813" on="0"/>
        <pt x="236" y="753" on="0"/>
        <pt x="192" y="712" on="0"/>
      </contour>
    </TTGlyph>
    <TTGlyph name="Egrave" xMin="56" yMin="-2" xMax="466" yMax="915">
      <contour>
        <pt x="141" y="915" on="1"/>
        <pt x="181" y="872" on="0"/>
        <pt x="269" y="806" on="0"/>
        <pt x="308" y="776" on="0"/>
        <pt x="308" y="760" on="1"/>
        <pt x="308" y="737" on="0"/>
        <pt x="276" y="716" on="1"/>
        <pt x="245" y="739" on="0"/>
        <pt x="142" y="794" on="0"/>
        <pt x="89" y="833" on="0"/>
        <pt x="89" y="854" on="1"/>
        <pt x="89" y="889" on="0"/>
      </contour>
      <contour>
        <pt x="171" y="583" on="1"/>
        <pt x="175" y="544" on="0"/>
        <pt x="175" y="396" on="1"/>
        <pt x="250" y="396" on="1"/>
        <pt x="330" y="396" on="0"/>
        <pt x="364" y="400" on="1"/>
        <pt x="368" y="391" on="0"/>
        <pt x="368" y="368" on="1"/>
        <pt x="368" y="340" on="0"/>
        <pt x="348" y="319" on="0"/>
        <pt x="326" y="318" on="1"/>
        <pt x="301" y="317" on="0"/>
        <pt x="259" y="317" on="1"/>
        <pt x="175" y="317" on="1"/>
        <pt x="175" y="118" on="0"/>
        <pt x="182" y="78" on="1"/>
        <pt x="224" y="76" on="0"/>
        <pt x="251" y="76" on="1"/>
        <pt x="411" y="76" on="0"/>
        <pt x="458" y="98" on="1"/>
        <pt x="466" y="75" on="0"/>
        <pt x="466" y="45" on="1"/>
        <pt x="466" y="22" on="0"/>
        <pt x="457" y="13" on="1"/>
        <pt x="438" y="-2" on="0"/>
        <pt x="286" y="-2" on="1"/>
        <pt x="150" y="-2" on="0"/>
        <pt x="120" y="0" on="1"/>
        <pt x="89" y="1" on="0"/>
        <pt x="68" y="26" on="0"/>
        <pt x="68" y="57" on="1"/>
        <pt x="68" y="76" on="0"/>
        <pt x="70" y="202" on="0"/>
        <pt x="70" y="236" on="1"/>
        <pt x="70" y="430" on="1"/>
        <pt x="70" y="570" on="0"/>
        <pt x="56" y="657" on="1"/>
        <pt x="165" y="666" on="0"/>
        <pt x="279" y="666" on="1"/>
        <pt x="427" y="666" on="0"/>
        <pt x="446" y="651" on="1"/>
        <pt x="455" y="642" on="0"/>
        <pt x="455" y="619" on="1"/>
        <pt x="455" y="589" on="0"/>
        <pt x="447" y="565" on="1"/>
        <pt x="392" y="586" on="0"/>
        <pt x="273" y="586" on="1"/>
        <pt x="225" y="586" on="0"/>
      </contour>
    </TTGlyph>
    <TTGlyph name="Eth" xMin="-14" yMin="-10" xMax="609" yMax="673">
      <contour>
        <pt x="185" y="592" on="1"/>
        <pt x="189" y="527" on="0"/>
        <pt x="189" y="439" on="1"/>
        <pt x="189" y="395" on="1"/>
        <pt x="234" y="395" on="1"/>
        <pt x="317" y="395" on="0"/>
        <pt x="348" y="399" on="1"/>
        <pt x="352" y="383" on="0"/>
        <pt x="352" y="365" on="1"/>
        <pt x="352" y="318" on="0"/>
        <pt x="308" y="317" on="1"/>
        <pt x="279" y="316" on="0"/>
        <pt x="187" y="316" on="1"/>
        <pt x="183" y="181" on="0"/>
        <pt x="175" y="105" on="1"/>
        <pt x="223" y="70" on="0"/>
        <pt x="294" y="70" on="1"/>
        <pt x="350" y="70" on="0"/>
        <pt x="432" y="115" on="0"/>
        <pt x="475" y="190" on="0"/>
        <pt x="495" y="271" on="0"/>
        <pt x="495" y="315" on="1"/>
        <pt x="495" y="455" on="0"/>
        <pt x="364" y="596" on="0"/>
        <pt x="242" y="596" on="1"/>
        <pt x="223" y="596" on="0"/>
      </contour>
      <contour>
        <pt x="69" y="53" on="1"/>
        <pt x="82" y="145" on="0"/>
        <pt x="84" y="316" on="1"/>
        <pt x="22" y="316" on="0"/>
        <pt x="-9" y="312" on="1"/>
        <pt x="-14" y="325" on="0"/>
        <pt x="-14" y="348" on="1"/>
        <pt x="-14" y="392" on="0"/>
        <pt x="31" y="394" on="1"/>
        <pt x="44" y="395" on="0"/>
        <pt x="85" y="395" on="1"/>
        <pt x="85" y="557" on="0"/>
        <pt x="72" y="661" on="1"/>
        <pt x="135" y="673" on="0"/>
        <pt x="233" y="673" on="1"/>
        <pt x="314" y="673" on="0"/>
        <pt x="443" y="639" on="0"/>
        <pt x="550" y="564" on="0"/>
        <pt x="609" y="428" on="0"/>
        <pt x="609" y="333" on="1"/>
        <pt x="609" y="183" on="0"/>
        <pt x="443" y="-10" on="0"/>
        <pt x="289" y="-10" on="1"/>
        <pt x="147" y="-10" on="0"/>
      </contour>
    </TTGlyph>
    <TTGlyph name="Euro" xMin="17" yMin="-9" xMax="531" yMax="674">
      <contour>
        <pt x="184" y="355" on="1"/>
        <pt x="184" y="332" on="1"/>
        <pt x="184" y="313" on="0"/>
        <pt x="185" y="301" on="1"/>
        <pt x="296" y="301" on="1"/>
        <pt x="403" y="301" on="0"/>
        <pt x="468" y="307" on="1"/>
        <pt x="473" y="284" on="1"/>
        <pt x="473" y="247" on="0"/>
        <pt x="430" y="247" on="1"/>
        <pt x="193" y="247" on="1"/>
        <pt x="215" y="161" on="0"/>
        <pt x="325" y="63" on="0"/>
        <pt x="379" y="63" on="1"/>
        <pt x="439" y="63" on="0"/>
        <pt x="492" y="103" on="1"/>
        <pt x="531" y="79" on="0"/>
        <pt x="531" y="46" on="1"/>
        <pt x="531" y="-9" on="0"/>
        <pt x="385" y="-9" on="1"/>
        <pt x="316" y="-9" on="0"/>
        <pt x="198" y="38" on="0"/>
        <pt x="102" y="157" on="0"/>
        <pt x="88" y="247" on="1"/>
        <pt x="76" y="246" on="0"/>
        <pt x="29" y="242" on="0"/>
        <pt x="23" y="241" on="1"/>
        <pt x="17" y="251" on="0"/>
        <pt x="17" y="267" on="1"/>
        <pt x="17" y="301" on="0"/>
        <pt x="60" y="301" on="1"/>
        <pt x="81" y="301" on="1"/>
        <pt x="80" y="317" on="0"/>
        <pt x="80" y="335" on="1"/>
        <pt x="80" y="348" on="0"/>
        <pt x="81" y="355" on="1"/>
        <pt x="51" y="353" on="0"/>
        <pt x="23" y="348" on="1"/>
        <pt x="17" y="358" on="0"/>
        <pt x="17" y="374" on="1"/>
        <pt x="17" y="409" on="0"/>
        <pt x="60" y="409" on="1"/>
        <pt x="86" y="409" on="1"/>
        <pt x="106" y="544" on="0"/>
        <pt x="275" y="674" on="0"/>
        <pt x="385" y="674" on="1"/>
        <pt x="531" y="674" on="0"/>
        <pt x="531" y="620" on="1"/>
        <pt x="531" y="587" on="0"/>
        <pt x="492" y="563" on="1"/>
        <pt x="439" y="603" on="0"/>
        <pt x="319" y="603" on="0"/>
        <pt x="209" y="503" on="0"/>
        <pt x="191" y="409" on="1"/>
        <pt x="296" y="409" on="1"/>
        <pt x="403" y="409" on="0"/>
        <pt x="468" y="415" on="1"/>
        <pt x="473" y="391" on="1"/>
        <pt x="473" y="355" on="0"/>
        <pt x="430" y="355" on="1"/>
      </contour>
    </TTGlyph>
    <TTGlyph name="Eurooldstyle" xMin="15" yMin="-10" xMax="526" yMax="583">
      <contour>
        <pt x="15" y="331" on="1"/>
        <pt x="15" y="364" on="0"/>
        <pt x="58" y="364" on="1"/>
        <pt x="93" y="364" on="1"/>
        <pt x="115" y="473" on="0"/>
        <pt x="276" y="583" on="0"/>
        <pt x="380" y="583" on="1"/>
        <pt x="526" y="583" on="0"/>
        <pt x="526" y="528" on="1"/>
        <pt x="526" y="495" on="0"/>
        <pt x="487" y="471" on="1"/>
        <pt x="435" y="512" on="0"/>
        <pt x="374" y="512" on="1"/>
        <pt x="318" y="512" on="0"/>
        <pt x="219" y="436" on="0"/>
        <pt x="199" y="364" on="1"/>
        <pt x="291" y="364" on="1"/>
        <pt x="398" y="364" on="0"/>
        <pt x="463" y="370" on="1"/>
        <pt x="468" y="346" on="1"/>
        <pt x="468" y="310" on="0"/>
        <pt x="425" y="310" on="1"/>
        <pt x="189" y="310" on="1"/>
        <pt x="189" y="266" on="1"/>
        <pt x="229" y="266" on="1"/>
        <pt x="398" y="266" on="0"/>
        <pt x="463" y="272" on="1"/>
        <pt x="468" y="248" on="1"/>
        <pt x="468" y="212" on="0"/>
        <pt x="425" y="212" on="1"/>
        <pt x="198" y="212" on="1"/>
        <pt x="217" y="140" on="0"/>
        <pt x="319" y="62" on="0"/>
        <pt x="374" y="62" on="1"/>
        <pt x="434" y="62" on="0"/>
        <pt x="487" y="102" on="1"/>
        <pt x="526" y="78" on="0"/>
        <pt x="526" y="45" on="1"/>
        <pt x="526" y="-10" on="0"/>
        <pt x="380" y="-10" on="1"/>
        <pt x="275" y="-10" on="0"/>
        <pt x="114" y="99" on="0"/>
        <pt x="92" y="212" on="1"/>
        <pt x="73" y="211" on="0"/>
        <pt x="21" y="205" on="1"/>
        <pt x="15" y="222" on="0"/>
        <pt x="15" y="233" on="1"/>
        <pt x="15" y="266" on="0"/>
        <pt x="58" y="266" on="1"/>
        <pt x="86" y="266" on="1"/>
        <pt x="86" y="310" on="1"/>
        <pt x="67" y="309" on="0"/>
        <pt x="21" y="303" on="1"/>
        <pt x="15" y="320" on="0"/>
      </contour>
    </TTGlyph>
    <TTGlyph name="F" xMin="56" yMin="-10" xMax="455" yMax="666">
      <contour>
        <pt x="175" y="306" on="1"/>
        <pt x="175" y="196" on="1"/>
        <pt x="175" y="63" on="0"/>
        <pt x="194" y="0" on="1"/>
        <pt x="166" y="-10" on="0"/>
        <pt x="132" y="-10" on="1"/>
        <pt x="95" y="-10" on="0"/>
        <pt x="68" y="16" on="0"/>
        <pt x="68" y="47" on="1"/>
        <pt x="68" y="63" on="0"/>
        <pt x="70" y="189" on="0"/>
        <pt x="70" y="224" on="1"/>
        <pt x="70" y="432" on="1"/>
        <pt x="70" y="570" on="0"/>
        <pt x="56" y="657" on="1"/>
        <pt x="165" y="666" on="0"/>
        <pt x="279" y="666" on="1"/>
        <pt x="427" y="666" on="0"/>
        <pt x="446" y="651" on="1"/>
        <pt x="455" y="642" on="0"/>
        <pt x="455" y="619" on="1"/>
        <pt x="455" y="589" on="0"/>
        <pt x="447" y="565" on="1"/>
        <pt x="392" y="586" on="0"/>
        <pt x="273" y="586" on="1"/>
        <pt x="225" y="586" on="0"/>
        <pt x="171" y="583" on="1"/>
        <pt x="175" y="552" on="0"/>
        <pt x="175" y="449" on="1"/>
        <pt x="175" y="385" on="1"/>
        <pt x="250" y="385" on="1"/>
        <pt x="330" y="385" on="0"/>
        <pt x="364" y="389" on="1"/>
        <pt x="368" y="380" on="0"/>
        <pt x="368" y="357" on="1"/>
        <pt x="368" y="329" on="0"/>
        <pt x="348" y="308" on="0"/>
        <pt x="326" y="307" on="1"/>
        <pt x="301" y="306" on="0"/>
        <pt x="259" y="306" on="1"/>
      </contour>
    </TTGlyph>
    <TTGlyph name="G" xMin="42" yMin="-10" xMax="578" yMax="673">
      <contour>
        <pt x="571" y="85" on="1"/>
        <pt x="571" y="49" on="0"/>
        <pt x="452" y="-10" on="0"/>
        <pt x="365" y="-10" on="1"/>
        <pt x="219" y="-10" on="0"/>
        <pt x="42" y="179" on="0"/>
        <pt x="42" y="332" on="1"/>
        <pt x="42" y="492" on="0"/>
        <pt x="219" y="673" on="0"/>
        <pt x="370" y="673" on="1"/>
        <pt x="451" y="673" on="0"/>
        <pt x="561" y="610" on="0"/>
        <pt x="561" y="564" on="1"/>
        <pt x="561" y="511" on="0"/>
        <pt x="482" y="498" on="1"/>
        <pt x="465" y="546" on="0"/>
        <pt x="391" y="594" on="0"/>
        <pt x="349" y="594" on="1"/>
        <pt x="264" y="594" on="0"/>
        <pt x="156" y="455" on="0"/>
        <pt x="156" y="351" on="1"/>
        <pt x="156" y="230" on="0"/>
        <pt x="262" y="69" on="0"/>
        <pt x="356" y="69" on="1"/>
        <pt x="425" y="69" on="0"/>
        <pt x="469" y="101" on="1"/>
        <pt x="467" y="229" on="0"/>
        <pt x="462" y="311" on="1"/>
        <pt x="485" y="314" on="0"/>
        <pt x="511" y="314" on="1"/>
        <pt x="578" y="314" on="0"/>
        <pt x="578" y="277" on="1"/>
        <pt x="574" y="209" on="1"/>
        <pt x="571" y="141" on="0"/>
      </contour>
    </TTGlyph>
    <TTGlyph name="H" xMin="56" yMin="-3" xMax="572" yMax="666">
      <contour>
        <pt x="63" y="231" on="1"/>
        <pt x="63" y="431" on="1"/>
        <pt x="63" y="570" on="0"/>
        <pt x="56" y="661" on="1"/>
        <pt x="86" y="666" on="0"/>
        <pt x="109" y="666" on="1"/>
        <pt x="176" y="666" on="0"/>
        <pt x="176" y="628" on="1"/>
        <pt x="176" y="622" on="0"/>
        <pt x="172" y="549" on="0"/>
        <pt x="168" y="443" on="0"/>
        <pt x="168" y="397" on="1"/>
        <pt x="222" y="396" on="0"/>
        <pt x="398" y="396" on="0"/>
        <pt x="448" y="397" on="1"/>
        <pt x="448" y="431" on="1"/>
        <pt x="448" y="570" on="0"/>
        <pt x="441" y="661" on="1"/>
        <pt x="471" y="666" on="0"/>
        <pt x="494" y="666" on="1"/>
        <pt x="561" y="666" on="0"/>
        <pt x="561" y="628" on="1"/>
        <pt x="561" y="622" on="0"/>
        <pt x="557" y="553" on="0"/>
        <pt x="553" y="450" on="0"/>
        <pt x="553" y="404" on="1"/>
        <pt x="553" y="203" on="1"/>
        <pt x="553" y="70" on="0"/>
        <pt x="572" y="7" on="1"/>
        <pt x="544" y="-3" on="0"/>
        <pt x="510" y="-3" on="1"/>
        <pt x="473" y="-3" on="0"/>
        <pt x="446" y="23" on="0"/>
        <pt x="446" y="54" on="1"/>
        <pt x="446" y="70" on="0"/>
        <pt x="448" y="196" on="0"/>
        <pt x="448" y="231" on="1"/>
        <pt x="448" y="323" on="1"/>
        <pt x="397" y="322" on="0"/>
        <pt x="307" y="322" on="1"/>
        <pt x="219" y="322" on="0"/>
        <pt x="168" y="323" on="1"/>
        <pt x="168" y="203" on="1"/>
        <pt x="168" y="70" on="0"/>
        <pt x="187" y="7" on="1"/>
        <pt x="159" y="-3" on="0"/>
        <pt x="125" y="-3" on="1"/>
        <pt x="88" y="-3" on="0"/>
        <pt x="61" y="23" on="0"/>
        <pt x="61" y="54" on="1"/>
        <pt x="61" y="70" on="0"/>
        <pt x="63" y="196" on="0"/>
      </contour>
    </TTGlyph>
    <TTGlyph name="I" xMin="56" yMin="-3" xMax="187" yMax="666">
      <contour>
        <pt x="63" y="231" on="1"/>
        <pt x="63" y="431" on="1"/>
        <pt x="63" y="570" on="0"/>
        <pt x="56" y="661" on="1"/>
        <pt x="86" y="666" on="0"/>
        <pt x="109" y="666" on="1"/>
        <pt x="176" y="666" on="0"/>
        <pt x="176" y="628" on="1"/>
        <pt x="176" y="622" on="0"/>
        <pt x="172" y="553" on="0"/>
        <pt x="168" y="450" on="0"/>
        <pt x="168" y="404" on="1"/>
        <pt x="168" y="203" on="1"/>
        <pt x="168" y="70" on="0"/>
        <pt x="187" y="7" on="1"/>
        <pt x="159" y="-3" on="0"/>
        <pt x="125" y="-3" on="1"/>
        <pt x="88" y="-3" on="0"/>
        <pt x="61" y="23" on="0"/>
        <pt x="61" y="54" on="1"/>
        <pt x="61" y="70" on="0"/>
        <pt x="63" y="196" on="0"/>
      </contour>
    </TTGlyph>
    <TTGlyph name="Iacute" xMin="56" yMin="-3" xMax="273" yMax="921">
      <contour>
        <pt x="76" y="231" on="1"/>
        <pt x="76" y="431" on="1"/>
        <pt x="76" y="570" on="0"/>
        <pt x="69" y="661" on="1"/>
        <pt x="99" y="666" on="0"/>
        <pt x="122" y="666" on="1"/>
        <pt x="189" y="666" on="0"/>
        <pt x="189" y="628" on="1"/>
        <pt x="189" y="622" on="0"/>
        <pt x="185" y="553" on="0"/>
        <pt x="181" y="450" on="0"/>
        <pt x="181" y="404" on="1"/>
        <pt x="181" y="203" on="1"/>
        <pt x="181" y="70" on="0"/>
        <pt x="200" y="7" on="1"/>
        <pt x="172" y="-3" on="0"/>
        <pt x="138" y="-3" on="1"/>
        <pt x="101" y="-3" on="0"/>
        <pt x="74" y="23" on="0"/>
        <pt x="74" y="54" on="1"/>
        <pt x="74" y="70" on="0"/>
        <pt x="76" y="196" on="0"/>
      </contour>
      <contour>
        <pt x="246" y="819" on="1"/>
        <pt x="228" y="805" on="0"/>
        <pt x="113" y="741" on="0"/>
        <pt x="86" y="716" on="1"/>
        <pt x="56" y="743" on="0"/>
        <pt x="56" y="765" on="1"/>
        <pt x="56" y="778" on="0"/>
        <pt x="76" y="797" on="0"/>
        <pt x="110" y="817" on="0"/>
        <pt x="180" y="878" on="0"/>
        <pt x="219" y="921" on="1"/>
        <pt x="273" y="893" on="0"/>
        <pt x="273" y="862" on="1"/>
        <pt x="273" y="838" on="0"/>
      </contour>
    </TTGlyph>
    <TTGlyph name="Icircumflex" xMin="-20" yMin="-3" xMax="273" yMax="895">
      <contour>
        <pt x="78" y="231" on="1"/>
        <pt x="78" y="431" on="1"/>
        <pt x="78" y="570" on="0"/>
        <pt x="71" y="661" on="1"/>
        <pt x="101" y="666" on="0"/>
        <pt x="124" y="666" on="1"/>
        <pt x="191" y="666" on="0"/>
        <pt x="191" y="628" on="1"/>
        <pt x="191" y="622" on="0"/>
        <pt x="187" y="553" on="0"/>
        <pt x="183" y="450" on="0"/>
        <pt x="183" y="404" on="1"/>
        <pt x="183" y="203" on="1"/>
        <pt x="183" y="70" on="0"/>
        <pt x="202" y="7" on="1"/>
        <pt x="174" y="-3" on="0"/>
        <pt x="140" y="-3" on="1"/>
        <pt x="103" y="-3" on="0"/>
        <pt x="76" y="23" on="0"/>
        <pt x="76" y="54" on="1"/>
        <pt x="76" y="70" on="0"/>
        <pt x="78" y="196" on="0"/>
      </contour>
      <contour>
        <pt x="273" y="757" on="1"/>
        <pt x="273" y="736" on="0"/>
        <pt x="236" y="712" on="1"/>
        <pt x="219" y="733" on="0"/>
        <pt x="169" y="776" on="0"/>
        <pt x="152" y="788" on="1"/>
        <pt x="135" y="799" on="1"/>
        <pt x="48" y="724" on="0"/>
        <pt x="21" y="724" on="1"/>
        <pt x="0" y="724" on="0"/>
        <pt x="-20" y="750" on="1"/>
        <pt x="54" y="837" on="0"/>
        <pt x="136" y="895" on="1"/>
        <pt x="273" y="800" on="0"/>
      </contour>
    </TTGlyph>
    <TTGlyph name="Idieresis" xMin="-51" yMin="-3" xMax="284" yMax="854">
      <contour>
        <pt x="69" y="231" on="1"/>
        <pt x="69" y="431" on="1"/>
        <pt x="69" y="570" on="0"/>
        <pt x="62" y="661" on="1"/>
        <pt x="92" y="666" on="0"/>
        <pt x="115" y="666" on="1"/>
        <pt x="182" y="666" on="0"/>
        <pt x="182" y="628" on="1"/>
        <pt x="182" y="622" on="0"/>
        <pt x="178" y="553" on="0"/>
        <pt x="174" y="450" on="0"/>
        <pt x="174" y="404" on="1"/>
        <pt x="174" y="203" on="1"/>
        <pt x="174" y="70" on="0"/>
        <pt x="193" y="7" on="1"/>
        <pt x="165" y="-3" on="0"/>
        <pt x="131" y="-3" on="1"/>
        <pt x="94" y="-3" on="0"/>
        <pt x="67" y="23" on="0"/>
        <pt x="67" y="54" on="1"/>
        <pt x="67" y="70" on="0"/>
        <pt x="69" y="196" on="0"/>
      </contour>
      <contour>
        <pt x="21" y="712" on="1"/>
        <pt x="-9" y="712" on="0"/>
        <pt x="-51" y="752" on="0"/>
        <pt x="-51" y="783" on="1"/>
        <pt x="-51" y="813" on="0"/>
        <pt x="-7" y="854" on="0"/>
        <pt x="23" y="854" on="1"/>
        <pt x="52" y="854" on="0"/>
        <pt x="94" y="813" on="0"/>
        <pt x="94" y="753" on="0"/>
        <pt x="50" y="712" on="0"/>
      </contour>
      <contour>
        <pt x="211" y="712" on="1"/>
        <pt x="181" y="712" on="0"/>
        <pt x="139" y="752" on="0"/>
        <pt x="139" y="783" on="1"/>
        <pt x="139" y="813" on="0"/>
        <pt x="183" y="854" on="0"/>
        <pt x="213" y="854" on="1"/>
        <pt x="242" y="854" on="0"/>
        <pt x="284" y="813" on="0"/>
        <pt x="284" y="753" on="0"/>
        <pt x="240" y="712" on="0"/>
      </contour>
    </TTGlyph>
    <TTGlyph name="Igrave" xMin="-29" yMin="-3" xMax="191" yMax="915">
      <contour>
        <pt x="67" y="231" on="1"/>
        <pt x="67" y="431" on="1"/>
        <pt x="67" y="570" on="0"/>
        <pt x="60" y="661" on="1"/>
        <pt x="90" y="666" on="0"/>
        <pt x="113" y="666" on="1"/>
        <pt x="180" y="666" on="0"/>
        <pt x="180" y="628" on="1"/>
        <pt x="180" y="622" on="0"/>
        <pt x="176" y="553" on="0"/>
        <pt x="172" y="450" on="0"/>
        <pt x="172" y="404" on="1"/>
        <pt x="172" y="203" on="1"/>
        <pt x="172" y="70" on="0"/>
        <pt x="191" y="7" on="1"/>
        <pt x="163" y="-3" on="0"/>
        <pt x="129" y="-3" on="1"/>
        <pt x="92" y="-3" on="0"/>
        <pt x="65" y="23" on="0"/>
        <pt x="65" y="54" on="1"/>
        <pt x="65" y="70" on="0"/>
        <pt x="67" y="196" on="0"/>
      </contour>
      <contour>
        <pt x="23" y="915" on="1"/>
        <pt x="63" y="872" on="0"/>
        <pt x="151" y="806" on="0"/>
        <pt x="190" y="776" on="0"/>
        <pt x="190" y="760" on="1"/>
        <pt x="190" y="737" on="0"/>
        <pt x="158" y="716" on="1"/>
        <pt x="127" y="739" on="0"/>
        <pt x="24" y="794" on="0"/>
        <pt x="-29" y="833" on="0"/>
        <pt x="-29" y="854" on="1"/>
        <pt x="-29" y="889" on="0"/>
      </contour>
    </TTGlyph>
    <TTGlyph name="J" xMin="-32" yMin="-119" xMax="187" yMax="666">
      <contour>
        <pt x="12" y="-119" on="1"/>
        <pt x="-32" y="-119" on="0"/>
        <pt x="-32" y="-41" on="1"/>
        <pt x="-1" y="-34" on="0"/>
        <pt x="38" y="-15" on="0"/>
        <pt x="61" y="6" on="0"/>
        <pt x="72" y="47" on="0"/>
        <pt x="74" y="83" on="0"/>
        <pt x="74" y="118" on="1"/>
        <pt x="74" y="431" on="1"/>
        <pt x="74" y="570" on="0"/>
        <pt x="67" y="661" on="1"/>
        <pt x="97" y="666" on="0"/>
        <pt x="122" y="666" on="1"/>
        <pt x="187" y="666" on="0"/>
        <pt x="187" y="628" on="1"/>
        <pt x="187" y="623" on="0"/>
        <pt x="183" y="559" on="0"/>
        <pt x="179" y="464" on="0"/>
        <pt x="179" y="421" on="1"/>
        <pt x="179" y="111" on="1"/>
        <pt x="179" y="47" on="0"/>
        <pt x="143" y="-49" on="0"/>
        <pt x="87" y="-97" on="0"/>
        <pt x="35" y="-119" on="0"/>
      </contour>
    </TTGlyph>
    <TTGlyph name="J_alt" xMin="-111" yMin="-142" xMax="258" yMax="666">
      <contour>
        <pt x="194" y="666" on="1"/>
        <pt x="258" y="666" on="0"/>
        <pt x="258" y="628" on="1"/>
        <pt x="258" y="623" on="0"/>
        <pt x="254" y="559" on="0"/>
        <pt x="250" y="464" on="0"/>
        <pt x="250" y="421" on="1"/>
        <pt x="250" y="363" on="0"/>
        <pt x="251" y="190" on="0"/>
        <pt x="252" y="63" on="0"/>
        <pt x="252" y="60" on="1"/>
        <pt x="252" y="-37" on="0"/>
        <pt x="135" y="-142" on="0"/>
        <pt x="33" y="-142" on="1"/>
        <pt x="-111" y="-142" on="0"/>
        <pt x="-111" y="-76" on="1"/>
        <pt x="-111" y="-51" on="0"/>
        <pt x="-85" y="-20" on="1"/>
        <pt x="-25" y="-65" on="0"/>
        <pt x="38" y="-65" on="1"/>
        <pt x="84" y="-65" on="0"/>
        <pt x="145" y="-3" on="0"/>
        <pt x="145" y="65" on="1"/>
        <pt x="145" y="68" on="0"/>
        <pt x="146" y="288" on="0"/>
        <pt x="146" y="431" on="1"/>
        <pt x="146" y="566" on="0"/>
        <pt x="140" y="663" on="1"/>
        <pt x="162" y="666" on="0"/>
      </contour>
    </TTGlyph>
    <TTGlyph name="K" xMin="56" yMin="-10" xMax="525" yMax="666">
      <contour>
        <pt x="63" y="231" on="1"/>
        <pt x="63" y="431" on="1"/>
        <pt x="63" y="570" on="0"/>
        <pt x="56" y="661" on="1"/>
        <pt x="86" y="666" on="0"/>
        <pt x="109" y="666" on="1"/>
        <pt x="176" y="666" on="0"/>
        <pt x="176" y="628" on="1"/>
        <pt x="176" y="623" on="0"/>
        <pt x="172" y="562" on="0"/>
        <pt x="168" y="456" on="0"/>
        <pt x="168" y="397" on="1"/>
        <pt x="237" y="450" on="0"/>
        <pt x="389" y="608" on="0"/>
        <pt x="418" y="665" on="1"/>
        <pt x="447" y="656" on="0"/>
        <pt x="477" y="634" on="0"/>
        <pt x="477" y="613" on="1"/>
        <pt x="477" y="598" on="0"/>
        <pt x="446" y="551" on="0"/>
        <pt x="369" y="475" on="0"/>
        <pt x="314" y="424" on="0"/>
        <pt x="254" y="370" on="1"/>
        <pt x="267" y="347" on="0"/>
        <pt x="315" y="262" on="0"/>
        <pt x="340" y="218" on="0"/>
        <pt x="381" y="152" on="0"/>
        <pt x="408" y="119" on="0"/>
        <pt x="442" y="82" on="0"/>
        <pt x="473" y="67" on="0"/>
        <pt x="489" y="67" on="1"/>
        <pt x="504" y="67" on="0"/>
        <pt x="516" y="70" on="1"/>
        <pt x="525" y="52" on="0"/>
        <pt x="525" y="38" on="1"/>
        <pt x="525" y="15" on="0"/>
        <pt x="484" y="-10" on="0"/>
        <pt x="449" y="-10" on="1"/>
        <pt x="402" y="-10" on="0"/>
        <pt x="316" y="71" on="0"/>
        <pt x="258" y="165" on="0"/>
        <pt x="190" y="292" on="1"/>
        <pt x="188" y="296" on="0"/>
        <pt x="185" y="300" on="0"/>
        <pt x="182" y="307" on="0"/>
        <pt x="180" y="310" on="1"/>
        <pt x="168" y="301" on="1"/>
        <pt x="168" y="203" on="1"/>
        <pt x="168" y="70" on="0"/>
        <pt x="187" y="7" on="1"/>
        <pt x="159" y="-3" on="0"/>
        <pt x="125" y="-3" on="1"/>
        <pt x="88" y="-3" on="0"/>
        <pt x="61" y="23" on="0"/>
        <pt x="61" y="54" on="1"/>
        <pt x="61" y="70" on="0"/>
        <pt x="63" y="196" on="0"/>
      </contour>
    </TTGlyph>
    <TTGlyph name="L" xMin="56" yMin="-2" xMax="440" yMax="666">
      <contour>
        <pt x="63" y="224" on="1"/>
        <pt x="63" y="431" on="1"/>
        <pt x="63" y="572" on="0"/>
        <pt x="56" y="663" on="1"/>
        <pt x="79" y="666" on="0"/>
        <pt x="111" y="666" on="1"/>
        <pt x="176" y="666" on="0"/>
        <pt x="176" y="628" on="1"/>
        <pt x="176" y="622" on="0"/>
        <pt x="172" y="553" on="0"/>
        <pt x="168" y="450" on="0"/>
        <pt x="168" y="404" on="1"/>
        <pt x="168" y="318" on="1"/>
        <pt x="168" y="120" on="0"/>
        <pt x="175" y="78" on="1"/>
        <pt x="215" y="76" on="0"/>
        <pt x="239" y="76" on="1"/>
        <pt x="386" y="76" on="0"/>
        <pt x="429" y="99" on="1"/>
        <pt x="440" y="77" on="0"/>
        <pt x="440" y="50" on="1"/>
        <pt x="440" y="17" on="0"/>
        <pt x="389" y="-2" on="0"/>
        <pt x="330" y="-2" on="1"/>
        <pt x="243" y="-2" on="1"/>
        <pt x="154" y="-2" on="0"/>
        <pt x="110" y="0" on="1"/>
        <pt x="82" y="1" on="0"/>
        <pt x="61" y="27" on="0"/>
        <pt x="61" y="57" on="1"/>
        <pt x="61" y="73" on="0"/>
        <pt x="63" y="189" on="0"/>
      </contour>
    </TTGlyph>
    <TTGlyph name="Lslash" xMin="-38" yMin="-2" xMax="451" yMax="666">
      <contour>
        <pt x="5" y="186" on="1"/>
        <pt x="-38" y="204" on="0"/>
        <pt x="-38" y="232" on="1"/>
        <pt x="-38" y="249" on="0"/>
        <pt x="-23" y="261" on="1"/>
        <pt x="75" y="336" on="1"/>
        <pt x="75" y="431" on="1"/>
        <pt x="75" y="572" on="0"/>
        <pt x="68" y="663" on="1"/>
        <pt x="91" y="666" on="0"/>
        <pt x="123" y="666" on="1"/>
        <pt x="188" y="666" on="0"/>
        <pt x="188" y="628" on="1"/>
        <pt x="188" y="623" on="0"/>
        <pt x="184" y="558" on="0"/>
        <pt x="180" y="462" on="0"/>
        <pt x="180" y="418" on="1"/>
        <pt x="233" y="460" on="0"/>
        <pt x="284" y="506" on="1"/>
        <pt x="328" y="490" on="0"/>
        <pt x="328" y="461" on="1"/>
        <pt x="328" y="445" on="0"/>
        <pt x="313" y="431" on="1"/>
        <pt x="180" y="329" on="1"/>
        <pt x="180" y="120" on="0"/>
        <pt x="187" y="78" on="1"/>
        <pt x="227" y="76" on="0"/>
        <pt x="251" y="76" on="1"/>
        <pt x="401" y="76" on="0"/>
        <pt x="444" y="99" on="1"/>
        <pt x="451" y="74" on="0"/>
        <pt x="451" y="45" on="1"/>
        <pt x="451" y="22" on="0"/>
        <pt x="442" y="13" on="1"/>
        <pt x="424" y="-2" on="0"/>
        <pt x="280" y="-2" on="1"/>
        <pt x="152" y="-2" on="0"/>
        <pt x="122" y="0" on="1"/>
        <pt x="94" y="1" on="0"/>
        <pt x="73" y="27" on="0"/>
        <pt x="73" y="57" on="1"/>
        <pt x="73" y="71" on="0"/>
        <pt x="75" y="197" on="0"/>
        <pt x="75" y="246" on="1"/>
        <pt x="65" y="238" on="0"/>
        <pt x="40" y="218" on="0"/>
        <pt x="12" y="192" on="0"/>
      </contour>
    </TTGlyph>
    <TTGlyph name="M" xMin="56" yMin="-3" xMax="736" yMax="667">
      <contour>
        <pt x="717" y="436" on="1"/>
        <pt x="717" y="203" on="1"/>
        <pt x="717" y="68" on="0"/>
        <pt x="736" y="5" on="1"/>
        <pt x="722" y="-3" on="0"/>
        <pt x="682" y="-3" on="1"/>
        <pt x="641" y="-3" on="0"/>
        <pt x="613" y="23" on="0"/>
        <pt x="613" y="54" on="1"/>
        <pt x="613" y="504" on="1"/>
        <pt x="547" y="340" on="0"/>
        <pt x="445" y="2" on="1"/>
        <pt x="429" y="-2" on="0"/>
        <pt x="408" y="-2" on="1"/>
        <pt x="356" y="-2" on="0"/>
        <pt x="344" y="24" on="1"/>
        <pt x="314" y="90" on="0"/>
        <pt x="196" y="431" on="0"/>
        <pt x="166" y="506" on="1"/>
        <pt x="166" y="203" on="1"/>
        <pt x="166" y="68" on="0"/>
        <pt x="185" y="5" on="1"/>
        <pt x="158" y="-3" on="0"/>
        <pt x="133" y="-3" on="1"/>
        <pt x="98" y="-3" on="0"/>
        <pt x="73" y="23" on="0"/>
        <pt x="73" y="54" on="1"/>
        <pt x="73" y="70" on="0"/>
        <pt x="75" y="196" on="0"/>
        <pt x="75" y="231" on="1"/>
        <pt x="75" y="483" on="1"/>
        <pt x="75" y="595" on="0"/>
        <pt x="56" y="659" on="1"/>
        <pt x="96" y="667" on="0"/>
        <pt x="127" y="667" on="1"/>
        <pt x="184" y="667" on="0"/>
        <pt x="214" y="619" on="1"/>
        <pt x="252" y="558" on="0"/>
        <pt x="325" y="375" on="0"/>
        <pt x="364" y="249" on="0"/>
        <pt x="399" y="131" on="1"/>
        <pt x="483" y="447" on="0"/>
        <pt x="585" y="621" on="1"/>
        <pt x="611" y="667" on="0"/>
        <pt x="670" y="667" on="1"/>
        <pt x="709" y="667" on="0"/>
        <pt x="735" y="659" on="1"/>
        <pt x="717" y="599" on="0"/>
      </contour>
    </TTGlyph>
    <TTGlyph name="N" xMin="56" yMin="-3" xMax="562" yMax="667">
      <contour>
        <pt x="560" y="1" on="1"/>
        <pt x="540" y="-3" on="0"/>
        <pt x="516" y="-3" on="1"/>
        <pt x="466" y="-3" on="0"/>
        <pt x="449" y="24" on="1"/>
        <pt x="402" y="100" on="0"/>
        <pt x="209" y="438" on="0"/>
        <pt x="160" y="517" on="1"/>
        <pt x="165" y="256" on="1"/>
        <pt x="168" y="54" on="0"/>
        <pt x="185" y="5" on="1"/>
        <pt x="163" y="-3" on="0"/>
        <pt x="137" y="-3" on="1"/>
        <pt x="100" y="-3" on="0"/>
        <pt x="73" y="23" on="0"/>
        <pt x="73" y="54" on="1"/>
        <pt x="73" y="70" on="0"/>
        <pt x="75" y="196" on="0"/>
        <pt x="75" y="231" on="1"/>
        <pt x="75" y="431" on="1"/>
        <pt x="75" y="598" on="0"/>
        <pt x="56" y="659" on="1"/>
        <pt x="81" y="667" on="0"/>
        <pt x="117" y="667" on="1"/>
        <pt x="163" y="667" on="0"/>
        <pt x="189" y="638" on="1"/>
        <pt x="235" y="587" on="0"/>
        <pt x="419" y="284" on="0"/>
        <pt x="470" y="178" on="1"/>
        <pt x="462" y="292" on="0"/>
        <pt x="462" y="420" on="1"/>
        <pt x="462" y="569" on="0"/>
        <pt x="455" y="663" on="1"/>
        <pt x="478" y="666" on="0"/>
        <pt x="496" y="666" on="1"/>
        <pt x="562" y="666" on="0"/>
        <pt x="562" y="628" on="1"/>
        <pt x="562" y="622" on="0"/>
        <pt x="558" y="553" on="0"/>
        <pt x="553" y="450" on="0"/>
        <pt x="553" y="404" on="1"/>
        <pt x="553" y="233" on="1"/>
        <pt x="553" y="92" on="0"/>
      </contour>
    </TTGlyph>
    <TTGlyph name="Ntilde" xMin="56" yMin="-3" xMax="562" yMax="836">
      <contour>
        <pt x="560" y="1" on="1"/>
        <pt x="540" y="-3" on="0"/>
        <pt x="516" y="-3" on="1"/>
        <pt x="466" y="-3" on="0"/>
        <pt x="449" y="24" on="1"/>
        <pt x="402" y="101" on="0"/>
        <pt x="208" y="429" on="0"/>
        <pt x="160" y="507" on="1"/>
        <pt x="165" y="256" on="1"/>
        <pt x="168" y="54" on="0"/>
        <pt x="185" y="5" on="1"/>
        <pt x="163" y="-3" on="0"/>
        <pt x="137" y="-3" on="1"/>
        <pt x="100" y="-3" on="0"/>
        <pt x="73" y="23" on="0"/>
        <pt x="73" y="54" on="1"/>
        <pt x="73" y="70" on="0"/>
        <pt x="75" y="196" on="0"/>
        <pt x="75" y="231" on="1"/>
        <pt x="75" y="431" on="1"/>
        <pt x="75" y="598" on="0"/>
        <pt x="56" y="659" on="1"/>
        <pt x="81" y="667" on="0"/>
        <pt x="117" y="667" on="1"/>
        <pt x="163" y="667" on="0"/>
        <pt x="189" y="638" on="1"/>
        <pt x="236" y="586" on="0"/>
        <pt x="421" y="290" on="0"/>
        <pt x="470" y="188" on="1"/>
        <pt x="462" y="302" on="0"/>
        <pt x="462" y="420" on="1"/>
        <pt x="462" y="569" on="0"/>
        <pt x="455" y="663" on="1"/>
        <pt x="478" y="666" on="0"/>
        <pt x="496" y="666" on="1"/>
        <pt x="562" y="666" on="0"/>
        <pt x="562" y="628" on="1"/>
        <pt x="562" y="622" on="0"/>
        <pt x="558" y="553" on="0"/>
        <pt x="553" y="450" on="0"/>
        <pt x="553" y="404" on="1"/>
        <pt x="553" y="233" on="1"/>
        <pt x="553" y="92" on="0"/>
      </contour>
      <contour>
        <pt x="462" y="804" on="1"/>
        <pt x="462" y="774" on="0"/>
        <pt x="395" y="718" on="0"/>
        <pt x="355" y="718" on="1"/>
        <pt x="326" y="718" on="0"/>
        <pt x="250" y="762" on="0"/>
        <pt x="243" y="762" on="1"/>
        <pt x="229" y="762" on="0"/>
        <pt x="192" y="716" on="1"/>
        <pt x="158" y="731" on="0"/>
        <pt x="158" y="754" on="1"/>
        <pt x="158" y="783" on="0"/>
        <pt x="225" y="835" on="0"/>
        <pt x="266" y="835" on="1"/>
        <pt x="290" y="835" on="0"/>
        <pt x="365" y="791" on="0"/>
        <pt x="376" y="791" on="1"/>
        <pt x="395" y="791" on="0"/>
        <pt x="427" y="836" on="1"/>
        <pt x="462" y="826" on="0"/>
      </contour>
    </TTGlyph>
    <TTGlyph name="O" xMin="42" yMin="-10" xMax="675" yMax="673">
      <contour>
        <pt x="357" y="-10" on="1"/>
        <pt x="213" y="-10" on="0"/>
        <pt x="42" y="176" on="0"/>
        <pt x="42" y="331" on="1"/>
        <pt x="42" y="488" on="0"/>
        <pt x="213" y="673" on="0"/>
        <pt x="357" y="673" on="1"/>
        <pt x="503" y="673" on="0"/>
        <pt x="675" y="488" on="0"/>
        <pt x="675" y="331" on="1"/>
        <pt x="675" y="176" on="0"/>
        <pt x="502" y="-10" on="0"/>
      </contour>
      <contour>
        <pt x="561" y="314" on="1"/>
        <pt x="561" y="386" on="0"/>
        <pt x="524" y="507" on="0"/>
        <pt x="429" y="594" on="0"/>
        <pt x="359" y="594" on="1"/>
        <pt x="266" y="594" on="0"/>
        <pt x="156" y="463" on="0"/>
        <pt x="156" y="360" on="1"/>
        <pt x="156" y="285" on="0"/>
        <pt x="193" y="159" on="0"/>
        <pt x="288" y="69" on="0"/>
        <pt x="358" y="69" on="1"/>
        <pt x="455" y="69" on="0"/>
        <pt x="561" y="205" on="0"/>
      </contour>
    </TTGlyph>
    <TTGlyph name="OE" xMin="42" yMin="-10" xMax="863" yMax="673">
      <contour>
        <pt x="358" y="69" on="1"/>
        <pt x="419" y="69" on="0"/>
        <pt x="465" y="98" on="1"/>
        <pt x="465" y="118" on="0"/>
        <pt x="467" y="212" on="0"/>
        <pt x="467" y="236" on="1"/>
        <pt x="467" y="430" on="1"/>
        <pt x="467" y="506" on="0"/>
        <pt x="463" y="562" on="1"/>
        <pt x="420" y="594" on="0"/>
        <pt x="359" y="594" on="1"/>
        <pt x="266" y="594" on="0"/>
        <pt x="156" y="463" on="0"/>
        <pt x="156" y="360" on="1"/>
        <pt x="156" y="285" on="0"/>
        <pt x="193" y="159" on="0"/>
        <pt x="288" y="69" on="0"/>
      </contour>
      <contour>
        <pt x="568" y="583" on="1"/>
        <pt x="572" y="544" on="0"/>
        <pt x="572" y="396" on="1"/>
        <pt x="647" y="396" on="1"/>
        <pt x="727" y="396" on="0"/>
        <pt x="761" y="400" on="1"/>
        <pt x="765" y="391" on="0"/>
        <pt x="765" y="368" on="1"/>
        <pt x="765" y="340" on="0"/>
        <pt x="745" y="319" on="0"/>
        <pt x="723" y="318" on="1"/>
        <pt x="698" y="317" on="0"/>
        <pt x="656" y="317" on="1"/>
        <pt x="572" y="317" on="1"/>
        <pt x="572" y="118" on="0"/>
        <pt x="579" y="78" on="1"/>
        <pt x="621" y="76" on="0"/>
        <pt x="648" y="76" on="1"/>
        <pt x="808" y="76" on="0"/>
        <pt x="855" y="98" on="1"/>
        <pt x="863" y="75" on="0"/>
        <pt x="863" y="45" on="1"/>
        <pt x="863" y="22" on="0"/>
        <pt x="854" y="13" on="1"/>
        <pt x="835" y="-2" on="0"/>
        <pt x="683" y="-2" on="1"/>
        <pt x="547" y="-2" on="0"/>
        <pt x="517" y="0" on="1"/>
        <pt x="484" y="1" on="0"/>
        <pt x="474" y="16" on="1"/>
        <pt x="413" y="-10" on="0"/>
        <pt x="357" y="-10" on="1"/>
        <pt x="213" y="-10" on="0"/>
        <pt x="42" y="176" on="0"/>
        <pt x="42" y="331" on="1"/>
        <pt x="42" y="488" on="0"/>
        <pt x="213" y="673" on="0"/>
        <pt x="357" y="673" on="1"/>
        <pt x="405" y="673" on="0"/>
        <pt x="453" y="657" on="1"/>
        <pt x="565" y="666" on="0"/>
        <pt x="682" y="666" on="1"/>
        <pt x="834" y="666" on="0"/>
        <pt x="853" y="651" on="1"/>
        <pt x="862" y="642" on="0"/>
        <pt x="862" y="619" on="1"/>
        <pt x="862" y="589" on="0"/>
        <pt x="854" y="565" on="1"/>
        <pt x="798" y="586" on="0"/>
        <pt x="674" y="586" on="1"/>
        <pt x="624" y="586" on="0"/>
      </contour>
    </TTGlyph>
    <TTGlyph name="Oacute" xMin="42" yMin="-10" xMax="675" yMax="921">
      <contour>
        <pt x="490" y="819" on="1"/>
        <pt x="472" y="805" on="0"/>
        <pt x="357" y="741" on="0"/>
        <pt x="330" y="716" on="1"/>
        <pt x="300" y="743" on="0"/>
        <pt x="300" y="765" on="1"/>
        <pt x="300" y="778" on="0"/>
        <pt x="320" y="797" on="0"/>
        <pt x="354" y="817" on="0"/>
        <pt x="424" y="878" on="0"/>
        <pt x="463" y="921" on="1"/>
        <pt x="517" y="893" on="0"/>
        <pt x="517" y="862" on="1"/>
        <pt x="517" y="838" on="0"/>
      </contour>
      <contour>
        <pt x="357" y="-10" on="1"/>
        <pt x="213" y="-10" on="0"/>
        <pt x="42" y="176" on="0"/>
        <pt x="42" y="331" on="1"/>
        <pt x="42" y="488" on="0"/>
        <pt x="213" y="673" on="0"/>
        <pt x="357" y="673" on="1"/>
        <pt x="503" y="673" on="0"/>
        <pt x="675" y="488" on="0"/>
        <pt x="675" y="331" on="1"/>
        <pt x="675" y="176" on="0"/>
        <pt x="502" y="-10" on="0"/>
      </contour>
      <contour>
        <pt x="561" y="314" on="1"/>
        <pt x="561" y="386" on="0"/>
        <pt x="524" y="507" on="0"/>
        <pt x="429" y="594" on="0"/>
        <pt x="359" y="594" on="1"/>
        <pt x="266" y="594" on="0"/>
        <pt x="156" y="463" on="0"/>
        <pt x="156" y="360" on="1"/>
        <pt x="156" y="285" on="0"/>
        <pt x="193" y="159" on="0"/>
        <pt x="288" y="69" on="0"/>
        <pt x="358" y="69" on="1"/>
        <pt x="455" y="69" on="0"/>
        <pt x="561" y="205" on="0"/>
      </contour>
    </TTGlyph>
    <TTGlyph name="Ocircumflex" xMin="42" yMin="-10" xMax="675" yMax="895">
      <contour>
        <pt x="500" y="757" on="1"/>
        <pt x="500" y="736" on="0"/>
        <pt x="463" y="712" on="1"/>
        <pt x="446" y="733" on="0"/>
        <pt x="396" y="776" on="0"/>
        <pt x="379" y="788" on="1"/>
        <pt x="362" y="799" on="1"/>
        <pt x="275" y="724" on="0"/>
        <pt x="248" y="724" on="1"/>
        <pt x="226" y="724" on="0"/>
        <pt x="207" y="750" on="1"/>
        <pt x="281" y="837" on="0"/>
        <pt x="363" y="895" on="1"/>
        <pt x="500" y="800" on="0"/>
      </contour>
      <contour>
        <pt x="357" y="-10" on="1"/>
        <pt x="213" y="-10" on="0"/>
        <pt x="42" y="176" on="0"/>
        <pt x="42" y="331" on="1"/>
        <pt x="42" y="488" on="0"/>
        <pt x="213" y="673" on="0"/>
        <pt x="357" y="673" on="1"/>
        <pt x="503" y="673" on="0"/>
        <pt x="675" y="488" on="0"/>
        <pt x="675" y="331" on="1"/>
        <pt x="675" y="176" on="0"/>
        <pt x="502" y="-10" on="0"/>
      </contour>
      <contour>
        <pt x="561" y="314" on="1"/>
        <pt x="561" y="386" on="0"/>
        <pt x="524" y="507" on="0"/>
        <pt x="429" y="594" on="0"/>
        <pt x="359" y="594" on="1"/>
        <pt x="266" y="594" on="0"/>
        <pt x="156" y="463" on="0"/>
        <pt x="156" y="360" on="1"/>
        <pt x="156" y="285" on="0"/>
        <pt x="193" y="159" on="0"/>
        <pt x="288" y="69" on="0"/>
        <pt x="358" y="69" on="1"/>
        <pt x="455" y="69" on="0"/>
        <pt x="561" y="205" on="0"/>
      </contour>
    </TTGlyph>
    <TTGlyph name="Odieresis" xMin="42" yMin="-10" xMax="675" yMax="854">
      <contour>
        <pt x="357" y="-10" on="1"/>
        <pt x="213" y="-10" on="0"/>
        <pt x="42" y="176" on="0"/>
        <pt x="42" y="331" on="1"/>
        <pt x="42" y="488" on="0"/>
        <pt x="213" y="673" on="0"/>
        <pt x="357" y="673" on="1"/>
        <pt x="503" y="673" on="0"/>
        <pt x="675" y="488" on="0"/>
        <pt x="675" y="331" on="1"/>
        <pt x="675" y="176" on="0"/>
        <pt x="502" y="-10" on="0"/>
      </contour>
      <contour>
        <pt x="561" y="314" on="1"/>
        <pt x="561" y="386" on="0"/>
        <pt x="524" y="507" on="0"/>
        <pt x="429" y="594" on="0"/>
        <pt x="359" y="594" on="1"/>
        <pt x="266" y="594" on="0"/>
        <pt x="156" y="463" on="0"/>
        <pt x="156" y="360" on="1"/>
        <pt x="156" y="285" on="0"/>
        <pt x="193" y="159" on="0"/>
        <pt x="288" y="69" on="0"/>
        <pt x="358" y="69" on="1"/>
        <pt x="455" y="69" on="0"/>
        <pt x="561" y="205" on="0"/>
      </contour>
      <contour>
        <pt x="452" y="712" on="1"/>
        <pt x="422" y="712" on="0"/>
        <pt x="380" y="752" on="0"/>
        <pt x="380" y="783" on="1"/>
        <pt x="380" y="813" on="0"/>
        <pt x="424" y="854" on="0"/>
        <pt x="454" y="854" on="1"/>
        <pt x="483" y="854" on="0"/>
        <pt x="525" y="813" on="0"/>
        <pt x="525" y="753" on="0"/>
        <pt x="481" y="712" on="0"/>
      </contour>
      <contour>
        <pt x="262" y="712" on="1"/>
        <pt x="232" y="712" on="0"/>
        <pt x="190" y="752" on="0"/>
        <pt x="190" y="783" on="1"/>
        <pt x="190" y="813" on="0"/>
        <pt x="234" y="854" on="0"/>
        <pt x="264" y="854" on="1"/>
        <pt x="293" y="854" on="0"/>
        <pt x="335" y="813" on="0"/>
        <pt x="335" y="753" on="0"/>
        <pt x="291" y="712" on="0"/>
      </contour>
    </TTGlyph>
    <TTGlyph name="Ograve" xMin="42" yMin="-10" xMax="675" yMax="915">
      <contour>
        <pt x="251" y="915" on="1"/>
        <pt x="291" y="872" on="0"/>
        <pt x="379" y="806" on="0"/>
        <pt x="418" y="776" on="0"/>
        <pt x="418" y="760" on="1"/>
        <pt x="418" y="737" on="0"/>
        <pt x="386" y="716" on="1"/>
        <pt x="355" y="739" on="0"/>
        <pt x="252" y="794" on="0"/>
        <pt x="199" y="833" on="0"/>
        <pt x="199" y="854" on="1"/>
        <pt x="199" y="889" on="0"/>
      </contour>
      <contour>
        <pt x="357" y="-10" on="1"/>
        <pt x="213" y="-10" on="0"/>
        <pt x="42" y="176" on="0"/>
        <pt x="42" y="331" on="1"/>
        <pt x="42" y="488" on="0"/>
        <pt x="213" y="673" on="0"/>
        <pt x="357" y="673" on="1"/>
        <pt x="503" y="673" on="0"/>
        <pt x="675" y="488" on="0"/>
        <pt x="675" y="331" on="1"/>
        <pt x="675" y="176" on="0"/>
        <pt x="502" y="-10" on="0"/>
      </contour>
      <contour>
        <pt x="561" y="314" on="1"/>
        <pt x="561" y="386" on="0"/>
        <pt x="524" y="507" on="0"/>
        <pt x="429" y="594" on="0"/>
        <pt x="359" y="594" on="1"/>
        <pt x="266" y="594" on="0"/>
        <pt x="156" y="463" on="0"/>
        <pt x="156" y="360" on="1"/>
        <pt x="156" y="285" on="0"/>
        <pt x="193" y="159" on="0"/>
        <pt x="288" y="69" on="0"/>
        <pt x="358" y="69" on="1"/>
        <pt x="455" y="69" on="0"/>
        <pt x="561" y="205" on="0"/>
      </contour>
    </TTGlyph>
    <TTGlyph name="Omega" xMin="38" yMin="0" xMax="801" yMax="678">
      <contour>
        <pt x="287" y="678" on="0"/>
        <pt x="553" y="678" on="0"/>
        <pt x="735" y="507" on="0"/>
        <pt x="735" y="371" on="1"/>
        <pt x="735" y="271" on="0"/>
        <pt x="635" y="121" on="0"/>
        <pt x="551" y="74" on="1"/>
        <pt x="703" y="74" on="1"/>
        <pt x="725" y="105" on="0"/>
        <pt x="756" y="171" on="1"/>
        <pt x="766" y="175" on="0"/>
        <pt x="773" y="175" on="1"/>
        <pt x="801" y="175" on="0"/>
        <pt x="801" y="152" on="1"/>
        <pt x="801" y="135" on="0"/>
        <pt x="774" y="0" on="1"/>
        <pt x="542" y="0" on="1"/>
        <pt x="469" y="0" on="0"/>
        <pt x="469" y="66" on="1"/>
        <pt x="469" y="78" on="0"/>
        <pt x="471" y="100" on="1"/>
        <pt x="621" y="189" on="0"/>
        <pt x="621" y="361" on="1"/>
        <pt x="620" y="470" on="0"/>
        <pt x="515" y="607" on="0"/>
        <pt x="325" y="607" on="0"/>
        <pt x="219" y="470" on="0"/>
        <pt x="218" y="361" on="1"/>
        <pt x="218" y="189" on="0"/>
        <pt x="368" y="100" on="1"/>
        <pt x="371" y="85" on="0"/>
        <pt x="371" y="66" on="1"/>
        <pt x="371" y="0" on="0"/>
        <pt x="297" y="0" on="1"/>
        <pt x="66" y="0" on="1"/>
        <pt x="38" y="124" on="0"/>
        <pt x="38" y="152" on="1"/>
        <pt x="38" y="175" on="0"/>
        <pt x="67" y="175" on="1"/>
        <pt x="73" y="175" on="0"/>
        <pt x="83" y="171" on="1"/>
        <pt x="120" y="96" on="0"/>
        <pt x="136" y="74" on="1"/>
        <pt x="289" y="74" on="1"/>
        <pt x="104" y="177" on="0"/>
        <pt x="104" y="371" on="1"/>
        <pt x="104" y="506" on="0"/>
      </contour>
    </TTGlyph>
    <TTGlyph name="Oslash" xMin="42" yMin="-84" xMax="675" yMax="744">
      <contour>
        <pt x="221" y="16" on="1"/>
        <pt x="197" y="-27" on="1"/>
        <pt x="175" y="-67" on="0"/>
        <pt x="169" y="-84" on="1"/>
        <pt x="123" y="-79" on="0"/>
        <pt x="123" y="-53" on="1"/>
        <pt x="123" y="-43" on="0"/>
        <pt x="148" y="2" on="1"/>
        <pt x="171" y="44" on="1"/>
        <pt x="42" y="135" on="0"/>
        <pt x="42" y="331" on="1"/>
        <pt x="42" y="488" on="0"/>
        <pt x="213" y="673" on="0"/>
        <pt x="357" y="673" on="1"/>
        <pt x="435" y="673" on="0"/>
        <pt x="501" y="643" on="1"/>
        <pt x="525" y="687" on="1"/>
        <pt x="535" y="705" on="0"/>
        <pt x="553" y="744" on="1"/>
        <pt x="599" y="739" on="0"/>
        <pt x="599" y="713" on="1"/>
        <pt x="599" y="702" on="0"/>
        <pt x="577" y="663" on="1"/>
        <pt x="550" y="614" on="1"/>
        <pt x="675" y="522" on="0"/>
        <pt x="675" y="331" on="1"/>
        <pt x="675" y="176" on="0"/>
        <pt x="502" y="-10" on="0"/>
        <pt x="357" y="-10" on="1"/>
        <pt x="282" y="-10" on="0"/>
      </contour>
      <contour>
        <pt x="156" y="360" on="1"/>
        <pt x="156" y="213" on="0"/>
        <pt x="220" y="134" on="1"/>
        <pt x="458" y="565" on="1"/>
        <pt x="414" y="594" on="0"/>
        <pt x="359" y="594" on="1"/>
        <pt x="266" y="594" on="0"/>
        <pt x="156" y="463" on="0"/>
      </contour>
      <contour>
        <pt x="561" y="314" on="1"/>
        <pt x="561" y="446" on="0"/>
        <pt x="501" y="525" on="1"/>
        <pt x="264" y="95" on="1"/>
        <pt x="304" y="69" on="0"/>
        <pt x="358" y="69" on="1"/>
        <pt x="455" y="69" on="0"/>
        <pt x="561" y="205" on="0"/>
      </contour>
    </TTGlyph>
    <TTGlyph name="Otilde" xMin="42" yMin="-10" xMax="675" yMax="836">
      <contour>
        <pt x="357" y="-10" on="1"/>
        <pt x="213" y="-10" on="0"/>
        <pt x="42" y="176" on="0"/>
        <pt x="42" y="331" on="1"/>
        <pt x="42" y="488" on="0"/>
        <pt x="213" y="673" on="0"/>
        <pt x="357" y="673" on="1"/>
        <pt x="503" y="673" on="0"/>
        <pt x="675" y="488" on="0"/>
        <pt x="675" y="331" on="1"/>
        <pt x="675" y="176" on="0"/>
        <pt x="502" y="-10" on="0"/>
      </contour>
      <contour>
        <pt x="561" y="314" on="1"/>
        <pt x="561" y="386" on="0"/>
        <pt x="524" y="507" on="0"/>
        <pt x="429" y="594" on="0"/>
        <pt x="359" y="594" on="1"/>
        <pt x="266" y="594" on="0"/>
        <pt x="156" y="463" on="0"/>
        <pt x="156" y="360" on="1"/>
        <pt x="156" y="285" on="0"/>
        <pt x="193" y="159" on="0"/>
        <pt x="288" y="69" on="0"/>
        <pt x="358" y="69" on="1"/>
        <pt x="455" y="69" on="0"/>
        <pt x="561" y="205" on="0"/>
      </contour>
      <contour>
        <pt x="510" y="804" on="1"/>
        <pt x="510" y="774" on="0"/>
        <pt x="443" y="718" on="0"/>
        <pt x="403" y="718" on="1"/>
        <pt x="374" y="718" on="0"/>
        <pt x="298" y="762" on="0"/>
        <pt x="291" y="762" on="1"/>
        <pt x="277" y="762" on="0"/>
        <pt x="240" y="716" on="1"/>
        <pt x="206" y="731" on="0"/>
        <pt x="206" y="754" on="1"/>
        <pt x="206" y="783" on="0"/>
        <pt x="273" y="835" on="0"/>
        <pt x="314" y="835" on="1"/>
        <pt x="338" y="835" on="0"/>
        <pt x="413" y="791" on="0"/>
        <pt x="424" y="791" on="1"/>
        <pt x="443" y="791" on="0"/>
        <pt x="475" y="836" on="1"/>
        <pt x="510" y="826" on="0"/>
      </contour>
    </TTGlyph>
    <TTGlyph name="P" xMin="56" yMin="-3" xMax="493" yMax="673">
      <contour>
        <pt x="258" y="312" on="1"/>
        <pt x="315" y="312" on="0"/>
        <pt x="379" y="385" on="0"/>
        <pt x="379" y="447" on="1"/>
        <pt x="379" y="532" on="0"/>
        <pt x="307" y="596" on="0"/>
        <pt x="231" y="596" on="1"/>
        <pt x="210" y="596" on="0"/>
        <pt x="170" y="592" on="1"/>
        <pt x="174" y="538" on="0"/>
        <pt x="174" y="406" on="1"/>
        <pt x="174" y="329" on="1"/>
        <pt x="207" y="312" on="0"/>
      </contour>
      <contour>
        <pt x="69" y="231" on="1"/>
        <pt x="69" y="431" on="1"/>
        <pt x="69" y="569" on="0"/>
        <pt x="56" y="661" on="1"/>
        <pt x="133" y="673" on="0"/>
        <pt x="212" y="673" on="1"/>
        <pt x="493" y="673" on="0"/>
        <pt x="493" y="452" on="1"/>
        <pt x="493" y="345" on="0"/>
        <pt x="372" y="233" on="0"/>
        <pt x="290" y="233" on="1"/>
        <pt x="223" y="233" on="0"/>
        <pt x="174" y="265" on="1"/>
        <pt x="174" y="196" on="1"/>
        <pt x="174" y="66" on="0"/>
        <pt x="193" y="5" on="1"/>
        <pt x="169" y="-3" on="0"/>
        <pt x="132" y="-3" on="1"/>
        <pt x="93" y="-3" on="0"/>
        <pt x="67" y="23" on="0"/>
        <pt x="67" y="54" on="1"/>
        <pt x="67" y="70" on="0"/>
        <pt x="69" y="196" on="0"/>
      </contour>
    </TTGlyph>
    <TTGlyph name="Q" xMin="42" yMin="-184" xMax="671" yMax="673">
      <contour>
        <pt x="559" y="314" on="1"/>
        <pt x="559" y="386" on="0"/>
        <pt x="522" y="507" on="0"/>
        <pt x="427" y="594" on="0"/>
        <pt x="357" y="594" on="1"/>
        <pt x="264" y="594" on="0"/>
        <pt x="154" y="463" on="0"/>
        <pt x="154" y="360" on="1"/>
        <pt x="154" y="285" on="0"/>
        <pt x="191" y="159" on="0"/>
        <pt x="286" y="69" on="0"/>
        <pt x="356" y="69" on="1"/>
        <pt x="453" y="69" on="0"/>
        <pt x="559" y="205" on="0"/>
      </contour>
      <contour>
        <pt x="311" y="-9" on="1"/>
        <pt x="186" y="5" on="0"/>
        <pt x="42" y="185" on="0"/>
        <pt x="42" y="331" on="1"/>
        <pt x="42" y="489" on="0"/>
        <pt x="210" y="673" on="0"/>
        <pt x="502" y="673" on="0"/>
        <pt x="671" y="489" on="0"/>
        <pt x="671" y="331" on="1"/>
        <pt x="671" y="185" on="0"/>
        <pt x="522" y="3" on="0"/>
        <pt x="395" y="-8" on="1"/>
        <pt x="406" y="-48" on="0"/>
        <pt x="467" y="-96" on="0"/>
        <pt x="505" y="-96" on="1"/>
        <pt x="535" y="-96" on="0"/>
        <pt x="594" y="-62" on="0"/>
        <pt x="613" y="-40" on="1"/>
        <pt x="650" y="-70" on="0"/>
        <pt x="650" y="-111" on="1"/>
        <pt x="650" y="-147" on="0"/>
        <pt x="576" y="-184" on="0"/>
        <pt x="515" y="-184" on="1"/>
        <pt x="482" y="-184" on="0"/>
        <pt x="421" y="-166" on="0"/>
        <pt x="363" y="-128" on="0"/>
        <pt x="320" y="-57" on="0"/>
      </contour>
    </TTGlyph>
    <TTGlyph name="R" xMin="56" yMin="-10" xMax="535" yMax="673">
      <contour>
        <pt x="450" y="95" on="1"/>
        <pt x="473" y="67" on="0"/>
        <pt x="503" y="67" on="1"/>
        <pt x="514" y="67" on="0"/>
        <pt x="526" y="70" on="1"/>
        <pt x="535" y="49" on="0"/>
        <pt x="535" y="35" on="1"/>
        <pt x="535" y="12" on="0"/>
        <pt x="486" y="-10" on="0"/>
        <pt x="451" y="-10" on="1"/>
        <pt x="393" y="-10" on="0"/>
        <pt x="348" y="47" on="1"/>
        <pt x="317" y="86" on="0"/>
        <pt x="249" y="223" on="0"/>
        <pt x="230" y="274" on="1"/>
        <pt x="207" y="283" on="0"/>
        <pt x="207" y="306" on="1"/>
        <pt x="207" y="325" on="0"/>
        <pt x="215" y="345" on="1"/>
        <pt x="231" y="341" on="0"/>
        <pt x="252" y="341" on="1"/>
        <pt x="306" y="341" on="0"/>
        <pt x="379" y="406" on="0"/>
        <pt x="379" y="470" on="1"/>
        <pt x="379" y="541" on="0"/>
        <pt x="309" y="596" on="0"/>
        <pt x="235" y="596" on="1"/>
        <pt x="208" y="596" on="0"/>
        <pt x="170" y="592" on="1"/>
        <pt x="174" y="536" on="0"/>
        <pt x="174" y="393" on="1"/>
        <pt x="174" y="198" on="1"/>
        <pt x="174" y="66" on="0"/>
        <pt x="193" y="5" on="1"/>
        <pt x="171" y="-3" on="0"/>
        <pt x="131" y="-3" on="1"/>
        <pt x="94" y="-3" on="0"/>
        <pt x="67" y="23" on="0"/>
        <pt x="67" y="54" on="1"/>
        <pt x="67" y="70" on="0"/>
        <pt x="69" y="196" on="0"/>
        <pt x="69" y="231" on="1"/>
        <pt x="69" y="431" on="1"/>
        <pt x="69" y="569" on="0"/>
        <pt x="56" y="661" on="1"/>
        <pt x="133" y="673" on="0"/>
        <pt x="213" y="673" on="1"/>
        <pt x="494" y="673" on="0"/>
        <pt x="494" y="470" on="1"/>
        <pt x="494" y="393" on="0"/>
        <pt x="411" y="292" on="0"/>
        <pt x="343" y="274" on="1"/>
        <pt x="408" y="135" on="0"/>
      </contour>
    </TTGlyph>
    <TTGlyph name="S" xMin="38" yMin="-10" xMax="491" yMax="673">
      <contour>
        <pt x="408" y="508" on="1"/>
        <pt x="393" y="546" on="0"/>
        <pt x="311" y="596" on="0"/>
        <pt x="267" y="596" on="1"/>
        <pt x="216" y="596" on="0"/>
        <pt x="147" y="546" on="0"/>
        <pt x="147" y="497" on="1"/>
        <pt x="147" y="467" on="0"/>
        <pt x="185" y="426" on="0"/>
        <pt x="246" y="403" on="0"/>
        <pt x="319" y="383" on="0"/>
        <pt x="392" y="357" on="0"/>
        <pt x="453" y="321" on="0"/>
        <pt x="491" y="253" on="0"/>
        <pt x="491" y="206" on="1"/>
        <pt x="491" y="147" on="0"/>
        <pt x="451" y="60" on="0"/>
        <pt x="380" y="12" on="0"/>
        <pt x="298" y="-10" on="0"/>
        <pt x="250" y="-10" on="1"/>
        <pt x="167" y="-10" on="0"/>
        <pt x="38" y="50" on="0"/>
        <pt x="38" y="132" on="0"/>
        <pt x="96" y="159" on="1"/>
        <pt x="116" y="121" on="0"/>
        <pt x="214" y="69" on="0"/>
        <pt x="264" y="69" on="1"/>
        <pt x="322" y="69" on="0"/>
        <pt x="399" y="122" on="0"/>
        <pt x="399" y="176" on="1"/>
        <pt x="399" y="208" on="0"/>
        <pt x="348" y="252" on="0"/>
        <pt x="272" y="274" on="0"/>
        <pt x="182" y="307" on="0"/>
        <pt x="106" y="346" on="0"/>
        <pt x="55" y="428" on="0"/>
        <pt x="55" y="486" on="1"/>
        <pt x="55" y="575" on="0"/>
        <pt x="189" y="673" on="0"/>
        <pt x="288" y="673" on="1"/>
        <pt x="330" y="673" on="0"/>
        <pt x="414" y="652" on="0"/>
        <pt x="476" y="605" on="0"/>
        <pt x="476" y="574" on="1"/>
        <pt x="476" y="522" on="0"/>
      </contour>
    </TTGlyph>
    <TTGlyph name="Scaron" xMin="38" yMin="-10" xMax="491" yMax="895">
      <contour>
        <pt x="136" y="850" on="1"/>
        <pt x="136" y="871" on="0"/>
        <pt x="173" y="895" on="1"/>
        <pt x="190" y="874" on="0"/>
        <pt x="240" y="831" on="0"/>
        <pt x="257" y="820" on="1"/>
        <pt x="274" y="808" on="1"/>
        <pt x="361" y="883" on="0"/>
        <pt x="388" y="883" on="1"/>
        <pt x="410" y="883" on="0"/>
        <pt x="429" y="857" on="1"/>
        <pt x="355" y="770" on="0"/>
        <pt x="273" y="712" on="1"/>
        <pt x="136" y="807" on="0"/>
      </contour>
      <contour>
        <pt x="408" y="508" on="1"/>
        <pt x="393" y="546" on="0"/>
        <pt x="311" y="596" on="0"/>
        <pt x="267" y="596" on="1"/>
        <pt x="216" y="596" on="0"/>
        <pt x="147" y="546" on="0"/>
        <pt x="147" y="497" on="1"/>
        <pt x="147" y="467" on="0"/>
        <pt x="185" y="426" on="0"/>
        <pt x="246" y="403" on="0"/>
        <pt x="319" y="383" on="0"/>
        <pt x="392" y="357" on="0"/>
        <pt x="453" y="321" on="0"/>
        <pt x="491" y="253" on="0"/>
        <pt x="491" y="206" on="1"/>
        <pt x="491" y="147" on="0"/>
        <pt x="451" y="60" on="0"/>
        <pt x="380" y="12" on="0"/>
        <pt x="298" y="-10" on="0"/>
        <pt x="250" y="-10" on="1"/>
        <pt x="167" y="-10" on="0"/>
        <pt x="38" y="50" on="0"/>
        <pt x="38" y="132" on="0"/>
        <pt x="96" y="159" on="1"/>
        <pt x="116" y="121" on="0"/>
        <pt x="214" y="69" on="0"/>
        <pt x="264" y="69" on="1"/>
        <pt x="322" y="69" on="0"/>
        <pt x="399" y="122" on="0"/>
        <pt x="399" y="176" on="1"/>
        <pt x="399" y="208" on="0"/>
        <pt x="348" y="252" on="0"/>
        <pt x="272" y="274" on="0"/>
        <pt x="182" y="307" on="0"/>
        <pt x="106" y="346" on="0"/>
        <pt x="55" y="428" on="0"/>
        <pt x="55" y="486" on="1"/>
        <pt x="55" y="575" on="0"/>
        <pt x="189" y="673" on="0"/>
        <pt x="288" y="673" on="1"/>
        <pt x="330" y="673" on="0"/>
        <pt x="414" y="652" on="0"/>
        <pt x="476" y="605" on="0"/>
        <pt x="476" y="574" on="1"/>
        <pt x="476" y="522" on="0"/>
      </contour>
    </TTGlyph>
    <TTGlyph name="T" xMin="0" yMin="-3" xMax="485" yMax="664">
      <contour>
        <pt x="192" y="231" on="1"/>
        <pt x="192" y="431" on="1"/>
        <pt x="192" y="487" on="0"/>
        <pt x="190" y="581" on="1"/>
        <pt x="48" y="581" on="0"/>
        <pt x="3" y="577" on="1"/>
        <pt x="0" y="589" on="0"/>
        <pt x="0" y="613" on="1"/>
        <pt x="0" y="640" on="0"/>
        <pt x="21" y="659" on="0"/>
        <pt x="44" y="660" on="1"/>
        <pt x="69" y="661" on="0"/>
        <pt x="161" y="661" on="1"/>
        <pt x="279" y="661" on="1"/>
        <pt x="447" y="661" on="0"/>
        <pt x="482" y="664" on="1"/>
        <pt x="485" y="652" on="0"/>
        <pt x="485" y="629" on="1"/>
        <pt x="485" y="602" on="0"/>
        <pt x="464" y="583" on="0"/>
        <pt x="441" y="582" on="1"/>
        <pt x="413" y="581" on="0"/>
        <pt x="302" y="581" on="1"/>
        <pt x="297" y="473" on="0"/>
        <pt x="297" y="404" on="1"/>
        <pt x="297" y="203" on="1"/>
        <pt x="297" y="70" on="0"/>
        <pt x="316" y="7" on="1"/>
        <pt x="288" y="-3" on="0"/>
        <pt x="254" y="-3" on="1"/>
        <pt x="217" y="-3" on="0"/>
        <pt x="190" y="23" on="0"/>
        <pt x="190" y="54" on="1"/>
        <pt x="190" y="70" on="0"/>
        <pt x="192" y="196" on="0"/>
      </contour>
    </TTGlyph>
    <TTGlyph name="Thorn" xMin="56" yMin="-3" xMax="487" yMax="666">
      <contour>
        <pt x="63" y="231" on="1"/>
        <pt x="63" y="431" on="1"/>
        <pt x="63" y="570" on="0"/>
        <pt x="56" y="661" on="1"/>
        <pt x="86" y="666" on="0"/>
        <pt x="109" y="666" on="1"/>
        <pt x="176" y="666" on="0"/>
        <pt x="176" y="628" on="1"/>
        <pt x="172" y="562" on="1"/>
        <pt x="183" y="563" on="0"/>
        <pt x="206" y="563" on="1"/>
        <pt x="487" y="563" on="0"/>
        <pt x="487" y="342" on="1"/>
        <pt x="487" y="235" on="0"/>
        <pt x="366" y="123" on="0"/>
        <pt x="284" y="123" on="1"/>
        <pt x="217" y="123" on="0"/>
        <pt x="168" y="155" on="1"/>
        <pt x="170" y="61" on="0"/>
        <pt x="187" y="7" on="1"/>
        <pt x="159" y="-3" on="0"/>
        <pt x="125" y="-3" on="1"/>
        <pt x="88" y="-3" on="0"/>
        <pt x="61" y="23" on="0"/>
        <pt x="61" y="54" on="1"/>
        <pt x="61" y="70" on="0"/>
        <pt x="63" y="196" on="0"/>
      </contour>
      <contour>
        <pt x="252" y="202" on="1"/>
        <pt x="309" y="202" on="0"/>
        <pt x="373" y="275" on="0"/>
        <pt x="373" y="337" on="1"/>
        <pt x="373" y="422" on="0"/>
        <pt x="301" y="486" on="0"/>
        <pt x="225" y="486" on="1"/>
        <pt x="207" y="486" on="0"/>
        <pt x="169" y="482" on="1"/>
        <pt x="168" y="457" on="0"/>
        <pt x="168" y="219" on="1"/>
        <pt x="201" y="202" on="0"/>
      </contour>
    </TTGlyph>
    <TTGlyph name="U" xMin="61" yMin="-10" xMax="587" yMax="666">
      <contour>
        <pt x="61" y="658" on="1"/>
        <pt x="87" y="666" on="0"/>
        <pt x="120" y="666" on="1"/>
        <pt x="158" y="666" on="0"/>
        <pt x="193" y="643" on="0"/>
        <pt x="193" y="615" on="1"/>
        <pt x="193" y="574" on="0"/>
        <pt x="178" y="289" on="0"/>
        <pt x="178" y="210" on="1"/>
        <pt x="178" y="142" on="0"/>
        <pt x="248" y="77" on="0"/>
        <pt x="295" y="77" on="1"/>
        <pt x="338" y="77" on="0"/>
        <pt x="433" y="121" on="0"/>
        <pt x="462" y="152" on="1"/>
        <pt x="462" y="159" on="0"/>
        <pt x="462" y="208" on="0"/>
        <pt x="463" y="333" on="0"/>
        <pt x="463" y="431" on="1"/>
        <pt x="463" y="571" on="0"/>
        <pt x="456" y="662" on="1"/>
        <pt x="487" y="666" on="0"/>
        <pt x="511" y="666" on="1"/>
        <pt x="576" y="666" on="0"/>
        <pt x="576" y="628" on="1"/>
        <pt x="576" y="626" on="0"/>
        <pt x="572" y="556" on="0"/>
        <pt x="568" y="407" on="0"/>
        <pt x="568" y="309" on="1"/>
        <pt x="568" y="154" on="0"/>
        <pt x="574" y="49" on="0"/>
        <pt x="587" y="5" on="1"/>
        <pt x="565" y="-3" on="0"/>
        <pt x="525" y="-3" on="1"/>
        <pt x="489" y="-3" on="0"/>
        <pt x="461" y="22" on="0"/>
        <pt x="461" y="56" on="1"/>
        <pt x="461" y="75" on="1"/>
        <pt x="422" y="37" on="0"/>
        <pt x="313" y="-10" on="0"/>
        <pt x="267" y="-10" on="1"/>
        <pt x="176" y="-10" on="0"/>
        <pt x="69" y="79" on="0"/>
        <pt x="69" y="192" on="1"/>
        <pt x="69" y="251" on="0"/>
        <pt x="78" y="453" on="0"/>
        <pt x="78" y="501" on="1"/>
        <pt x="78" y="596" on="0"/>
      </contour>
    </TTGlyph>
    <TTGlyph name="Uacute" xMin="61" yMin="-10" xMax="587" yMax="921">
      <contour>
        <pt x="463" y="819" on="1"/>
        <pt x="445" y="805" on="0"/>
        <pt x="330" y="741" on="0"/>
        <pt x="303" y="716" on="1"/>
        <pt x="273" y="743" on="0"/>
        <pt x="273" y="765" on="1"/>
        <pt x="273" y="778" on="0"/>
        <pt x="293" y="797" on="0"/>
        <pt x="327" y="817" on="0"/>
        <pt x="397" y="878" on="0"/>
        <pt x="436" y="921" on="1"/>
        <pt x="490" y="893" on="0"/>
        <pt x="490" y="862" on="1"/>
        <pt x="490" y="838" on="0"/>
      </contour>
      <contour>
        <pt x="61" y="658" on="1"/>
        <pt x="87" y="666" on="0"/>
        <pt x="120" y="666" on="1"/>
        <pt x="158" y="666" on="0"/>
        <pt x="193" y="643" on="0"/>
        <pt x="193" y="615" on="1"/>
        <pt x="193" y="574" on="0"/>
        <pt x="178" y="289" on="0"/>
        <pt x="178" y="210" on="1"/>
        <pt x="178" y="142" on="0"/>
        <pt x="248" y="77" on="0"/>
        <pt x="295" y="77" on="1"/>
        <pt x="338" y="77" on="0"/>
        <pt x="433" y="121" on="0"/>
        <pt x="462" y="152" on="1"/>
        <pt x="462" y="159" on="0"/>
        <pt x="462" y="208" on="0"/>
        <pt x="463" y="333" on="0"/>
        <pt x="463" y="431" on="1"/>
        <pt x="463" y="571" on="0"/>
        <pt x="456" y="662" on="1"/>
        <pt x="487" y="666" on="0"/>
        <pt x="511" y="666" on="1"/>
        <pt x="576" y="666" on="0"/>
        <pt x="576" y="628" on="1"/>
        <pt x="576" y="626" on="0"/>
        <pt x="572" y="556" on="0"/>
        <pt x="568" y="407" on="0"/>
        <pt x="568" y="309" on="1"/>
        <pt x="568" y="154" on="0"/>
        <pt x="574" y="49" on="0"/>
        <pt x="587" y="5" on="1"/>
        <pt x="565" y="-3" on="0"/>
        <pt x="525" y="-3" on="1"/>
        <pt x="489" y="-3" on="0"/>
        <pt x="461" y="22" on="0"/>
        <pt x="461" y="56" on="1"/>
        <pt x="461" y="75" on="1"/>
        <pt x="422" y="37" on="0"/>
        <pt x="313" y="-10" on="0"/>
        <pt x="267" y="-10" on="1"/>
        <pt x="176" y="-10" on="0"/>
        <pt x="69" y="79" on="0"/>
        <pt x="69" y="192" on="1"/>
        <pt x="69" y="251" on="0"/>
        <pt x="78" y="453" on="0"/>
        <pt x="78" y="501" on="1"/>
        <pt x="78" y="596" on="0"/>
      </contour>
    </TTGlyph>
    <TTGlyph name="Ucircumflex" xMin="61" yMin="-10" xMax="587" yMax="895">
      <contour>
        <pt x="467" y="757" on="1"/>
        <pt x="467" y="736" on="0"/>
        <pt x="430" y="712" on="1"/>
        <pt x="413" y="733" on="0"/>
        <pt x="363" y="776" on="0"/>
        <pt x="346" y="788" on="1"/>
        <pt x="329" y="799" on="1"/>
        <pt x="242" y="724" on="0"/>
        <pt x="215" y="724" on="1"/>
        <pt x="194" y="724" on="0"/>
        <pt x="174" y="750" on="1"/>
        <pt x="248" y="837" on="0"/>
        <pt x="330" y="895" on="1"/>
        <pt x="467" y="800" on="0"/>
      </contour>
      <contour>
        <pt x="61" y="658" on="1"/>
        <pt x="87" y="666" on="0"/>
        <pt x="120" y="666" on="1"/>
        <pt x="158" y="666" on="0"/>
        <pt x="193" y="643" on="0"/>
        <pt x="193" y="615" on="1"/>
        <pt x="193" y="574" on="0"/>
        <pt x="178" y="289" on="0"/>
        <pt x="178" y="210" on="1"/>
        <pt x="178" y="142" on="0"/>
        <pt x="248" y="77" on="0"/>
        <pt x="295" y="77" on="1"/>
        <pt x="338" y="77" on="0"/>
        <pt x="433" y="121" on="0"/>
        <pt x="462" y="152" on="1"/>
        <pt x="462" y="159" on="0"/>
        <pt x="462" y="208" on="0"/>
        <pt x="463" y="333" on="0"/>
        <pt x="463" y="431" on="1"/>
        <pt x="463" y="571" on="0"/>
        <pt x="456" y="662" on="1"/>
        <pt x="487" y="666" on="0"/>
        <pt x="511" y="666" on="1"/>
        <pt x="576" y="666" on="0"/>
        <pt x="576" y="628" on="1"/>
        <pt x="576" y="626" on="0"/>
        <pt x="572" y="556" on="0"/>
        <pt x="568" y="407" on="0"/>
        <pt x="568" y="309" on="1"/>
        <pt x="568" y="154" on="0"/>
        <pt x="574" y="49" on="0"/>
        <pt x="587" y="5" on="1"/>
        <pt x="565" y="-3" on="0"/>
        <pt x="525" y="-3" on="1"/>
        <pt x="489" y="-3" on="0"/>
        <pt x="461" y="22" on="0"/>
        <pt x="461" y="56" on="1"/>
        <pt x="461" y="75" on="1"/>
        <pt x="422" y="37" on="0"/>
        <pt x="313" y="-10" on="0"/>
        <pt x="267" y="-10" on="1"/>
        <pt x="176" y="-10" on="0"/>
        <pt x="69" y="79" on="0"/>
        <pt x="69" y="192" on="1"/>
        <pt x="69" y="251" on="0"/>
        <pt x="78" y="453" on="0"/>
        <pt x="78" y="501" on="1"/>
        <pt x="78" y="596" on="0"/>
      </contour>
    </TTGlyph>
    <TTGlyph name="Udieresis" xMin="61" yMin="-10" xMax="587" yMax="854">
      <contour>
        <pt x="61" y="658" on="1"/>
        <pt x="87" y="666" on="0"/>
        <pt x="120" y="666" on="1"/>
        <pt x="158" y="666" on="0"/>
        <pt x="193" y="643" on="0"/>
        <pt x="193" y="615" on="1"/>
        <pt x="193" y="574" on="0"/>
        <pt x="178" y="289" on="0"/>
        <pt x="178" y="210" on="1"/>
        <pt x="178" y="142" on="0"/>
        <pt x="248" y="77" on="0"/>
        <pt x="295" y="77" on="1"/>
        <pt x="338" y="77" on="0"/>
        <pt x="433" y="121" on="0"/>
        <pt x="462" y="152" on="1"/>
        <pt x="462" y="159" on="0"/>
        <pt x="462" y="208" on="0"/>
        <pt x="463" y="333" on="0"/>
        <pt x="463" y="431" on="1"/>
        <pt x="463" y="571" on="0"/>
        <pt x="456" y="662" on="1"/>
        <pt x="487" y="666" on="0"/>
        <pt x="511" y="666" on="1"/>
        <pt x="576" y="666" on="0"/>
        <pt x="576" y="628" on="1"/>
        <pt x="576" y="626" on="0"/>
        <pt x="572" y="556" on="0"/>
        <pt x="568" y="407" on="0"/>
        <pt x="568" y="309" on="1"/>
        <pt x="568" y="154" on="0"/>
        <pt x="574" y="49" on="0"/>
        <pt x="587" y="5" on="1"/>
        <pt x="565" y="-3" on="0"/>
        <pt x="525" y="-3" on="1"/>
        <pt x="489" y="-3" on="0"/>
        <pt x="461" y="22" on="0"/>
        <pt x="461" y="56" on="1"/>
        <pt x="461" y="75" on="1"/>
        <pt x="422" y="37" on="0"/>
        <pt x="313" y="-10" on="0"/>
        <pt x="267" y="-10" on="1"/>
        <pt x="176" y="-10" on="0"/>
        <pt x="69" y="79" on="0"/>
        <pt x="69" y="192" on="1"/>
        <pt x="69" y="251" on="0"/>
        <pt x="78" y="453" on="0"/>
        <pt x="78" y="501" on="1"/>
        <pt x="78" y="596" on="0"/>
      </contour>
      <contour>
        <pt x="430" y="712" on="1"/>
        <pt x="400" y="712" on="0"/>
        <pt x="358" y="752" on="0"/>
        <pt x="358" y="783" on="1"/>
        <pt x="358" y="813" on="0"/>
        <pt x="402" y="854" on="0"/>
        <pt x="432" y="854" on="1"/>
        <pt x="461" y="854" on="0"/>
        <pt x="503" y="813" on="0"/>
        <pt x="503" y="753" on="0"/>
        <pt x="459" y="712" on="0"/>
      </contour>
      <contour>
        <pt x="240" y="712" on="1"/>
        <pt x="210" y="712" on="0"/>
        <pt x="168" y="752" on="0"/>
        <pt x="168" y="783" on="1"/>
        <pt x="168" y="813" on="0"/>
        <pt x="212" y="854" on="0"/>
        <pt x="242" y="854" on="1"/>
        <pt x="271" y="854" on="0"/>
        <pt x="313" y="813" on="0"/>
        <pt x="313" y="753" on="0"/>
        <pt x="269" y="712" on="0"/>
      </contour>
    </TTGlyph>
    <TTGlyph name="Ugrave" xMin="61" yMin="-10" xMax="587" yMax="915">
      <contour>
        <pt x="217" y="915" on="1"/>
        <pt x="257" y="872" on="0"/>
        <pt x="345" y="806" on="0"/>
        <pt x="384" y="776" on="0"/>
        <pt x="384" y="760" on="1"/>
        <pt x="384" y="737" on="0"/>
        <pt x="352" y="716" on="1"/>
        <pt x="321" y="739" on="0"/>
        <pt x="218" y="794" on="0"/>
        <pt x="165" y="833" on="0"/>
        <pt x="165" y="854" on="1"/>
        <pt x="165" y="889" on="0"/>
      </contour>
      <contour>
        <pt x="61" y="658" on="1"/>
        <pt x="87" y="666" on="0"/>
        <pt x="120" y="666" on="1"/>
        <pt x="158" y="666" on="0"/>
        <pt x="193" y="643" on="0"/>
        <pt x="193" y="615" on="1"/>
        <pt x="193" y="574" on="0"/>
        <pt x="178" y="289" on="0"/>
        <pt x="178" y="210" on="1"/>
        <pt x="178" y="142" on="0"/>
        <pt x="248" y="77" on="0"/>
        <pt x="295" y="77" on="1"/>
        <pt x="338" y="77" on="0"/>
        <pt x="433" y="121" on="0"/>
        <pt x="462" y="152" on="1"/>
        <pt x="462" y="159" on="0"/>
        <pt x="462" y="208" on="0"/>
        <pt x="463" y="333" on="0"/>
        <pt x="463" y="431" on="1"/>
        <pt x="463" y="571" on="0"/>
        <pt x="456" y="662" on="1"/>
        <pt x="487" y="666" on="0"/>
        <pt x="511" y="666" on="1"/>
        <pt x="576" y="666" on="0"/>
        <pt x="576" y="628" on="1"/>
        <pt x="576" y="626" on="0"/>
        <pt x="572" y="556" on="0"/>
        <pt x="568" y="407" on="0"/>
        <pt x="568" y="309" on="1"/>
        <pt x="568" y="154" on="0"/>
        <pt x="574" y="49" on="0"/>
        <pt x="587" y="5" on="1"/>
        <pt x="565" y="-3" on="0"/>
        <pt x="525" y="-3" on="1"/>
        <pt x="489" y="-3" on="0"/>
        <pt x="461" y="22" on="0"/>
        <pt x="461" y="56" on="1"/>
        <pt x="461" y="75" on="1"/>
        <pt x="422" y="37" on="0"/>
        <pt x="313" y="-10" on="0"/>
        <pt x="267" y="-10" on="1"/>
        <pt x="176" y="-10" on="0"/>
        <pt x="69" y="79" on="0"/>
        <pt x="69" y="192" on="1"/>
        <pt x="69" y="251" on="0"/>
        <pt x="78" y="453" on="0"/>
        <pt x="78" y="501" on="1"/>
        <pt x="78" y="596" on="0"/>
      </contour>
    </TTGlyph>
    <TTGlyph name="V" xMin="-17" yMin="-3" xMax="570" yMax="673">
      <contour>
        <pt x="457" y="666" on="1"/>
        <pt x="484" y="673" on="0"/>
        <pt x="512" y="673" on="1"/>
        <pt x="544" y="673" on="0"/>
        <pt x="570" y="651" on="0"/>
        <pt x="570" y="624" on="1"/>
        <pt x="570" y="514" on="0"/>
        <pt x="430" y="145" on="0"/>
        <pt x="357" y="52" on="1"/>
        <pt x="331" y="19" on="0"/>
        <pt x="290" y="-3" on="0"/>
        <pt x="261" y="-3" on="1"/>
        <pt x="235" y="-3" on="0"/>
        <pt x="222" y="0" on="1"/>
        <pt x="190" y="161" on="0"/>
        <pt x="37" y="575" on="0"/>
        <pt x="-17" y="628" on="1"/>
        <pt x="36" y="667" on="0"/>
        <pt x="108" y="667" on="0"/>
        <pt x="127" y="630" on="1"/>
        <pt x="167" y="548" on="0"/>
        <pt x="268" y="246" on="0"/>
        <pt x="300" y="120" on="1"/>
        <pt x="366" y="216" on="0"/>
        <pt x="461" y="510" on="0"/>
        <pt x="461" y="617" on="1"/>
        <pt x="461" y="652" on="0"/>
      </contour>
    </TTGlyph>
    <TTGlyph name="W" xMin="-17" yMin="-3" xMax="931" yMax="673">
      <contour>
        <pt x="818" y="666" on="1"/>
        <pt x="845" y="673" on="0"/>
        <pt x="873" y="673" on="1"/>
        <pt x="905" y="673" on="0"/>
        <pt x="931" y="651" on="0"/>
        <pt x="931" y="624" on="1"/>
        <pt x="931" y="514" on="0"/>
        <pt x="799" y="145" on="0"/>
        <pt x="730" y="52" on="1"/>
        <pt x="706" y="19" on="0"/>
        <pt x="666" y="-3" on="0"/>
        <pt x="639" y="-3" on="1"/>
        <pt x="615" y="-3" on="0"/>
        <pt x="603" y="0" on="1"/>
        <pt x="569" y="177" on="0"/>
        <pt x="491" y="391" on="1"/>
        <pt x="460" y="292" on="0"/>
        <pt x="376" y="105" on="0"/>
        <pt x="336" y="52" on="1"/>
        <pt x="312" y="19" on="0"/>
        <pt x="272" y="-3" on="0"/>
        <pt x="245" y="-3" on="1"/>
        <pt x="221" y="-3" on="0"/>
        <pt x="209" y="0" on="1"/>
        <pt x="179" y="161" on="0"/>
        <pt x="34" y="575" on="0"/>
        <pt x="-17" y="628" on="1"/>
        <pt x="36" y="667" on="0"/>
        <pt x="72" y="667" on="1"/>
        <pt x="111" y="667" on="0"/>
        <pt x="127" y="630" on="1"/>
        <pt x="164" y="544" on="0"/>
        <pt x="254" y="246" on="0"/>
        <pt x="283" y="120" on="1"/>
        <pt x="343" y="216" on="0"/>
        <pt x="428" y="510" on="0"/>
        <pt x="428" y="617" on="1"/>
        <pt x="428" y="652" on="0"/>
        <pt x="424" y="666" on="1"/>
        <pt x="451" y="673" on="0"/>
        <pt x="479" y="673" on="1"/>
        <pt x="511" y="673" on="0"/>
        <pt x="537" y="651" on="0"/>
        <pt x="537" y="624" on="1"/>
        <pt x="537" y="615" on="0"/>
        <pt x="535" y="595" on="1"/>
        <pt x="613" y="396" on="0"/>
        <pt x="677" y="120" on="1"/>
        <pt x="737" y="216" on="0"/>
        <pt x="822" y="510" on="0"/>
        <pt x="822" y="617" on="1"/>
        <pt x="822" y="652" on="0"/>
      </contour>
    </TTGlyph>
    <TTGlyph name="X" xMin="21" yMin="-10" xMax="599" yMax="673">
      <contour>
        <pt x="21" y="44" on="1"/>
        <pt x="21" y="112" on="0"/>
        <pt x="250" y="343" on="1"/>
        <pt x="238" y="360" on="0"/>
        <pt x="158" y="475" on="0"/>
        <pt x="117" y="531" on="0"/>
        <pt x="55" y="605" on="0"/>
        <pt x="33" y="624" on="1"/>
        <pt x="68" y="656" on="0"/>
        <pt x="103" y="673" on="0"/>
        <pt x="122" y="673" on="1"/>
        <pt x="156" y="673" on="0"/>
        <pt x="185" y="637" on="1"/>
        <pt x="205" y="612" on="0"/>
        <pt x="288" y="478" on="0"/>
        <pt x="317" y="423" on="1"/>
        <pt x="358" y="478" on="0"/>
        <pt x="433" y="617" on="0"/>
        <pt x="446" y="672" on="1"/>
        <pt x="552" y="666" on="0"/>
        <pt x="552" y="617" on="1"/>
        <pt x="552" y="578" on="0"/>
        <pt x="432" y="420" on="0"/>
        <pt x="359" y="350" on="1"/>
        <pt x="415" y="267" on="0"/>
        <pt x="481" y="171" on="0"/>
        <pt x="572" y="57" on="0"/>
        <pt x="599" y="38" on="1"/>
        <pt x="556" y="-10" on="0"/>
        <pt x="513" y="-10" on="1"/>
        <pt x="471" y="-10" on="0"/>
        <pt x="444" y="29" on="1"/>
        <pt x="359" y="143" on="0"/>
        <pt x="292" y="270" on="1"/>
        <pt x="156" y="96" on="0"/>
        <pt x="126" y="-10" on="1"/>
        <pt x="21" y="-6" on="0"/>
      </contour>
    </TTGlyph>
    <TTGlyph name="Y" xMin="-9" yMin="-3" xMax="503" yMax="672">
      <contour>
        <pt x="503" y="616" on="1"/>
        <pt x="503" y="581" on="0"/>
        <pt x="374" y="385" on="0"/>
        <pt x="310" y="307" on="1"/>
        <pt x="310" y="203" on="1"/>
        <pt x="310" y="70" on="0"/>
        <pt x="329" y="7" on="1"/>
        <pt x="301" y="-3" on="0"/>
        <pt x="267" y="-3" on="1"/>
        <pt x="230" y="-3" on="0"/>
        <pt x="203" y="23" on="0"/>
        <pt x="203" y="54" on="1"/>
        <pt x="203" y="70" on="0"/>
        <pt x="205" y="196" on="0"/>
        <pt x="205" y="231" on="1"/>
        <pt x="205" y="303" on="1"/>
        <pt x="64" y="565" on="0"/>
        <pt x="-9" y="614" on="1"/>
        <pt x="7" y="635" on="0"/>
        <pt x="57" y="667" on="0"/>
        <pt x="80" y="667" on="1"/>
        <pt x="115" y="667" on="0"/>
        <pt x="139" y="633" on="1"/>
        <pt x="213" y="524" on="0"/>
        <pt x="277" y="386" on="1"/>
        <pt x="323" y="457" on="0"/>
        <pt x="403" y="637" on="0"/>
        <pt x="408" y="672" on="1"/>
        <pt x="503" y="668" on="0"/>
      </contour>
    </TTGlyph>
    <TTGlyph name="Yacute" xMin="-9" yMin="-3" xMax="503" yMax="921">
      <contour>
        <pt x="399" y="819" on="1"/>
        <pt x="381" y="805" on="0"/>
        <pt x="266" y="741" on="0"/>
        <pt x="239" y="716" on="1"/>
        <pt x="209" y="743" on="0"/>
        <pt x="209" y="765" on="1"/>
        <pt x="209" y="778" on="0"/>
        <pt x="229" y="797" on="0"/>
        <pt x="263" y="817" on="0"/>
        <pt x="333" y="878" on="0"/>
        <pt x="372" y="921" on="1"/>
        <pt x="426" y="893" on="0"/>
        <pt x="426" y="862" on="1"/>
        <pt x="426" y="838" on="0"/>
      </contour>
      <contour>
        <pt x="503" y="616" on="1"/>
        <pt x="503" y="581" on="0"/>
        <pt x="374" y="385" on="0"/>
        <pt x="310" y="307" on="1"/>
        <pt x="310" y="203" on="1"/>
        <pt x="310" y="70" on="0"/>
        <pt x="329" y="7" on="1"/>
        <pt x="301" y="-3" on="0"/>
        <pt x="267" y="-3" on="1"/>
        <pt x="230" y="-3" on="0"/>
        <pt x="203" y="23" on="0"/>
        <pt x="203" y="54" on="1"/>
        <pt x="203" y="70" on="0"/>
        <pt x="205" y="196" on="0"/>
        <pt x="205" y="231" on="1"/>
        <pt x="205" y="303" on="1"/>
        <pt x="64" y="565" on="0"/>
        <pt x="-9" y="614" on="1"/>
        <pt x="7" y="635" on="0"/>
        <pt x="57" y="667" on="0"/>
        <pt x="80" y="667" on="1"/>
        <pt x="115" y="667" on="0"/>
        <pt x="139" y="633" on="1"/>
        <pt x="213" y="524" on="0"/>
        <pt x="277" y="386" on="1"/>
        <pt x="323" y="457" on="0"/>
        <pt x="403" y="637" on="0"/>
        <pt x="408" y="672" on="1"/>
        <pt x="503" y="668" on="0"/>
      </contour>
    </TTGlyph>
    <TTGlyph name="Ydieresis" xMin="-9" yMin="-3" xMax="503" yMax="854">
      <contour>
        <pt x="503" y="616" on="1"/>
        <pt x="503" y="581" on="0"/>
        <pt x="374" y="385" on="0"/>
        <pt x="310" y="307" on="1"/>
        <pt x="310" y="203" on="1"/>
        <pt x="310" y="70" on="0"/>
        <pt x="329" y="7" on="1"/>
        <pt x="301" y="-3" on="0"/>
        <pt x="267" y="-3" on="1"/>
        <pt x="230" y="-3" on="0"/>
        <pt x="203" y="23" on="0"/>
        <pt x="203" y="54" on="1"/>
        <pt x="203" y="70" on="0"/>
        <pt x="205" y="196" on="0"/>
        <pt x="205" y="231" on="1"/>
        <pt x="205" y="303" on="1"/>
        <pt x="64" y="565" on="0"/>
        <pt x="-9" y="614" on="1"/>
        <pt x="7" y="635" on="0"/>
        <pt x="57" y="667" on="0"/>
        <pt x="80" y="667" on="1"/>
        <pt x="115" y="667" on="0"/>
        <pt x="139" y="633" on="1"/>
        <pt x="213" y="524" on="0"/>
        <pt x="277" y="386" on="1"/>
        <pt x="323" y="457" on="0"/>
        <pt x="403" y="637" on="0"/>
        <pt x="408" y="672" on="1"/>
        <pt x="503" y="668" on="0"/>
      </contour>
      <contour>
        <pt x="361" y="712" on="1"/>
        <pt x="331" y="712" on="0"/>
        <pt x="289" y="752" on="0"/>
        <pt x="289" y="783" on="1"/>
        <pt x="289" y="813" on="0"/>
        <pt x="333" y="854" on="0"/>
        <pt x="363" y="854" on="1"/>
        <pt x="392" y="854" on="0"/>
        <pt x="434" y="813" on="0"/>
        <pt x="434" y="753" on="0"/>
        <pt x="390" y="712" on="0"/>
      </contour>
      <contour>
        <pt x="171" y="712" on="1"/>
        <pt x="141" y="712" on="0"/>
        <pt x="99" y="752" on="0"/>
        <pt x="99" y="783" on="1"/>
        <pt x="99" y="813" on="0"/>
        <pt x="143" y="854" on="0"/>
        <pt x="173" y="854" on="1"/>
        <pt x="202" y="854" on="0"/>
        <pt x="244" y="813" on="0"/>
        <pt x="244" y="753" on="0"/>
        <pt x="200" y="712" on="0"/>
      </contour>
    </TTGlyph>
    <TTGlyph name="Z" xMin="22" yMin="-6" xMax="547" yMax="667">
      <contour>
        <pt x="531" y="648" on="1"/>
        <pt x="547" y="630" on="0"/>
        <pt x="547" y="608" on="1"/>
        <pt x="547" y="584" on="0"/>
        <pt x="530" y="562" on="1"/>
        <pt x="135" y="68" on="1"/>
        <pt x="150" y="67" on="0"/>
        <pt x="192" y="67" on="1"/>
        <pt x="387" y="67" on="0"/>
        <pt x="514" y="106" on="1"/>
        <pt x="526" y="70" on="0"/>
        <pt x="526" y="50" on="1"/>
        <pt x="526" y="31" on="0"/>
        <pt x="505" y="10" on="0"/>
        <pt x="478" y="3" on="0"/>
        <pt x="452" y="0" on="1"/>
        <pt x="389" y="-6" on="0"/>
        <pt x="285" y="-6" on="1"/>
        <pt x="136" y="-6" on="0"/>
        <pt x="40" y="6" on="1"/>
        <pt x="22" y="30" on="0"/>
        <pt x="22" y="56" on="1"/>
        <pt x="22" y="88" on="0"/>
        <pt x="47" y="119" on="1"/>
        <pt x="414" y="588" on="1"/>
        <pt x="375" y="591" on="0"/>
        <pt x="318" y="591" on="1"/>
        <pt x="173" y="591" on="0"/>
        <pt x="61" y="564" on="1"/>
        <pt x="51" y="592" on="0"/>
        <pt x="51" y="614" on="1"/>
        <pt x="51" y="647" on="0"/>
        <pt x="80" y="657" on="1"/>
        <pt x="123" y="667" on="0"/>
        <pt x="210" y="667" on="1"/>
        <pt x="391" y="667" on="0"/>
      </contour>
    </TTGlyph>
    <TTGlyph name="Zcaron" xMin="22" yMin="-6" xMax="547" yMax="895">
      <contour>
        <pt x="158" y="850" on="1"/>
        <pt x="158" y="871" on="0"/>
        <pt x="195" y="895" on="1"/>
        <pt x="212" y="874" on="0"/>
        <pt x="262" y="831" on="0"/>
        <pt x="279" y="820" on="1"/>
        <pt x="296" y="808" on="1"/>
        <pt x="383" y="883" on="0"/>
        <pt x="410" y="883" on="1"/>
        <pt x="431" y="883" on="0"/>
        <pt x="451" y="857" on="1"/>
        <pt x="377" y="770" on="0"/>
        <pt x="295" y="712" on="1"/>
        <pt x="158" y="807" on="0"/>
      </contour>
      <contour>
        <pt x="531" y="648" on="1"/>
        <pt x="547" y="630" on="0"/>
        <pt x="547" y="608" on="1"/>
        <pt x="547" y="584" on="0"/>
        <pt x="530" y="562" on="1"/>
        <pt x="135" y="68" on="1"/>
        <pt x="150" y="67" on="0"/>
        <pt x="192" y="67" on="1"/>
        <pt x="387" y="67" on="0"/>
        <pt x="514" y="106" on="1"/>
        <pt x="526" y="70" on="0"/>
        <pt x="526" y="50" on="1"/>
        <pt x="526" y="31" on="0"/>
        <pt x="505" y="10" on="0"/>
        <pt x="478" y="3" on="0"/>
        <pt x="452" y="0" on="1"/>
        <pt x="389" y="-6" on="0"/>
        <pt x="285" y="-6" on="1"/>
        <pt x="136" y="-6" on="0"/>
        <pt x="40" y="6" on="1"/>
        <pt x="22" y="30" on="0"/>
        <pt x="22" y="56" on="1"/>
        <pt x="22" y="88" on="0"/>
        <pt x="47" y="119" on="1"/>
        <pt x="414" y="588" on="1"/>
        <pt x="375" y="591" on="0"/>
        <pt x="318" y="591" on="1"/>
        <pt x="173" y="591" on="0"/>
        <pt x="61" y="564" on="1"/>
        <pt x="51" y="592" on="0"/>
        <pt x="51" y="614" on="1"/>
        <pt x="51" y="647" on="0"/>
        <pt x="80" y="657" on="1"/>
        <pt x="123" y="667" on="0"/>
        <pt x="210" y="667" on="1"/>
        <pt x="391" y="667" on="0"/>
      </contour>
    </TTGlyph>
    <TTGlyph name="a" xMin="38" yMin="-10" xMax="432" yMax="485">
      <contour>
        <pt x="303" y="143" on="1"/>
        <pt x="303" y="189" on="0"/>
        <pt x="305" y="214" on="1"/>
        <pt x="275" y="210" on="0"/>
        <pt x="248" y="206" on="0"/>
        <pt x="202" y="198" on="0"/>
        <pt x="181" y="188" on="0"/>
        <pt x="157" y="174" on="0"/>
        <pt x="147" y="153" on="0"/>
        <pt x="147" y="139" on="1"/>
        <pt x="147" y="99" on="0"/>
        <pt x="187" y="61" on="0"/>
        <pt x="218" y="61" on="1"/>
        <pt x="269" y="61" on="0"/>
        <pt x="305" y="99" on="1"/>
        <pt x="303" y="112" on="0"/>
      </contour>
      <contour>
        <pt x="307" y="275" on="1"/>
        <pt x="307" y="309" on="0"/>
        <pt x="304" y="345" on="0"/>
        <pt x="291" y="391" on="0"/>
        <pt x="260" y="412" on="0"/>
        <pt x="234" y="412" on="1"/>
        <pt x="201" y="412" on="0"/>
        <pt x="142" y="369" on="0"/>
        <pt x="129" y="331" on="1"/>
        <pt x="40" y="332" on="0"/>
        <pt x="40" y="384" on="1"/>
        <pt x="40" y="427" on="0"/>
        <pt x="161" y="485" on="0"/>
        <pt x="238" y="485" on="1"/>
        <pt x="330" y="485" on="0"/>
        <pt x="415" y="409" on="0"/>
        <pt x="415" y="311" on="1"/>
        <pt x="415" y="308" on="0"/>
        <pt x="413" y="220" on="0"/>
        <pt x="413" y="178" on="1"/>
        <pt x="413" y="64" on="0"/>
        <pt x="432" y="7" on="1"/>
        <pt x="403" y="-4" on="0"/>
        <pt x="375" y="-4" on="1"/>
        <pt x="319" y="-4" on="0"/>
        <pt x="308" y="42" on="1"/>
        <pt x="248" y="-10" on="0"/>
        <pt x="173" y="-10" on="1"/>
        <pt x="115" y="-10" on="0"/>
        <pt x="38" y="62" on="0"/>
        <pt x="38" y="132" on="1"/>
        <pt x="38" y="188" on="0"/>
        <pt x="86" y="242" on="0"/>
        <pt x="126" y="255" on="1"/>
        <pt x="186" y="274" on="0"/>
      </contour>
    </TTGlyph>
    <TTGlyph name="a_alt" xMin="38" yMin="-10" xMax="492" yMax="485">
      <contour>
        <pt x="242" y="-10" on="1"/>
        <pt x="158" y="-10" on="0"/>
        <pt x="38" y="131" on="0"/>
        <pt x="38" y="237" on="1"/>
        <pt x="38" y="352" on="0"/>
        <pt x="170" y="485" on="0"/>
        <pt x="269" y="485" on="1"/>
        <pt x="389" y="485" on="0"/>
        <pt x="479" y="416" on="1"/>
        <pt x="472" y="262" on="0"/>
        <pt x="472" y="211" on="1"/>
        <pt x="472" y="68" on="0"/>
        <pt x="492" y="7" on="1"/>
        <pt x="463" y="-4" on="0"/>
        <pt x="436" y="-4" on="1"/>
        <pt x="382" y="-4" on="0"/>
        <pt x="371" y="42" on="1"/>
        <pt x="342" y="18" on="0"/>
        <pt x="271" y="-10" on="0"/>
      </contour>
      <contour>
        <pt x="269" y="64" on="1"/>
        <pt x="331" y="64" on="0"/>
        <pt x="368" y="99" on="1"/>
        <pt x="367" y="123" on="0"/>
        <pt x="367" y="170" on="1"/>
        <pt x="367" y="263" on="0"/>
        <pt x="371" y="367" on="1"/>
        <pt x="327" y="412" on="0"/>
        <pt x="264" y="412" on="1"/>
        <pt x="215" y="412" on="0"/>
        <pt x="147" y="324" on="0"/>
        <pt x="147" y="256" on="1"/>
        <pt x="147" y="168" on="0"/>
        <pt x="216" y="64" on="0"/>
      </contour>
    </TTGlyph>
    <TTGlyph name="aacute" xMin="38" yMin="-10" xMax="432" yMax="728">
      <contour>
        <pt x="367" y="626" on="1"/>
        <pt x="349" y="612" on="0"/>
        <pt x="234" y="548" on="0"/>
        <pt x="207" y="523" on="1"/>
        <pt x="177" y="550" on="0"/>
        <pt x="177" y="572" on="1"/>
        <pt x="177" y="585" on="0"/>
        <pt x="197" y="604" on="0"/>
        <pt x="231" y="624" on="0"/>
        <pt x="301" y="685" on="0"/>
        <pt x="340" y="728" on="1"/>
        <pt x="394" y="700" on="0"/>
        <pt x="394" y="669" on="1"/>
        <pt x="394" y="645" on="0"/>
      </contour>
      <contour>
        <pt x="303" y="143" on="1"/>
        <pt x="303" y="189" on="0"/>
        <pt x="305" y="214" on="1"/>
        <pt x="275" y="210" on="0"/>
        <pt x="248" y="206" on="0"/>
        <pt x="202" y="198" on="0"/>
        <pt x="181" y="188" on="0"/>
        <pt x="157" y="174" on="0"/>
        <pt x="147" y="153" on="0"/>
        <pt x="147" y="139" on="1"/>
        <pt x="147" y="99" on="0"/>
        <pt x="187" y="61" on="0"/>
        <pt x="218" y="61" on="1"/>
        <pt x="269" y="61" on="0"/>
        <pt x="305" y="99" on="1"/>
        <pt x="303" y="112" on="0"/>
      </contour>
      <contour>
        <pt x="307" y="275" on="1"/>
        <pt x="307" y="309" on="0"/>
        <pt x="304" y="345" on="0"/>
        <pt x="291" y="391" on="0"/>
        <pt x="260" y="412" on="0"/>
        <pt x="234" y="412" on="1"/>
        <pt x="201" y="412" on="0"/>
        <pt x="142" y="369" on="0"/>
        <pt x="129" y="331" on="1"/>
        <pt x="40" y="332" on="0"/>
        <pt x="40" y="384" on="1"/>
        <pt x="40" y="427" on="0"/>
        <pt x="161" y="485" on="0"/>
        <pt x="238" y="485" on="1"/>
        <pt x="330" y="485" on="0"/>
        <pt x="415" y="409" on="0"/>
        <pt x="415" y="311" on="1"/>
        <pt x="415" y="308" on="0"/>
        <pt x="413" y="220" on="0"/>
        <pt x="413" y="178" on="1"/>
        <pt x="413" y="64" on="0"/>
        <pt x="432" y="7" on="1"/>
        <pt x="403" y="-4" on="0"/>
        <pt x="375" y="-4" on="1"/>
        <pt x="319" y="-4" on="0"/>
        <pt x="308" y="42" on="1"/>
        <pt x="248" y="-10" on="0"/>
        <pt x="173" y="-10" on="1"/>
        <pt x="115" y="-10" on="0"/>
        <pt x="38" y="62" on="0"/>
        <pt x="38" y="132" on="1"/>
        <pt x="38" y="188" on="0"/>
        <pt x="86" y="242" on="0"/>
        <pt x="126" y="255" on="1"/>
        <pt x="186" y="274" on="0"/>
      </contour>
    </TTGlyph>
    <TTGlyph name="aacute_alt" xMin="38" yMin="-10" xMax="492" yMax="728">
      <contour>
        <pt x="242" y="-10" on="1"/>
        <pt x="158" y="-10" on="0"/>
        <pt x="38" y="131" on="0"/>
        <pt x="38" y="237" on="1"/>
        <pt x="38" y="352" on="0"/>
        <pt x="170" y="485" on="0"/>
        <pt x="269" y="485" on="1"/>
        <pt x="389" y="485" on="0"/>
        <pt x="479" y="416" on="1"/>
        <pt x="472" y="262" on="0"/>
        <pt x="472" y="211" on="1"/>
        <pt x="472" y="68" on="0"/>
        <pt x="492" y="7" on="1"/>
        <pt x="463" y="-4" on="0"/>
        <pt x="436" y="-4" on="1"/>
        <pt x="382" y="-4" on="0"/>
        <pt x="371" y="42" on="1"/>
        <pt x="342" y="18" on="0"/>
        <pt x="271" y="-10" on="0"/>
      </contour>
      <contour>
        <pt x="269" y="64" on="1"/>
        <pt x="331" y="64" on="0"/>
        <pt x="368" y="99" on="1"/>
        <pt x="367" y="123" on="0"/>
        <pt x="367" y="170" on="1"/>
        <pt x="367" y="263" on="0"/>
        <pt x="371" y="367" on="1"/>
        <pt x="327" y="412" on="0"/>
        <pt x="264" y="412" on="1"/>
        <pt x="215" y="412" on="0"/>
        <pt x="147" y="324" on="0"/>
        <pt x="147" y="256" on="1"/>
        <pt x="147" y="168" on="0"/>
        <pt x="216" y="64" on="0"/>
      </contour>
      <contour>
        <pt x="397" y="626" on="1"/>
        <pt x="379" y="612" on="0"/>
        <pt x="264" y="548" on="0"/>
        <pt x="237" y="523" on="1"/>
        <pt x="207" y="550" on="0"/>
        <pt x="207" y="572" on="1"/>
        <pt x="207" y="585" on="0"/>
        <pt x="227" y="604" on="0"/>
        <pt x="261" y="624" on="0"/>
        <pt x="331" y="685" on="0"/>
        <pt x="370" y="728" on="1"/>
        <pt x="424" y="700" on="0"/>
        <pt x="424" y="669" on="1"/>
        <pt x="424" y="645" on="0"/>
      </contour>
    </TTGlyph>
    <TTGlyph name="acircumflex" xMin="38" yMin="-10" xMax="432" yMax="702">
      <contour>
        <pt x="372" y="564" on="1"/>
        <pt x="372" y="543" on="0"/>
        <pt x="335" y="519" on="1"/>
        <pt x="318" y="540" on="0"/>
        <pt x="268" y="583" on="0"/>
        <pt x="251" y="594" on="1"/>
        <pt x="234" y="606" on="1"/>
        <pt x="147" y="531" on="0"/>
        <pt x="120" y="531" on="1"/>
        <pt x="98" y="531" on="0"/>
        <pt x="79" y="557" on="1"/>
        <pt x="153" y="644" on="0"/>
        <pt x="235" y="702" on="1"/>
        <pt x="372" y="607" on="0"/>
      </contour>
      <contour>
        <pt x="303" y="143" on="1"/>
        <pt x="303" y="189" on="0"/>
        <pt x="305" y="214" on="1"/>
        <pt x="275" y="210" on="0"/>
        <pt x="248" y="206" on="0"/>
        <pt x="202" y="198" on="0"/>
        <pt x="181" y="188" on="0"/>
        <pt x="157" y="174" on="0"/>
        <pt x="147" y="153" on="0"/>
        <pt x="147" y="139" on="1"/>
        <pt x="147" y="99" on="0"/>
        <pt x="187" y="61" on="0"/>
        <pt x="218" y="61" on="1"/>
        <pt x="269" y="61" on="0"/>
        <pt x="305" y="99" on="1"/>
        <pt x="303" y="112" on="0"/>
      </contour>
      <contour>
        <pt x="307" y="275" on="1"/>
        <pt x="307" y="309" on="0"/>
        <pt x="304" y="345" on="0"/>
        <pt x="291" y="391" on="0"/>
        <pt x="260" y="412" on="0"/>
        <pt x="234" y="412" on="1"/>
        <pt x="201" y="412" on="0"/>
        <pt x="142" y="369" on="0"/>
        <pt x="129" y="331" on="1"/>
        <pt x="40" y="332" on="0"/>
        <pt x="40" y="384" on="1"/>
        <pt x="40" y="427" on="0"/>
        <pt x="161" y="485" on="0"/>
        <pt x="238" y="485" on="1"/>
        <pt x="330" y="485" on="0"/>
        <pt x="415" y="409" on="0"/>
        <pt x="415" y="311" on="1"/>
        <pt x="415" y="308" on="0"/>
        <pt x="413" y="220" on="0"/>
        <pt x="413" y="178" on="1"/>
        <pt x="413" y="64" on="0"/>
        <pt x="432" y="7" on="1"/>
        <pt x="403" y="-4" on="0"/>
        <pt x="375" y="-4" on="1"/>
        <pt x="319" y="-4" on="0"/>
        <pt x="308" y="42" on="1"/>
        <pt x="248" y="-10" on="0"/>
        <pt x="173" y="-10" on="1"/>
        <pt x="115" y="-10" on="0"/>
        <pt x="38" y="62" on="0"/>
        <pt x="38" y="132" on="1"/>
        <pt x="38" y="188" on="0"/>
        <pt x="86" y="242" on="0"/>
        <pt x="126" y="255" on="1"/>
        <pt x="186" y="274" on="0"/>
      </contour>
    </TTGlyph>
    <TTGlyph name="acircumflex_alt" xMin="38" yMin="-10" xMax="492" yMax="702">
      <contour>
        <pt x="242" y="-10" on="1"/>
        <pt x="158" y="-10" on="0"/>
        <pt x="38" y="131" on="0"/>
        <pt x="38" y="237" on="1"/>
        <pt x="38" y="352" on="0"/>
        <pt x="170" y="485" on="0"/>
        <pt x="269" y="485" on="1"/>
        <pt x="389" y="485" on="0"/>
        <pt x="479" y="416" on="1"/>
        <pt x="472" y="262" on="0"/>
        <pt x="472" y="211" on="1"/>
        <pt x="472" y="68" on="0"/>
        <pt x="492" y="7" on="1"/>
        <pt x="463" y="-4" on="0"/>
        <pt x="436" y="-4" on="1"/>
        <pt x="382" y="-4" on="0"/>
        <pt x="371" y="42" on="1"/>
        <pt x="342" y="18" on="0"/>
        <pt x="271" y="-10" on="0"/>
      </contour>
      <contour>
        <pt x="269" y="64" on="1"/>
        <pt x="331" y="64" on="0"/>
        <pt x="368" y="99" on="1"/>
        <pt x="367" y="123" on="0"/>
        <pt x="367" y="170" on="1"/>
        <pt x="367" y="263" on="0"/>
        <pt x="371" y="367" on="1"/>
        <pt x="327" y="412" on="0"/>
        <pt x="264" y="412" on="1"/>
        <pt x="215" y="412" on="0"/>
        <pt x="147" y="324" on="0"/>
        <pt x="147" y="256" on="1"/>
        <pt x="147" y="168" on="0"/>
        <pt x="216" y="64" on="0"/>
      </contour>
      <contour>
        <pt x="405" y="564" on="1"/>
        <pt x="405" y="543" on="0"/>
        <pt x="368" y="519" on="1"/>
        <pt x="351" y="540" on="0"/>
        <pt x="301" y="583" on="0"/>
        <pt x="284" y="594" on="1"/>
        <pt x="267" y="606" on="1"/>
        <pt x="180" y="531" on="0"/>
        <pt x="153" y="531" on="1"/>
        <pt x="132" y="531" on="0"/>
        <pt x="112" y="557" on="1"/>
        <pt x="186" y="644" on="0"/>
        <pt x="268" y="702" on="1"/>
        <pt x="405" y="607" on="0"/>
      </contour>
    </TTGlyph>
    <TTGlyph name="acute" xMin="51" yMin="523" xMax="268" yMax="728">
      <contour>
        <pt x="241" y="626" on="1"/>
        <pt x="223" y="612" on="0"/>
        <pt x="108" y="548" on="0"/>
        <pt x="81" y="523" on="1"/>
        <pt x="51" y="550" on="0"/>
        <pt x="51" y="572" on="1"/>
        <pt x="51" y="585" on="0"/>
        <pt x="71" y="604" on="0"/>
        <pt x="105" y="624" on="0"/>
        <pt x="175" y="685" on="0"/>
        <pt x="214" y="728" on="1"/>
        <pt x="268" y="700" on="0"/>
        <pt x="268" y="669" on="1"/>
        <pt x="268" y="645" on="0"/>
      </contour>
    </TTGlyph>
    <TTGlyph name="adieresis" xMin="38" yMin="-10" xMax="432" yMax="662">
      <contour>
        <pt x="303" y="143" on="1"/>
        <pt x="303" y="189" on="0"/>
        <pt x="305" y="214" on="1"/>
        <pt x="275" y="210" on="0"/>
        <pt x="248" y="206" on="0"/>
        <pt x="202" y="198" on="0"/>
        <pt x="181" y="188" on="0"/>
        <pt x="157" y="174" on="0"/>
        <pt x="147" y="153" on="0"/>
        <pt x="147" y="139" on="1"/>
        <pt x="147" y="99" on="0"/>
        <pt x="187" y="61" on="0"/>
        <pt x="218" y="61" on="1"/>
        <pt x="269" y="61" on="0"/>
        <pt x="305" y="99" on="1"/>
        <pt x="303" y="112" on="0"/>
      </contour>
      <contour>
        <pt x="307" y="275" on="1"/>
        <pt x="307" y="309" on="0"/>
        <pt x="304" y="345" on="0"/>
        <pt x="291" y="391" on="0"/>
        <pt x="260" y="412" on="0"/>
        <pt x="234" y="412" on="1"/>
        <pt x="201" y="412" on="0"/>
        <pt x="142" y="369" on="0"/>
        <pt x="129" y="331" on="1"/>
        <pt x="40" y="332" on="0"/>
        <pt x="40" y="384" on="1"/>
        <pt x="40" y="427" on="0"/>
        <pt x="161" y="485" on="0"/>
        <pt x="238" y="485" on="1"/>
        <pt x="330" y="485" on="0"/>
        <pt x="415" y="409" on="0"/>
        <pt x="415" y="311" on="1"/>
        <pt x="415" y="308" on="0"/>
        <pt x="413" y="220" on="0"/>
        <pt x="413" y="178" on="1"/>
        <pt x="413" y="64" on="0"/>
        <pt x="432" y="7" on="1"/>
        <pt x="403" y="-4" on="0"/>
        <pt x="375" y="-4" on="1"/>
        <pt x="319" y="-4" on="0"/>
        <pt x="308" y="42" on="1"/>
        <pt x="248" y="-10" on="0"/>
        <pt x="173" y="-10" on="1"/>
        <pt x="115" y="-10" on="0"/>
        <pt x="38" y="62" on="0"/>
        <pt x="38" y="132" on="1"/>
        <pt x="38" y="188" on="0"/>
        <pt x="86" y="242" on="0"/>
        <pt x="126" y="255" on="1"/>
        <pt x="186" y="274" on="0"/>
      </contour>
      <contour>
        <pt x="335" y="520" on="1"/>
        <pt x="305" y="520" on="0"/>
        <pt x="263" y="560" on="0"/>
        <pt x="263" y="591" on="1"/>
        <pt x="263" y="621" on="0"/>
        <pt x="307" y="662" on="0"/>
        <pt x="337" y="662" on="1"/>
        <pt x="366" y="662" on="0"/>
        <pt x="408" y="621" on="0"/>
        <pt x="408" y="561" on="0"/>
        <pt x="364" y="520" on="0"/>
      </contour>
      <contour>
        <pt x="145" y="520" on="1"/>
        <pt x="115" y="520" on="0"/>
        <pt x="73" y="560" on="0"/>
        <pt x="73" y="591" on="1"/>
        <pt x="73" y="621" on="0"/>
        <pt x="117" y="662" on="0"/>
        <pt x="147" y="662" on="1"/>
        <pt x="176" y="662" on="0"/>
        <pt x="218" y="621" on="0"/>
        <pt x="218" y="561" on="0"/>
        <pt x="174" y="520" on="0"/>
      </contour>
    </TTGlyph>
    <TTGlyph name="adieresis_alt" xMin="38" yMin="-10" xMax="492" yMax="662">
      <contour>
        <pt x="242" y="-10" on="1"/>
        <pt x="158" y="-10" on="0"/>
        <pt x="38" y="131" on="0"/>
        <pt x="38" y="237" on="1"/>
        <pt x="38" y="352" on="0"/>
        <pt x="170" y="485" on="0"/>
        <pt x="269" y="485" on="1"/>
        <pt x="389" y="485" on="0"/>
        <pt x="479" y="416" on="1"/>
        <pt x="472" y="262" on="0"/>
        <pt x="472" y="211" on="1"/>
        <pt x="472" y="68" on="0"/>
        <pt x="492" y="7" on="1"/>
        <pt x="463" y="-4" on="0"/>
        <pt x="436" y="-4" on="1"/>
        <pt x="382" y="-4" on="0"/>
        <pt x="371" y="42" on="1"/>
        <pt x="342" y="18" on="0"/>
        <pt x="271" y="-10" on="0"/>
      </contour>
      <contour>
        <pt x="269" y="64" on="1"/>
        <pt x="331" y="64" on="0"/>
        <pt x="368" y="99" on="1"/>
        <pt x="367" y="123" on="0"/>
        <pt x="367" y="170" on="1"/>
        <pt x="367" y="263" on="0"/>
        <pt x="371" y="367" on="1"/>
        <pt x="327" y="412" on="0"/>
        <pt x="264" y="412" on="1"/>
        <pt x="215" y="412" on="0"/>
        <pt x="147" y="324" on="0"/>
        <pt x="147" y="256" on="1"/>
        <pt x="147" y="168" on="0"/>
        <pt x="216" y="64" on="0"/>
      </contour>
      <contour>
        <pt x="372" y="520" on="1"/>
        <pt x="342" y="520" on="0"/>
        <pt x="300" y="560" on="0"/>
        <pt x="300" y="591" on="1"/>
        <pt x="300" y="621" on="0"/>
        <pt x="344" y="662" on="0"/>
        <pt x="374" y="662" on="1"/>
        <pt x="403" y="662" on="0"/>
        <pt x="445" y="621" on="0"/>
        <pt x="445" y="561" on="0"/>
        <pt x="401" y="520" on="0"/>
      </contour>
      <contour>
        <pt x="182" y="520" on="1"/>
        <pt x="152" y="520" on="0"/>
        <pt x="110" y="560" on="0"/>
        <pt x="110" y="591" on="1"/>
        <pt x="110" y="621" on="0"/>
        <pt x="154" y="662" on="0"/>
        <pt x="184" y="662" on="1"/>
        <pt x="213" y="662" on="0"/>
        <pt x="255" y="621" on="0"/>
        <pt x="255" y="561" on="0"/>
        <pt x="211" y="520" on="0"/>
      </contour>
    </TTGlyph>
    <TTGlyph name="ae" xMin="38" yMin="-10" xMax="714" yMax="485">
      <contour>
        <pt x="218" y="61" on="1"/>
        <pt x="275" y="61" on="0"/>
        <pt x="328" y="120" on="1"/>
        <pt x="311" y="155" on="0"/>
        <pt x="305" y="215" on="1"/>
        <pt x="265" y="210" on="0"/>
        <pt x="221" y="202" on="0"/>
        <pt x="170" y="185" on="0"/>
        <pt x="147" y="158" on="0"/>
        <pt x="147" y="139" on="1"/>
        <pt x="147" y="99" on="0"/>
        <pt x="187" y="61" on="0"/>
      </contour>
      <contour>
        <pt x="533" y="412" on="1"/>
        <pt x="486" y="412" on="0"/>
        <pt x="420" y="340" on="0"/>
        <pt x="414" y="262" on="1"/>
        <pt x="478" y="262" on="0"/>
        <pt x="508" y="265" on="1"/>
        <pt x="605" y="277" on="0"/>
        <pt x="605" y="341" on="1"/>
        <pt x="605" y="370" on="0"/>
        <pt x="564" y="412" on="0"/>
      </contour>
      <contour>
        <pt x="490" y="197" on="1"/>
        <pt x="463" y="197" on="0"/>
        <pt x="417" y="199" on="1"/>
        <pt x="427" y="128" on="0"/>
        <pt x="498" y="62" on="0"/>
        <pt x="550" y="62" on="1"/>
        <pt x="577" y="62" on="0"/>
        <pt x="635" y="90" on="0"/>
        <pt x="649" y="116" on="1"/>
        <pt x="698" y="90" on="0"/>
        <pt x="698" y="60" on="1"/>
        <pt x="698" y="26" on="0"/>
        <pt x="604" y="-10" on="0"/>
        <pt x="546" y="-10" on="1"/>
        <pt x="491" y="-10" on="0"/>
        <pt x="388" y="34" on="0"/>
        <pt x="354" y="78" on="1"/>
        <pt x="268" y="-10" on="0"/>
        <pt x="173" y="-10" on="1"/>
        <pt x="115" y="-10" on="0"/>
        <pt x="38" y="62" on="0"/>
        <pt x="38" y="132" on="1"/>
        <pt x="38" y="188" on="0"/>
        <pt x="86" y="242" on="0"/>
        <pt x="126" y="255" on="1"/>
        <pt x="186" y="274" on="0"/>
        <pt x="307" y="275" on="1"/>
        <pt x="307" y="309" on="0"/>
        <pt x="304" y="345" on="0"/>
        <pt x="291" y="391" on="0"/>
        <pt x="260" y="412" on="0"/>
        <pt x="234" y="412" on="1"/>
        <pt x="201" y="412" on="0"/>
        <pt x="142" y="369" on="0"/>
        <pt x="129" y="331" on="1"/>
        <pt x="40" y="332" on="0"/>
        <pt x="40" y="384" on="1"/>
        <pt x="40" y="427" on="0"/>
        <pt x="161" y="485" on="0"/>
        <pt x="238" y="485" on="1"/>
        <pt x="294" y="485" on="0"/>
        <pt x="366" y="456" on="0"/>
        <pt x="387" y="420" on="1"/>
        <pt x="448" y="485" on="0"/>
        <pt x="542" y="485" on="1"/>
        <pt x="619" y="485" on="0"/>
        <pt x="714" y="401" on="0"/>
        <pt x="714" y="343" on="1"/>
        <pt x="714" y="296" on="0"/>
        <pt x="679" y="235" on="0"/>
        <pt x="611" y="207" on="0"/>
        <pt x="541" y="197" on="0"/>
      </contour>
    </TTGlyph>
    <TTGlyph name="agrave" xMin="38" yMin="-10" xMax="432" yMax="722">
      <contour>
        <pt x="128" y="722" on="1"/>
        <pt x="168" y="679" on="0"/>
        <pt x="256" y="613" on="0"/>
        <pt x="295" y="583" on="0"/>
        <pt x="295" y="567" on="1"/>
        <pt x="295" y="544" on="0"/>
        <pt x="263" y="523" on="1"/>
        <pt x="232" y="546" on="0"/>
        <pt x="129" y="601" on="0"/>
        <pt x="76" y="640" on="0"/>
        <pt x="76" y="661" on="1"/>
        <pt x="76" y="696" on="0"/>
      </contour>
      <contour>
        <pt x="303" y="143" on="1"/>
        <pt x="303" y="189" on="0"/>
        <pt x="305" y="214" on="1"/>
        <pt x="275" y="210" on="0"/>
        <pt x="248" y="206" on="0"/>
        <pt x="202" y="198" on="0"/>
        <pt x="181" y="188" on="0"/>
        <pt x="157" y="174" on="0"/>
        <pt x="147" y="153" on="0"/>
        <pt x="147" y="139" on="1"/>
        <pt x="147" y="99" on="0"/>
        <pt x="187" y="61" on="0"/>
        <pt x="218" y="61" on="1"/>
        <pt x="269" y="61" on="0"/>
        <pt x="305" y="99" on="1"/>
        <pt x="303" y="112" on="0"/>
      </contour>
      <contour>
        <pt x="307" y="275" on="1"/>
        <pt x="307" y="309" on="0"/>
        <pt x="304" y="345" on="0"/>
        <pt x="291" y="391" on="0"/>
        <pt x="260" y="412" on="0"/>
        <pt x="234" y="412" on="1"/>
        <pt x="201" y="412" on="0"/>
        <pt x="142" y="369" on="0"/>
        <pt x="129" y="331" on="1"/>
        <pt x="40" y="332" on="0"/>
        <pt x="40" y="384" on="1"/>
        <pt x="40" y="427" on="0"/>
        <pt x="161" y="485" on="0"/>
        <pt x="238" y="485" on="1"/>
        <pt x="330" y="485" on="0"/>
        <pt x="415" y="409" on="0"/>
        <pt x="415" y="311" on="1"/>
        <pt x="415" y="308" on="0"/>
        <pt x="413" y="220" on="0"/>
        <pt x="413" y="178" on="1"/>
        <pt x="413" y="64" on="0"/>
        <pt x="432" y="7" on="1"/>
        <pt x="403" y="-4" on="0"/>
        <pt x="375" y="-4" on="1"/>
        <pt x="319" y="-4" on="0"/>
        <pt x="308" y="42" on="1"/>
        <pt x="248" y="-10" on="0"/>
        <pt x="173" y="-10" on="1"/>
        <pt x="115" y="-10" on="0"/>
        <pt x="38" y="62" on="0"/>
        <pt x="38" y="132" on="1"/>
        <pt x="38" y="188" on="0"/>
        <pt x="86" y="242" on="0"/>
        <pt x="126" y="255" on="1"/>
        <pt x="186" y="274" on="0"/>
      </contour>
    </TTGlyph>
    <TTGlyph name="agrave_alt" xMin="38" yMin="-10" xMax="492" yMax="722">
      <contour>
        <pt x="242" y="-10" on="1"/>
        <pt x="158" y="-10" on="0"/>
        <pt x="38" y="131" on="0"/>
        <pt x="38" y="237" on="1"/>
        <pt x="38" y="352" on="0"/>
        <pt x="170" y="485" on="0"/>
        <pt x="269" y="485" on="1"/>
        <pt x="389" y="485" on="0"/>
        <pt x="479" y="416" on="1"/>
        <pt x="472" y="262" on="0"/>
        <pt x="472" y="211" on="1"/>
        <pt x="472" y="68" on="0"/>
        <pt x="492" y="7" on="1"/>
        <pt x="463" y="-4" on="0"/>
        <pt x="436" y="-4" on="1"/>
        <pt x="382" y="-4" on="0"/>
        <pt x="371" y="42" on="1"/>
        <pt x="342" y="18" on="0"/>
        <pt x="271" y="-10" on="0"/>
      </contour>
      <contour>
        <pt x="269" y="64" on="1"/>
        <pt x="331" y="64" on="0"/>
        <pt x="368" y="99" on="1"/>
        <pt x="367" y="123" on="0"/>
        <pt x="367" y="170" on="1"/>
        <pt x="367" y="263" on="0"/>
        <pt x="371" y="367" on="1"/>
        <pt x="327" y="412" on="0"/>
        <pt x="264" y="412" on="1"/>
        <pt x="215" y="412" on="0"/>
        <pt x="147" y="324" on="0"/>
        <pt x="147" y="256" on="1"/>
        <pt x="147" y="168" on="0"/>
        <pt x="216" y="64" on="0"/>
      </contour>
      <contour>
        <pt x="178" y="722" on="1"/>
        <pt x="218" y="679" on="0"/>
        <pt x="306" y="613" on="0"/>
        <pt x="345" y="583" on="0"/>
        <pt x="345" y="567" on="1"/>
        <pt x="345" y="544" on="0"/>
        <pt x="313" y="523" on="1"/>
        <pt x="282" y="546" on="0"/>
        <pt x="179" y="601" on="0"/>
        <pt x="126" y="640" on="0"/>
        <pt x="126" y="661" on="1"/>
        <pt x="126" y="696" on="0"/>
      </contour>
    </TTGlyph>
    <TTGlyph name="ampersand" xMin="42" yMin="-10" xMax="605" yMax="673">
      <contour>
        <pt x="320" y="524" on="1"/>
        <pt x="320" y="558" on="0"/>
        <pt x="286" y="607" on="0"/>
        <pt x="251" y="607" on="1"/>
        <pt x="175" y="607" on="0"/>
        <pt x="175" y="527" on="1"/>
        <pt x="175" y="484" on="0"/>
        <pt x="228" y="397" on="1"/>
        <pt x="273" y="427" on="0"/>
        <pt x="320" y="485" on="0"/>
      </contour>
      <contour>
        <pt x="194" y="285" on="1"/>
        <pt x="148" y="237" on="0"/>
        <pt x="148" y="183" on="1"/>
        <pt x="148" y="128" on="0"/>
        <pt x="221" y="62" on="0"/>
        <pt x="280" y="62" on="1"/>
        <pt x="324" y="62" on="0"/>
        <pt x="359" y="85" on="1"/>
        <pt x="283" y="162" on="0"/>
      </contour>
      <contour>
        <pt x="523" y="239" on="1"/>
        <pt x="523" y="167" on="0"/>
        <pt x="491" y="111" on="1"/>
        <pt x="553" y="71" on="0"/>
        <pt x="603" y="71" on="1"/>
        <pt x="605" y="59" on="0"/>
        <pt x="605" y="46" on="1"/>
        <pt x="605" y="22" on="0"/>
        <pt x="562" y="-10" on="0"/>
        <pt x="516" y="-10" on="1"/>
        <pt x="476" y="-10" on="0"/>
        <pt x="417" y="33" on="1"/>
        <pt x="350" y="-10" on="0"/>
        <pt x="266" y="-10" on="1"/>
        <pt x="175" y="-10" on="0"/>
        <pt x="42" y="85" on="0"/>
        <pt x="42" y="169" on="1"/>
        <pt x="42" y="229" on="0"/>
        <pt x="100" y="311" on="0"/>
        <pt x="151" y="347" on="1"/>
        <pt x="128" y="381" on="0"/>
        <pt x="103" y="423" on="1"/>
        <pt x="79" y="463" on="0"/>
        <pt x="79" y="518" on="1"/>
        <pt x="79" y="589" on="0"/>
        <pt x="182" y="673" on="0"/>
        <pt x="262" y="673" on="1"/>
        <pt x="335" y="673" on="0"/>
        <pt x="417" y="598" on="0"/>
        <pt x="417" y="546" on="1"/>
        <pt x="417" y="509" on="0"/>
        <pt x="391" y="446" on="0"/>
        <pt x="336" y="392" on="0"/>
        <pt x="299" y="364" on="0"/>
        <pt x="265" y="341" on="1"/>
        <pt x="332" y="244" on="0"/>
        <pt x="417" y="168" on="1"/>
        <pt x="424" y="198" on="0"/>
        <pt x="424" y="224" on="1"/>
        <pt x="424" y="267" on="0"/>
        <pt x="415" y="286" on="1"/>
        <pt x="439" y="298" on="0"/>
        <pt x="462" y="298" on="1"/>
        <pt x="523" y="298" on="0"/>
      </contour>
    </TTGlyph>
    <TTGlyph name="apple" xMin="80" yMin="-1" xMax="736" yMax="688">
      <contour>
        <pt x="713" y="162" on="1"/>
        <pt x="721" y="132" on="0"/>
        <pt x="724" y="117" on="1"/>
        <pt x="736" y="62" on="0"/>
        <pt x="736" y="6" on="1"/>
        <pt x="736" y="-1" on="0"/>
        <pt x="729" y="-1" on="1"/>
        <pt x="703" y="-1" on="1"/>
        <pt x="697" y="-1" on="0"/>
        <pt x="697" y="5" on="1"/>
        <pt x="697" y="12" on="0"/>
        <pt x="704" y="12" on="1"/>
        <pt x="723" y="12" on="1"/>
        <pt x="723" y="59" on="0"/>
        <pt x="705" y="137" on="1"/>
        <pt x="700" y="159" on="1"/>
        <pt x="696" y="179" on="0"/>
        <pt x="660" y="211" on="0"/>
        <pt x="631" y="214" on="1"/>
        <pt x="588" y="218" on="0"/>
        <pt x="533" y="236" on="1"/>
        <pt x="519" y="241" on="0"/>
        <pt x="518" y="243" on="1"/>
        <pt x="517" y="249" on="0"/>
        <pt x="514" y="289" on="0"/>
        <pt x="513" y="296" on="1"/>
        <pt x="486" y="296" on="0"/>
        <pt x="460" y="309" on="1"/>
        <pt x="457" y="310" on="0"/>
        <pt x="457" y="322" on="0"/>
        <pt x="464" y="322" on="1"/>
        <pt x="465" y="322" on="0"/>
        <pt x="498" y="309" on="0"/>
        <pt x="522" y="309" on="1"/>
        <pt x="542" y="309" on="0"/>
        <pt x="549" y="316" on="1"/>
        <pt x="553" y="321" on="0"/>
        <pt x="570" y="430" on="0"/>
        <pt x="577" y="445" on="1"/>
        <pt x="581" y="458" on="0"/>
        <pt x="581" y="510" on="1"/>
        <pt x="581" y="556" on="0"/>
        <pt x="577" y="576" on="1"/>
        <pt x="559" y="673" on="0"/>
        <pt x="447" y="673" on="1"/>
        <pt x="363" y="673" on="0"/>
        <pt x="269" y="588" on="0"/>
        <pt x="269" y="512" on="1"/>
        <pt x="269" y="447" on="0"/>
        <pt x="314" y="358" on="0"/>
        <pt x="353" y="348" on="1"/>
        <pt x="359" y="346" on="0"/>
        <pt x="359" y="334" on="0"/>
        <pt x="353" y="241" on="0"/>
        <pt x="352" y="239" on="1"/>
        <pt x="350" y="237" on="0"/>
        <pt x="348" y="237" on="1"/>
        <pt x="322" y="237" on="0"/>
        <pt x="261" y="214" on="1"/>
        <pt x="208" y="193" on="0"/>
        <pt x="186" y="190" on="1"/>
        <pt x="130" y="182" on="0"/>
        <pt x="118" y="136" on="1"/>
        <pt x="111" y="107" on="1"/>
        <pt x="97" y="47" on="0"/>
        <pt x="94" y="12" on="1"/>
        <pt x="236" y="12" on="1"/>
        <pt x="243" y="12" on="0"/>
        <pt x="243" y="6" on="1"/>
        <pt x="243" y="-1" on="0"/>
        <pt x="236" y="-1" on="1"/>
        <pt x="87" y="-1" on="1"/>
        <pt x="80" y="-1" on="0"/>
        <pt x="80" y="6" on="1"/>
        <pt x="83" y="48" on="0"/>
        <pt x="98" y="108" on="1"/>
        <pt x="106" y="138" on="1"/>
        <pt x="110" y="162" on="0"/>
        <pt x="153" y="201" on="0"/>
        <pt x="185" y="205" on="1"/>
        <pt x="207" y="208" on="0"/>
        <pt x="266" y="230" on="1"/>
        <pt x="318" y="249" on="0"/>
        <pt x="341" y="250" on="1"/>
        <pt x="345" y="306" on="0"/>
        <pt x="346" y="336" on="1"/>
        <pt x="303" y="350" on="0"/>
        <pt x="256" y="443" on="0"/>
        <pt x="256" y="512" on="1"/>
        <pt x="256" y="595" on="0"/>
        <pt x="356" y="688" on="0"/>
        <pt x="447" y="688" on="1"/>
        <pt x="568" y="688" on="0"/>
        <pt x="592" y="579" on="1"/>
        <pt x="595" y="561" on="0"/>
        <pt x="595" y="527" on="1"/>
        <pt x="595" y="467" on="0"/>
        <pt x="590" y="440" on="1"/>
        <pt x="577" y="408" on="0"/>
        <pt x="572" y="358" on="1"/>
        <pt x="567" y="319" on="0"/>
        <pt x="556" y="306" on="1"/>
        <pt x="548" y="297" on="0"/>
        <pt x="526" y="295" on="1"/>
        <pt x="527" y="286" on="0"/>
        <pt x="530" y="253" on="0"/>
        <pt x="530" y="250" on="1"/>
        <pt x="591" y="232" on="0"/>
        <pt x="634" y="227" on="1"/>
        <pt x="665" y="224" on="0"/>
        <pt x="707" y="185" on="0"/>
      </contour>
      <contour>
        <pt x="507" y="563" on="1"/>
        <pt x="512" y="558" on="1"/>
        <pt x="494" y="530" on="1"/>
        <pt x="481" y="541" on="1"/>
      </contour>
      <contour>
        <pt x="515" y="558" on="1"/>
        <pt x="520" y="563" on="1"/>
        <pt x="546" y="541" on="1"/>
        <pt x="533" y="530" on="1"/>
      </contour>
      <contour>
        <pt x="517" y="574" on="1"/>
        <pt x="510" y="574" on="1"/>
        <pt x="505" y="605" on="1"/>
        <pt x="522" y="605" on="1"/>
      </contour>
      <contour>
        <pt x="509" y="572" on="1"/>
        <pt x="506" y="565" on="1"/>
        <pt x="475" y="572" on="1"/>
        <pt x="481" y="587" on="1"/>
      </contour>
      <contour>
        <pt x="520" y="565" on="1"/>
        <pt x="518" y="572" on="1"/>
        <pt x="546" y="587" on="1"/>
        <pt x="552" y="572" on="1"/>
      </contour>
    </TTGlyph>
    <TTGlyph name="approxequal" xMin="8" yMin="73" xMax="526" yMax="420">
      <contour>
        <pt x="526" y="171" on="1"/>
        <pt x="526" y="139" on="0"/>
        <pt x="448" y="73" on="0"/>
        <pt x="392" y="73" on="1"/>
        <pt x="346" y="73" on="0"/>
        <pt x="249" y="111" on="0"/>
        <pt x="172" y="149" on="0"/>
        <pt x="151" y="149" on="1"/>
        <pt x="131" y="149" on="0"/>
        <pt x="95" y="126" on="0"/>
        <pt x="78" y="104" on="0"/>
        <pt x="65" y="84" on="1"/>
        <pt x="38" y="91" on="0"/>
        <pt x="8" y="116" on="0"/>
        <pt x="8" y="128" on="1"/>
        <pt x="8" y="159" on="0"/>
        <pt x="87" y="225" on="0"/>
        <pt x="143" y="225" on="1"/>
        <pt x="190" y="225" on="0"/>
        <pt x="282" y="187" on="0"/>
        <pt x="356" y="149" on="0"/>
        <pt x="384" y="149" on="1"/>
        <pt x="404" y="149" on="0"/>
        <pt x="439" y="172" on="0"/>
        <pt x="457" y="195" on="0"/>
        <pt x="470" y="215" on="1"/>
        <pt x="496" y="207" on="0"/>
        <pt x="526" y="182" on="0"/>
      </contour>
      <contour>
        <pt x="526" y="366" on="1"/>
        <pt x="526" y="334" on="0"/>
        <pt x="448" y="268" on="0"/>
        <pt x="392" y="268" on="1"/>
        <pt x="346" y="268" on="0"/>
        <pt x="249" y="306" on="0"/>
        <pt x="172" y="344" on="0"/>
        <pt x="151" y="344" on="1"/>
        <pt x="131" y="344" on="0"/>
        <pt x="95" y="321" on="0"/>
        <pt x="78" y="299" on="0"/>
        <pt x="65" y="279" on="1"/>
        <pt x="38" y="286" on="0"/>
        <pt x="8" y="311" on="0"/>
        <pt x="8" y="323" on="1"/>
        <pt x="8" y="354" on="0"/>
        <pt x="87" y="420" on="0"/>
        <pt x="143" y="420" on="1"/>
        <pt x="190" y="420" on="0"/>
        <pt x="282" y="382" on="0"/>
        <pt x="356" y="344" on="0"/>
        <pt x="384" y="344" on="1"/>
        <pt x="404" y="344" on="0"/>
        <pt x="439" y="367" on="0"/>
        <pt x="457" y="390" on="0"/>
        <pt x="470" y="410" on="1"/>
        <pt x="496" y="402" on="0"/>
        <pt x="526" y="377" on="0"/>
      </contour>
    </TTGlyph>
    <TTGlyph name="aring" xMin="38" yMin="-10" xMax="432" yMax="710">
      <contour>
        <pt x="262" y="610" on="1"/>
        <pt x="262" y="633" on="0"/>
        <pt x="243" y="662" on="0"/>
        <pt x="226" y="662" on="1"/>
        <pt x="188" y="662" on="0"/>
        <pt x="188" y="619" on="1"/>
        <pt x="188" y="597" on="0"/>
        <pt x="209" y="568" on="0"/>
        <pt x="226" y="568" on="1"/>
        <pt x="262" y="568" on="0"/>
      </contour>
      <contour>
        <pt x="268" y="520" on="0"/>
        <pt x="184" y="520" on="0"/>
        <pt x="131" y="572" on="0"/>
        <pt x="131" y="658" on="0"/>
        <pt x="184" y="710" on="0"/>
        <pt x="268" y="710" on="0"/>
        <pt x="319" y="658" on="0"/>
        <pt x="319" y="572" on="0"/>
      </contour>
      <contour>
        <pt x="303" y="143" on="1"/>
        <pt x="303" y="189" on="0"/>
        <pt x="305" y="214" on="1"/>
        <pt x="275" y="210" on="0"/>
        <pt x="248" y="206" on="0"/>
        <pt x="202" y="198" on="0"/>
        <pt x="181" y="188" on="0"/>
        <pt x="157" y="174" on="0"/>
        <pt x="147" y="153" on="0"/>
        <pt x="147" y="139" on="1"/>
        <pt x="147" y="99" on="0"/>
        <pt x="187" y="61" on="0"/>
        <pt x="218" y="61" on="1"/>
        <pt x="269" y="61" on="0"/>
        <pt x="305" y="99" on="1"/>
        <pt x="303" y="112" on="0"/>
      </contour>
      <contour>
        <pt x="307" y="275" on="1"/>
        <pt x="307" y="309" on="0"/>
        <pt x="304" y="345" on="0"/>
        <pt x="291" y="391" on="0"/>
        <pt x="260" y="412" on="0"/>
        <pt x="234" y="412" on="1"/>
        <pt x="201" y="412" on="0"/>
        <pt x="142" y="369" on="0"/>
        <pt x="129" y="331" on="1"/>
        <pt x="40" y="332" on="0"/>
        <pt x="40" y="384" on="1"/>
        <pt x="40" y="427" on="0"/>
        <pt x="161" y="485" on="0"/>
        <pt x="238" y="485" on="1"/>
        <pt x="330" y="485" on="0"/>
        <pt x="415" y="409" on="0"/>
        <pt x="415" y="311" on="1"/>
        <pt x="415" y="308" on="0"/>
        <pt x="413" y="220" on="0"/>
        <pt x="413" y="178" on="1"/>
        <pt x="413" y="64" on="0"/>
        <pt x="432" y="7" on="1"/>
        <pt x="403" y="-4" on="0"/>
        <pt x="375" y="-4" on="1"/>
        <pt x="319" y="-4" on="0"/>
        <pt x="308" y="42" on="1"/>
        <pt x="248" y="-10" on="0"/>
        <pt x="173" y="-10" on="1"/>
        <pt x="115" y="-10" on="0"/>
        <pt x="38" y="62" on="0"/>
        <pt x="38" y="132" on="1"/>
        <pt x="38" y="188" on="0"/>
        <pt x="86" y="242" on="0"/>
        <pt x="126" y="255" on="1"/>
        <pt x="186" y="274" on="0"/>
      </contour>
    </TTGlyph>
    <TTGlyph name="aring_alt" xMin="38" yMin="-10" xMax="492" yMax="710">
      <contour>
        <pt x="242" y="-10" on="1"/>
        <pt x="158" y="-10" on="0"/>
        <pt x="38" y="131" on="0"/>
        <pt x="38" y="237" on="1"/>
        <pt x="38" y="352" on="0"/>
        <pt x="170" y="485" on="0"/>
        <pt x="269" y="485" on="1"/>
        <pt x="389" y="485" on="0"/>
        <pt x="479" y="416" on="1"/>
        <pt x="472" y="262" on="0"/>
        <pt x="472" y="211" on="1"/>
        <pt x="472" y="68" on="0"/>
        <pt x="492" y="7" on="1"/>
        <pt x="463" y="-4" on="0"/>
        <pt x="436" y="-4" on="1"/>
        <pt x="382" y="-4" on="0"/>
        <pt x="371" y="42" on="1"/>
        <pt x="342" y="18" on="0"/>
        <pt x="271" y="-10" on="0"/>
      </contour>
      <contour>
        <pt x="269" y="64" on="1"/>
        <pt x="331" y="64" on="0"/>
        <pt x="368" y="99" on="1"/>
        <pt x="367" y="123" on="0"/>
        <pt x="367" y="170" on="1"/>
        <pt x="367" y="263" on="0"/>
        <pt x="371" y="367" on="1"/>
        <pt x="327" y="412" on="0"/>
        <pt x="264" y="412" on="1"/>
        <pt x="215" y="412" on="0"/>
        <pt x="147" y="324" on="0"/>
        <pt x="147" y="256" on="1"/>
        <pt x="147" y="168" on="0"/>
        <pt x="216" y="64" on="0"/>
      </contour>
      <contour>
        <pt x="302" y="610" on="1"/>
        <pt x="302" y="633" on="0"/>
        <pt x="283" y="662" on="0"/>
        <pt x="266" y="662" on="1"/>
        <pt x="228" y="662" on="0"/>
        <pt x="228" y="619" on="1"/>
        <pt x="228" y="597" on="0"/>
        <pt x="249" y="568" on="0"/>
        <pt x="266" y="568" on="1"/>
        <pt x="302" y="568" on="0"/>
      </contour>
      <contour>
        <pt x="308" y="520" on="0"/>
        <pt x="224" y="520" on="0"/>
        <pt x="171" y="572" on="0"/>
        <pt x="171" y="658" on="0"/>
        <pt x="224" y="710" on="0"/>
        <pt x="308" y="710" on="0"/>
        <pt x="359" y="658" on="0"/>
        <pt x="359" y="572" on="0"/>
      </contour>
    </TTGlyph>
    <TTGlyph name="asciicircum" xMin="21" yMin="408" xMax="467" yMax="685">
      <contour>
        <pt x="424" y="408" on="1"/>
        <pt x="386" y="408" on="0"/>
        <pt x="244" y="558" on="1"/>
        <pt x="193" y="504" on="0"/>
        <pt x="86" y="408" on="0"/>
        <pt x="44" y="408" on="0"/>
        <pt x="21" y="431" on="1"/>
        <pt x="44" y="470" on="0"/>
        <pt x="195" y="637" on="0"/>
        <pt x="244" y="685" on="1"/>
        <pt x="291" y="639" on="0"/>
        <pt x="443" y="470" on="0"/>
        <pt x="467" y="431" on="1"/>
        <pt x="442" y="408" on="0"/>
      </contour>
    </TTGlyph>
    <TTGlyph name="asciitilde" xMin="34" yMin="201" xMax="523" yMax="344">
      <contour>
        <pt x="34" y="269" on="1"/>
        <pt x="34" y="337" on="0"/>
        <pt x="157" y="337" on="1"/>
        <pt x="214" y="337" on="0"/>
        <pt x="360" y="298" on="0"/>
        <pt x="398" y="298" on="1"/>
        <pt x="444" y="298" on="0"/>
        <pt x="491" y="344" on="1"/>
        <pt x="523" y="304" on="0"/>
        <pt x="523" y="277" on="1"/>
        <pt x="523" y="241" on="0"/>
        <pt x="451" y="208" on="0"/>
        <pt x="398" y="208" on="1"/>
        <pt x="362" y="208" on="0"/>
        <pt x="213" y="247" on="0"/>
        <pt x="173" y="247" on="1"/>
        <pt x="113" y="247" on="0"/>
        <pt x="67" y="201" on="1"/>
        <pt x="34" y="244" on="0"/>
      </contour>
    </TTGlyph>
    <TTGlyph name="asterisk" xMin="30" yMin="392" xMax="383" yMax="743">
      <contour>
        <pt x="265" y="697" on="1"/>
        <pt x="265" y="673" on="0"/>
        <pt x="251" y="617" on="1"/>
        <pt x="316" y="663" on="0"/>
        <pt x="339" y="686" on="1"/>
        <pt x="383" y="648" on="0"/>
        <pt x="383" y="620" on="1"/>
        <pt x="383" y="577" on="0"/>
        <pt x="260" y="546" on="1"/>
        <pt x="301" y="508" on="0"/>
        <pt x="369" y="457" on="1"/>
        <pt x="358" y="437" on="0"/>
        <pt x="320" y="409" on="0"/>
        <pt x="298" y="409" on="1"/>
        <pt x="274" y="409" on="0"/>
        <pt x="236" y="456" on="0"/>
        <pt x="209" y="507" on="1"/>
        <pt x="204" y="498" on="0"/>
        <pt x="156" y="411" on="0"/>
        <pt x="144" y="392" on="1"/>
        <pt x="115" y="402" on="0"/>
        <pt x="70" y="437" on="0"/>
        <pt x="70" y="456" on="1"/>
        <pt x="70" y="484" on="0"/>
        <pt x="159" y="549" on="1"/>
        <pt x="61" y="584" on="0"/>
        <pt x="30" y="593" on="1"/>
        <pt x="34" y="620" on="0"/>
        <pt x="68" y="664" on="0"/>
        <pt x="93" y="664" on="1"/>
        <pt x="109" y="664" on="0"/>
        <pt x="157" y="638" on="0"/>
        <pt x="174" y="620" on="1"/>
        <pt x="161" y="701" on="0"/>
        <pt x="154" y="734" on="1"/>
        <pt x="185" y="743" on="0"/>
        <pt x="203" y="743" on="1"/>
        <pt x="265" y="743" on="0"/>
      </contour>
    </TTGlyph>
    <TTGlyph name="at" xMin="76" yMin="-109" xMax="778" yMax="590">
      <contour>
        <pt x="354" y="54" on="1"/>
        <pt x="304" y="54" on="0"/>
        <pt x="239" y="128" on="0"/>
        <pt x="239" y="196" on="1"/>
        <pt x="239" y="298" on="0"/>
        <pt x="351" y="443" on="0"/>
        <pt x="433" y="443" on="1"/>
        <pt x="526" y="443" on="0"/>
        <pt x="593" y="397" on="1"/>
        <pt x="556" y="258" on="0"/>
        <pt x="556" y="184" on="1"/>
        <pt x="556" y="132" on="0"/>
        <pt x="588" y="132" on="1"/>
        <pt x="621" y="132" on="0"/>
        <pt x="681" y="230" on="0"/>
        <pt x="681" y="312" on="1"/>
        <pt x="681" y="411" on="0"/>
        <pt x="577" y="520" on="0"/>
        <pt x="469" y="520" on="1"/>
        <pt x="381" y="520" on="0"/>
        <pt x="241" y="416" on="0"/>
        <pt x="171" y="265" on="0"/>
        <pt x="171" y="186" on="1"/>
        <pt x="171" y="92" on="0"/>
        <pt x="286" y="-33" on="0"/>
        <pt x="398" y="-33" on="1"/>
        <pt x="501" y="-33" on="0"/>
        <pt x="531" y="30" on="1"/>
        <pt x="589" y="11" on="0"/>
        <pt x="589" y="-21" on="1"/>
        <pt x="589" y="-60" on="0"/>
        <pt x="475" y="-109" on="0"/>
        <pt x="390" y="-109" on="1"/>
        <pt x="236" y="-109" on="0"/>
        <pt x="76" y="57" on="0"/>
        <pt x="76" y="180" on="1"/>
        <pt x="76" y="253" on="0"/>
        <pt x="133" y="397" on="0"/>
        <pt x="236" y="516" on="0"/>
        <pt x="395" y="590" on="0"/>
        <pt x="489" y="590" on="1"/>
        <pt x="621" y="590" on="0"/>
        <pt x="778" y="447" on="0"/>
        <pt x="778" y="337" on="1"/>
        <pt x="778" y="228" on="0"/>
        <pt x="642" y="69" on="0"/>
        <pt x="570" y="69" on="1"/>
        <pt x="503" y="69" on="0"/>
        <pt x="483" y="146" on="1"/>
        <pt x="430" y="54" on="0"/>
      </contour>
      <contour>
        <pt x="461" y="200" on="1"/>
        <pt x="465" y="223" on="0"/>
        <pt x="477" y="330" on="0"/>
        <pt x="479" y="344" on="1"/>
        <pt x="453" y="369" on="0"/>
        <pt x="423" y="369" on="1"/>
        <pt x="385" y="369" on="0"/>
        <pt x="336" y="288" on="0"/>
        <pt x="336" y="221" on="1"/>
        <pt x="336" y="181" on="0"/>
        <pt x="360" y="130" on="0"/>
        <pt x="381" y="130" on="1"/>
        <pt x="419" y="130" on="0"/>
      </contour>
    </TTGlyph>
    <TTGlyph name="atilde" xMin="38" yMin="-10" xMax="432" yMax="649">
      <contour>
        <pt x="303" y="143" on="1"/>
        <pt x="303" y="189" on="0"/>
        <pt x="305" y="214" on="1"/>
        <pt x="275" y="210" on="0"/>
        <pt x="248" y="206" on="0"/>
        <pt x="202" y="198" on="0"/>
        <pt x="181" y="188" on="0"/>
        <pt x="157" y="174" on="0"/>
        <pt x="147" y="153" on="0"/>
        <pt x="147" y="139" on="1"/>
        <pt x="147" y="99" on="0"/>
        <pt x="187" y="61" on="0"/>
        <pt x="218" y="61" on="1"/>
        <pt x="269" y="61" on="0"/>
        <pt x="305" y="99" on="1"/>
        <pt x="303" y="112" on="0"/>
      </contour>
      <contour>
        <pt x="307" y="275" on="1"/>
        <pt x="307" y="309" on="0"/>
        <pt x="304" y="345" on="0"/>
        <pt x="291" y="391" on="0"/>
        <pt x="260" y="412" on="0"/>
        <pt x="234" y="412" on="1"/>
        <pt x="201" y="412" on="0"/>
        <pt x="142" y="369" on="0"/>
        <pt x="129" y="331" on="1"/>
        <pt x="40" y="332" on="0"/>
        <pt x="40" y="384" on="1"/>
        <pt x="40" y="427" on="0"/>
        <pt x="161" y="485" on="0"/>
        <pt x="238" y="485" on="1"/>
        <pt x="330" y="485" on="0"/>
        <pt x="415" y="409" on="0"/>
        <pt x="415" y="311" on="1"/>
        <pt x="415" y="308" on="0"/>
        <pt x="413" y="220" on="0"/>
        <pt x="413" y="178" on="1"/>
        <pt x="413" y="64" on="0"/>
        <pt x="432" y="7" on="1"/>
        <pt x="403" y="-4" on="0"/>
        <pt x="375" y="-4" on="1"/>
        <pt x="319" y="-4" on="0"/>
        <pt x="308" y="42" on="1"/>
        <pt x="248" y="-10" on="0"/>
        <pt x="173" y="-10" on="1"/>
        <pt x="115" y="-10" on="0"/>
        <pt x="38" y="62" on="0"/>
        <pt x="38" y="132" on="1"/>
        <pt x="38" y="188" on="0"/>
        <pt x="86" y="242" on="0"/>
        <pt x="126" y="255" on="1"/>
        <pt x="186" y="274" on="0"/>
      </contour>
      <contour>
        <pt x="388" y="617" on="1"/>
        <pt x="388" y="587" on="0"/>
        <pt x="321" y="531" on="0"/>
        <pt x="281" y="531" on="1"/>
        <pt x="252" y="531" on="0"/>
        <pt x="176" y="575" on="0"/>
        <pt x="169" y="575" on="1"/>
        <pt x="155" y="575" on="0"/>
        <pt x="118" y="529" on="1"/>
        <pt x="84" y="544" on="0"/>
        <pt x="84" y="567" on="1"/>
        <pt x="84" y="596" on="0"/>
        <pt x="151" y="648" on="0"/>
        <pt x="192" y="648" on="1"/>
        <pt x="216" y="648" on="0"/>
        <pt x="291" y="604" on="0"/>
        <pt x="302" y="604" on="1"/>
        <pt x="321" y="604" on="0"/>
        <pt x="353" y="649" on="1"/>
        <pt x="388" y="639" on="0"/>
      </contour>
    </TTGlyph>
    <TTGlyph name="atilde_alt" xMin="38" yMin="-10" xMax="492" yMax="649">
      <contour>
        <pt x="242" y="-10" on="1"/>
        <pt x="158" y="-10" on="0"/>
        <pt x="38" y="131" on="0"/>
        <pt x="38" y="237" on="1"/>
        <pt x="38" y="352" on="0"/>
        <pt x="170" y="485" on="0"/>
        <pt x="269" y="485" on="1"/>
        <pt x="389" y="485" on="0"/>
        <pt x="479" y="416" on="1"/>
        <pt x="472" y="262" on="0"/>
        <pt x="472" y="211" on="1"/>
        <pt x="472" y="68" on="0"/>
        <pt x="492" y="7" on="1"/>
        <pt x="463" y="-4" on="0"/>
        <pt x="436" y="-4" on="1"/>
        <pt x="382" y="-4" on="0"/>
        <pt x="371" y="42" on="1"/>
        <pt x="342" y="18" on="0"/>
        <pt x="271" y="-10" on="0"/>
      </contour>
      <contour>
        <pt x="269" y="64" on="1"/>
        <pt x="331" y="64" on="0"/>
        <pt x="368" y="99" on="1"/>
        <pt x="367" y="123" on="0"/>
        <pt x="367" y="170" on="1"/>
        <pt x="367" y="263" on="0"/>
        <pt x="371" y="367" on="1"/>
        <pt x="327" y="412" on="0"/>
        <pt x="264" y="412" on="1"/>
        <pt x="215" y="412" on="0"/>
        <pt x="147" y="324" on="0"/>
        <pt x="147" y="256" on="1"/>
        <pt x="147" y="168" on="0"/>
        <pt x="216" y="64" on="0"/>
      </contour>
      <contour>
        <pt x="427" y="617" on="1"/>
        <pt x="427" y="587" on="0"/>
        <pt x="360" y="531" on="0"/>
        <pt x="320" y="531" on="1"/>
        <pt x="291" y="531" on="0"/>
        <pt x="215" y="575" on="0"/>
        <pt x="208" y="575" on="1"/>
        <pt x="194" y="575" on="0"/>
        <pt x="157" y="529" on="1"/>
        <pt x="123" y="544" on="0"/>
        <pt x="123" y="567" on="1"/>
        <pt x="123" y="596" on="0"/>
        <pt x="190" y="648" on="0"/>
        <pt x="231" y="648" on="1"/>
        <pt x="255" y="648" on="0"/>
        <pt x="330" y="604" on="0"/>
        <pt x="341" y="604" on="1"/>
        <pt x="360" y="604" on="0"/>
        <pt x="392" y="649" on="1"/>
        <pt x="427" y="639" on="0"/>
      </contour>
    </TTGlyph>
    <TTGlyph name="b" xMin="51" yMin="-10" xMax="489" yMax="743">
      <contour>
        <pt x="380" y="248" on="1"/>
        <pt x="380" y="331" on="0"/>
        <pt x="321" y="412" on="0"/>
        <pt x="277" y="412" on="1"/>
        <pt x="219" y="412" on="0"/>
        <pt x="169" y="362" on="1"/>
        <pt x="170" y="302" on="0"/>
        <pt x="170" y="229" on="1"/>
        <pt x="170" y="161" on="0"/>
        <pt x="167" y="112" on="1"/>
        <pt x="215" y="64" on="0"/>
        <pt x="273" y="64" on="1"/>
        <pt x="327" y="64" on="0"/>
        <pt x="380" y="172" on="0"/>
      </contour>
      <contour>
        <pt x="313" y="485" on="1"/>
        <pt x="391" y="485" on="0"/>
        <pt x="489" y="368" on="0"/>
        <pt x="489" y="251" on="1"/>
        <pt x="489" y="141" on="0"/>
        <pt x="373" y="-10" on="0"/>
        <pt x="264" y="-10" on="1"/>
        <pt x="145" y="-10" on="0"/>
        <pt x="60" y="60" on="1"/>
        <pt x="67" y="119" on="0"/>
        <pt x="67" y="273" on="1"/>
        <pt x="67" y="362" on="0"/>
        <pt x="57" y="701" on="0"/>
        <pt x="51" y="739" on="1"/>
        <pt x="70" y="743" on="0"/>
        <pt x="104" y="743" on="1"/>
        <pt x="174" y="743" on="0"/>
        <pt x="174" y="689" on="1"/>
        <pt x="174" y="677" on="0"/>
        <pt x="168" y="527" on="0"/>
        <pt x="168" y="433" on="1"/>
        <pt x="232" y="485" on="0"/>
      </contour>
    </TTGlyph>
    <TTGlyph name="backslash" xMin="30" yMin="-118" xMax="228" yMax="742">
      <contour>
        <pt x="155" y="-115" on="1"/>
        <pt x="150" y="-45" on="0"/>
        <pt x="124" y="116" on="1"/>
        <pt x="83" y="380" on="0"/>
        <pt x="46" y="611" on="1"/>
        <pt x="30" y="710" on="0"/>
        <pt x="30" y="714" on="1"/>
        <pt x="30" y="742" on="0"/>
        <pt x="71" y="742" on="1"/>
        <pt x="87" y="742" on="0"/>
        <pt x="102" y="737" on="1"/>
        <pt x="114" y="621" on="0"/>
        <pt x="133" y="506" on="1"/>
        <pt x="155" y="365" on="0"/>
        <pt x="193" y="130" on="0"/>
        <pt x="211" y="16" on="0"/>
        <pt x="224" y="-65" on="0"/>
        <pt x="228" y="-88" on="0"/>
        <pt x="228" y="-90" on="1"/>
        <pt x="228" y="-118" on="0"/>
        <pt x="188" y="-118" on="1"/>
        <pt x="172" y="-118" on="0"/>
      </contour>
    </TTGlyph>
    <TTGlyph name="bar" xMin="221" yMin="-249" xMax="314" yMax="737">
      <contour>
        <pt x="229" y="-9" on="1"/>
        <pt x="229" y="564" on="1"/>
        <pt x="229" y="681" on="0"/>
        <pt x="221" y="734" on="1"/>
        <pt x="237" y="737" on="0"/>
        <pt x="267" y="737" on="1"/>
        <pt x="313" y="737" on="0"/>
        <pt x="313" y="699" on="1"/>
        <pt x="313" y="694" on="0"/>
        <pt x="306" y="560" on="0"/>
        <pt x="306" y="528" on="1"/>
        <pt x="306" y="-54" on="1"/>
        <pt x="306" y="-174" on="0"/>
        <pt x="314" y="-246" on="1"/>
        <pt x="298" y="-249" on="0"/>
        <pt x="268" y="-249" on="1"/>
        <pt x="222" y="-249" on="0"/>
        <pt x="222" y="-211" on="1"/>
        <pt x="222" y="-206" on="0"/>
        <pt x="229" y="-42" on="0"/>
      </contour>
    </TTGlyph>
    <TTGlyph name="braceleft" xMin="59" yMin="-142" xMax="390" yMax="715">
      <contour>
        <pt x="268" y="587" on="1"/>
        <pt x="268" y="391" on="1"/>
        <pt x="268" y="363" on="0"/>
        <pt x="229" y="301" on="0"/>
        <pt x="204" y="286" on="1"/>
        <pt x="230" y="270" on="0"/>
        <pt x="269" y="211" on="0"/>
        <pt x="269" y="183" on="1"/>
        <pt x="269" y="-14" on="1"/>
        <pt x="269" y="-47" on="0"/>
        <pt x="287" y="-69" on="0"/>
        <pt x="327" y="-69" on="1"/>
        <pt x="360" y="-69" on="0"/>
        <pt x="390" y="-87" on="0"/>
        <pt x="390" y="-111" on="1"/>
        <pt x="390" y="-124" on="0"/>
        <pt x="382" y="-140" on="1"/>
        <pt x="358" y="-142" on="0"/>
        <pt x="335" y="-142" on="1"/>
        <pt x="240" y="-142" on="0"/>
        <pt x="170" y="-86" on="0"/>
        <pt x="170" y="-25" on="1"/>
        <pt x="170" y="181" on="1"/>
        <pt x="170" y="207" on="0"/>
        <pt x="114" y="254" on="0"/>
        <pt x="59" y="254" on="1"/>
        <pt x="59" y="319" on="1"/>
        <pt x="114" y="319" on="0"/>
        <pt x="171" y="367" on="0"/>
        <pt x="171" y="393" on="1"/>
        <pt x="171" y="598" on="1"/>
        <pt x="171" y="659" on="0"/>
        <pt x="240" y="715" on="0"/>
        <pt x="335" y="715" on="1"/>
        <pt x="358" y="715" on="0"/>
        <pt x="382" y="713" on="1"/>
        <pt x="390" y="697" on="0"/>
        <pt x="390" y="683" on="1"/>
        <pt x="390" y="659" on="0"/>
        <pt x="360" y="641" on="0"/>
        <pt x="327" y="641" on="1"/>
        <pt x="287" y="641" on="0"/>
        <pt x="268" y="619" on="0"/>
      </contour>
    </TTGlyph>
    <TTGlyph name="braceright" xMin="25" yMin="-142" xMax="356" yMax="715">
      <contour>
        <pt x="147" y="391" on="1"/>
        <pt x="147" y="587" on="1"/>
        <pt x="147" y="619" on="0"/>
        <pt x="128" y="641" on="0"/>
        <pt x="88" y="641" on="1"/>
        <pt x="55" y="641" on="0"/>
        <pt x="25" y="659" on="0"/>
        <pt x="25" y="683" on="1"/>
        <pt x="25" y="697" on="0"/>
        <pt x="33" y="713" on="1"/>
        <pt x="57" y="715" on="0"/>
        <pt x="80" y="715" on="1"/>
        <pt x="175" y="715" on="0"/>
        <pt x="244" y="659" on="0"/>
        <pt x="244" y="598" on="1"/>
        <pt x="244" y="393" on="1"/>
        <pt x="244" y="367" on="0"/>
        <pt x="301" y="319" on="0"/>
        <pt x="356" y="319" on="1"/>
        <pt x="356" y="254" on="1"/>
        <pt x="301" y="254" on="0"/>
        <pt x="245" y="207" on="0"/>
        <pt x="245" y="181" on="1"/>
        <pt x="245" y="-25" on="1"/>
        <pt x="245" y="-86" on="0"/>
        <pt x="175" y="-142" on="0"/>
        <pt x="80" y="-142" on="1"/>
        <pt x="57" y="-142" on="0"/>
        <pt x="33" y="-140" on="1"/>
        <pt x="25" y="-124" on="0"/>
        <pt x="25" y="-111" on="1"/>
        <pt x="25" y="-87" on="0"/>
        <pt x="55" y="-69" on="0"/>
        <pt x="88" y="-69" on="1"/>
        <pt x="128" y="-69" on="0"/>
        <pt x="146" y="-47" on="0"/>
        <pt x="146" y="-14" on="1"/>
        <pt x="146" y="183" on="1"/>
        <pt x="146" y="211" on="0"/>
        <pt x="185" y="270" on="0"/>
        <pt x="211" y="286" on="1"/>
        <pt x="186" y="301" on="0"/>
        <pt x="147" y="363" on="0"/>
      </contour>
    </TTGlyph>
    <TTGlyph name="bracketleft" xMin="127" yMin="-190" xMax="346" yMax="720">
      <contour>
        <pt x="225" y="648" on="1"/>
        <pt x="225" y="-118" on="1"/>
        <pt x="254" y="-117" on="0"/>
        <pt x="286" y="-117" on="1"/>
        <pt x="319" y="-117" on="0"/>
        <pt x="346" y="-138" on="0"/>
        <pt x="346" y="-159" on="1"/>
        <pt x="346" y="-170" on="0"/>
        <pt x="339" y="-190" on="1"/>
        <pt x="127" y="-190" on="1"/>
        <pt x="127" y="720" on="1"/>
        <pt x="338" y="720" on="1"/>
        <pt x="346" y="704" on="0"/>
        <pt x="346" y="689" on="1"/>
        <pt x="346" y="665" on="0"/>
        <pt x="317" y="647" on="0"/>
        <pt x="286" y="647" on="1"/>
        <pt x="247" y="647" on="0"/>
      </contour>
    </TTGlyph>
    <TTGlyph name="bracketright" xMin="25" yMin="-190" xMax="244" yMax="720">
      <contour>
        <pt x="146" y="-118" on="1"/>
        <pt x="146" y="648" on="1"/>
        <pt x="124" y="647" on="0"/>
        <pt x="85" y="647" on="1"/>
        <pt x="54" y="647" on="0"/>
        <pt x="25" y="665" on="0"/>
        <pt x="25" y="689" on="1"/>
        <pt x="25" y="704" on="0"/>
        <pt x="33" y="720" on="1"/>
        <pt x="244" y="720" on="1"/>
        <pt x="244" y="-190" on="1"/>
        <pt x="32" y="-190" on="1"/>
        <pt x="25" y="-170" on="0"/>
        <pt x="25" y="-159" on="1"/>
        <pt x="25" y="-138" on="0"/>
        <pt x="52" y="-117" on="0"/>
        <pt x="85" y="-117" on="1"/>
        <pt x="117" y="-117" on="0"/>
      </contour>
    </TTGlyph>
    <TTGlyph name="breve" xMin="0" yMin="534" xMax="280" yMax="700">
      <contour>
        <pt x="106" y="613" on="0"/>
        <pt x="174" y="613" on="0"/>
        <pt x="210" y="655" on="0"/>
        <pt x="223" y="700" on="1"/>
        <pt x="258" y="697" on="0"/>
        <pt x="280" y="679" on="0"/>
        <pt x="280" y="662" on="1"/>
        <pt x="280" y="620" on="0"/>
        <pt x="205" y="534" on="0"/>
        <pt x="75" y="534" on="0"/>
        <pt x="0" y="620" on="0"/>
        <pt x="0" y="662" on="1"/>
        <pt x="0" y="679" on="0"/>
        <pt x="22" y="697" on="0"/>
        <pt x="57" y="700" on="1"/>
        <pt x="70" y="655" on="0"/>
      </contour>
    </TTGlyph>
    <TTGlyph name="brokenbar" xMin="221" yMin="-249" xMax="314" yMax="737">
      <contour>
        <pt x="229" y="565" on="1"/>
        <pt x="229" y="681" on="0"/>
        <pt x="221" y="734" on="1"/>
        <pt x="237" y="737" on="0"/>
        <pt x="267" y="737" on="1"/>
        <pt x="313" y="737" on="0"/>
        <pt x="313" y="699" on="1"/>
        <pt x="313" y="694" on="0"/>
        <pt x="306" y="560" on="0"/>
        <pt x="306" y="528" on="1"/>
        <pt x="306" y="488" on="1"/>
        <pt x="306" y="368" on="0"/>
        <pt x="314" y="296" on="1"/>
        <pt x="298" y="293" on="0"/>
        <pt x="268" y="293" on="1"/>
        <pt x="222" y="293" on="0"/>
        <pt x="222" y="331" on="1"/>
        <pt x="222" y="336" on="0"/>
        <pt x="229" y="532" on="0"/>
      </contour>
      <contour>
        <pt x="229" y="-18" on="1"/>
        <pt x="229" y="21" on="1"/>
        <pt x="229" y="139" on="0"/>
        <pt x="221" y="192" on="1"/>
        <pt x="237" y="195" on="0"/>
        <pt x="267" y="195" on="1"/>
        <pt x="313" y="195" on="0"/>
        <pt x="313" y="157" on="1"/>
        <pt x="313" y="152" on="0"/>
        <pt x="306" y="19" on="0"/>
        <pt x="306" y="-14" on="1"/>
        <pt x="306" y="-54" on="1"/>
        <pt x="306" y="-174" on="0"/>
        <pt x="314" y="-246" on="1"/>
        <pt x="298" y="-249" on="0"/>
        <pt x="268" y="-249" on="1"/>
        <pt x="222" y="-249" on="0"/>
        <pt x="222" y="-211" on="1"/>
        <pt x="222" y="-207" on="0"/>
        <pt x="229" y="-54" on="0"/>
      </contour>
    </TTGlyph>
    <TTGlyph name="bullet" xMin="21" yMin="152" xMax="267" yMax="390">
      <contour>
        <pt x="145" y="152" on="1"/>
        <pt x="93" y="152" on="0"/>
        <pt x="21" y="218" on="0"/>
        <pt x="21" y="270" on="1"/>
        <pt x="21" y="320" on="0"/>
        <pt x="94" y="390" on="0"/>
        <pt x="145" y="390" on="1"/>
        <pt x="195" y="390" on="0"/>
        <pt x="267" y="320" on="0"/>
        <pt x="267" y="270" on="1"/>
        <pt x="267" y="218" on="0"/>
        <pt x="196" y="152" on="0"/>
      </contour>
    </TTGlyph>
    <TTGlyph name="c" xMin="38" yMin="-10" xMax="431" yMax="485">
      <contour>
        <pt x="283" y="62" on="1"/>
        <pt x="310" y="62" on="0"/>
        <pt x="368" y="90" on="0"/>
        <pt x="382" y="116" on="1"/>
        <pt x="431" y="90" on="0"/>
        <pt x="431" y="60" on="1"/>
        <pt x="431" y="26" on="0"/>
        <pt x="337" y="-10" on="0"/>
        <pt x="279" y="-10" on="1"/>
        <pt x="236" y="-10" on="0"/>
        <pt x="153" y="19" on="0"/>
        <pt x="81" y="75" on="0"/>
        <pt x="38" y="171" on="0"/>
        <pt x="38" y="233" on="1"/>
        <pt x="38" y="357" on="0"/>
        <pt x="182" y="485" on="0"/>
        <pt x="274" y="485" on="1"/>
        <pt x="330" y="485" on="0"/>
        <pt x="431" y="432" on="0"/>
        <pt x="431" y="385" on="1"/>
        <pt x="431" y="364" on="0"/>
        <pt x="389" y="338" on="0"/>
        <pt x="353" y="334" on="1"/>
        <pt x="345" y="370" on="0"/>
        <pt x="289" y="410" on="0"/>
        <pt x="260" y="410" on="1"/>
        <pt x="212" y="410" on="0"/>
        <pt x="148" y="318" on="0"/>
        <pt x="148" y="244" on="1"/>
        <pt x="148" y="149" on="0"/>
        <pt x="223" y="62" on="0"/>
      </contour>
    </TTGlyph>
    <TTGlyph name="caron" xMin="22" yMin="519" xMax="315" yMax="702">
      <contour>
        <pt x="22" y="657" on="1"/>
        <pt x="22" y="678" on="0"/>
        <pt x="59" y="702" on="1"/>
        <pt x="76" y="681" on="0"/>
        <pt x="126" y="638" on="0"/>
        <pt x="143" y="626" on="1"/>
        <pt x="160" y="615" on="1"/>
        <pt x="247" y="690" on="0"/>
        <pt x="274" y="690" on="1"/>
        <pt x="296" y="690" on="0"/>
        <pt x="315" y="664" on="1"/>
        <pt x="241" y="577" on="0"/>
        <pt x="159" y="519" on="1"/>
        <pt x="22" y="614" on="0"/>
      </contour>
    </TTGlyph>
    <TTGlyph name="ccedilla" xMin="38" yMin="-244" xMax="431" yMax="485">
      <contour>
        <pt x="283" y="62" on="1"/>
        <pt x="310" y="62" on="0"/>
        <pt x="368" y="90" on="0"/>
        <pt x="382" y="116" on="1"/>
        <pt x="431" y="90" on="0"/>
        <pt x="431" y="60" on="1"/>
        <pt x="431" y="26" on="0"/>
        <pt x="337" y="-10" on="0"/>
        <pt x="279" y="-10" on="1"/>
        <pt x="269" y="-10" on="0"/>
        <pt x="251" y="-8" on="1"/>
        <pt x="244" y="-29" on="0"/>
        <pt x="244" y="-39" on="1"/>
        <pt x="244" y="-45" on="0"/>
        <pt x="267" y="-58" on="1"/>
        <pt x="326" y="-89" on="0"/>
        <pt x="326" y="-139" on="1"/>
        <pt x="326" y="-180" on="0"/>
        <pt x="250" y="-244" on="0"/>
        <pt x="193" y="-244" on="1"/>
        <pt x="142" y="-244" on="0"/>
        <pt x="142" y="-212" on="1"/>
        <pt x="142" y="-193" on="0"/>
        <pt x="167" y="-170" on="1"/>
        <pt x="183" y="-184" on="0"/>
        <pt x="206" y="-184" on="1"/>
        <pt x="243" y="-184" on="0"/>
        <pt x="243" y="-153" on="1"/>
        <pt x="243" y="-132" on="0"/>
        <pt x="174" y="-84" on="0"/>
        <pt x="174" y="-40" on="0"/>
        <pt x="193" y="4" on="1"/>
        <pt x="125" y="27" on="0"/>
        <pt x="38" y="142" on="0"/>
        <pt x="38" y="233" on="1"/>
        <pt x="38" y="357" on="0"/>
        <pt x="182" y="485" on="0"/>
        <pt x="274" y="485" on="1"/>
        <pt x="330" y="485" on="0"/>
        <pt x="431" y="432" on="0"/>
        <pt x="431" y="385" on="1"/>
        <pt x="431" y="364" on="0"/>
        <pt x="389" y="338" on="0"/>
        <pt x="353" y="334" on="1"/>
        <pt x="345" y="370" on="0"/>
        <pt x="289" y="410" on="0"/>
        <pt x="260" y="410" on="1"/>
        <pt x="212" y="410" on="0"/>
        <pt x="148" y="318" on="0"/>
        <pt x="148" y="244" on="1"/>
        <pt x="148" y="149" on="0"/>
        <pt x="223" y="62" on="0"/>
      </contour>
    </TTGlyph>
    <TTGlyph name="cedilla" xMin="25" yMin="-244" xMax="209" yMax="32">
      <contour>
        <pt x="90" y="32" on="1"/>
        <pt x="146" y="24" on="1"/>
        <pt x="127" y="-33" on="0"/>
        <pt x="127" y="-45" on="0"/>
        <pt x="150" y="-58" on="1"/>
        <pt x="209" y="-89" on="0"/>
        <pt x="209" y="-139" on="1"/>
        <pt x="209" y="-180" on="0"/>
        <pt x="133" y="-244" on="0"/>
        <pt x="76" y="-244" on="1"/>
        <pt x="25" y="-244" on="0"/>
        <pt x="25" y="-212" on="1"/>
        <pt x="25" y="-193" on="0"/>
        <pt x="50" y="-170" on="1"/>
        <pt x="66" y="-184" on="0"/>
        <pt x="89" y="-184" on="1"/>
        <pt x="126" y="-184" on="0"/>
        <pt x="126" y="-153" on="1"/>
        <pt x="126" y="-132" on="0"/>
        <pt x="57" y="-84" on="0"/>
        <pt x="57" y="-62" on="1"/>
        <pt x="57" y="-29" on="0"/>
      </contour>
    </TTGlyph>
    <TTGlyph name="cent" xMin="65" yMin="-16" xMax="499" yMax="684">
      <contour>
        <pt x="173" y="326" on="1"/>
        <pt x="173" y="189" on="0"/>
        <pt x="274" y="147" on="1"/>
        <pt x="274" y="502" on="1"/>
        <pt x="229" y="490" on="0"/>
        <pt x="173" y="396" on="0"/>
      </contour>
      <contour>
        <pt x="499" y="155" on="1"/>
        <pt x="499" y="117" on="0"/>
        <pt x="392" y="68" on="0"/>
        <pt x="329" y="68" on="1"/>
        <pt x="330" y="15" on="0"/>
        <pt x="334" y="-14" on="1"/>
        <pt x="314" y="-16" on="1"/>
        <pt x="274" y="-16" on="0"/>
        <pt x="274" y="11" on="1"/>
        <pt x="274" y="72" on="1"/>
        <pt x="184" y="87" on="0"/>
        <pt x="65" y="214" on="0"/>
        <pt x="65" y="328" on="1"/>
        <pt x="65" y="437" on="0"/>
        <pt x="183" y="563" on="0"/>
        <pt x="274" y="580" on="1"/>
        <pt x="274" y="598" on="0"/>
        <pt x="269" y="681" on="1"/>
        <pt x="284" y="684" on="0"/>
        <pt x="292" y="684" on="1"/>
        <pt x="329" y="684" on="0"/>
        <pt x="329" y="657" on="1"/>
        <pt x="329" y="585" on="1"/>
        <pt x="386" y="584" on="0"/>
        <pt x="499" y="536" on="0"/>
        <pt x="499" y="497" on="1"/>
        <pt x="499" y="455" on="0"/>
        <pt x="431" y="442" on="1"/>
        <pt x="386" y="512" on="0"/>
        <pt x="329" y="514" on="1"/>
        <pt x="329" y="139" on="1"/>
        <pt x="359" y="140" on="0"/>
        <pt x="404" y="171" on="0"/>
        <pt x="431" y="209" on="1"/>
        <pt x="463" y="202" on="0"/>
        <pt x="499" y="172" on="0"/>
      </contour>
    </TTGlyph>
    <TTGlyph name="centoldstyle" xMin="50" yMin="-99" xMax="484" yMax="569">
      <contour>
        <pt x="259" y="64" on="1"/>
        <pt x="259" y="399" on="1"/>
        <pt x="158" y="359" on="0"/>
        <pt x="158" y="232" on="1"/>
        <pt x="158" y="102" on="0"/>
      </contour>
      <contour>
        <pt x="484" y="390" on="1"/>
        <pt x="484" y="349" on="0"/>
        <pt x="417" y="335" on="1"/>
        <pt x="371" y="404" on="0"/>
        <pt x="314" y="409" on="1"/>
        <pt x="314" y="56" on="1"/>
        <pt x="368" y="61" on="0"/>
        <pt x="416" y="128" on="1"/>
        <pt x="448" y="121" on="0"/>
        <pt x="484" y="91" on="0"/>
        <pt x="484" y="74" on="1"/>
        <pt x="484" y="47" on="0"/>
        <pt x="425" y="6" on="0"/>
        <pt x="350" y="-12" on="0"/>
        <pt x="314" y="-13" on="1"/>
        <pt x="316" y="-61" on="0"/>
        <pt x="319" y="-97" on="1"/>
        <pt x="299" y="-99" on="1"/>
        <pt x="279" y="-99" on="0"/>
        <pt x="259" y="-87" on="0"/>
        <pt x="259" y="-69" on="1"/>
        <pt x="259" y="-9" on="1"/>
        <pt x="167" y="7" on="0"/>
        <pt x="50" y="129" on="0"/>
        <pt x="50" y="234" on="1"/>
        <pt x="50" y="336" on="0"/>
        <pt x="166" y="457" on="0"/>
        <pt x="259" y="473" on="1"/>
        <pt x="257" y="521" on="0"/>
        <pt x="254" y="566" on="1"/>
        <pt x="270" y="569" on="0"/>
        <pt x="279" y="569" on="1"/>
        <pt x="301" y="569" on="0"/>
        <pt x="314" y="552" on="0"/>
        <pt x="314" y="536" on="1"/>
        <pt x="314" y="478" on="1"/>
        <pt x="377" y="475" on="0"/>
        <pt x="484" y="429" on="0"/>
      </contour>
    </TTGlyph>
    <TTGlyph name="ch" xMin="38" yMin="-10" xMax="956" yMax="743">
      <contour>
        <pt x="829" y="304" on="1"/>
        <pt x="829" y="359" on="0"/>
        <pt x="785" y="413" on="0"/>
        <pt x="750" y="413" on="1"/>
        <pt x="695" y="413" on="0"/>
        <pt x="640" y="360" on="1"/>
        <pt x="641" y="323" on="0"/>
        <pt x="642" y="74" on="0"/>
        <pt x="648" y="2" on="1"/>
        <pt x="621" y="-2" on="0"/>
        <pt x="598" y="-2" on="1"/>
        <pt x="533" y="-2" on="0"/>
        <pt x="533" y="38" on="1"/>
        <pt x="533" y="44" on="0"/>
        <pt x="536" y="128" on="0"/>
        <pt x="538" y="301" on="0"/>
        <pt x="538" y="414" on="1"/>
        <pt x="538" y="631" on="0"/>
        <pt x="533" y="691" on="1"/>
        <pt x="454" y="687" on="0"/>
        <pt x="372" y="619" on="0"/>
        <pt x="372" y="564" on="1"/>
        <pt x="372" y="503" on="0"/>
        <pt x="416" y="430" on="1"/>
        <pt x="431" y="404" on="0"/>
        <pt x="431" y="385" on="1"/>
        <pt x="431" y="364" on="0"/>
        <pt x="389" y="338" on="0"/>
        <pt x="353" y="334" on="1"/>
        <pt x="345" y="370" on="0"/>
        <pt x="289" y="410" on="0"/>
        <pt x="260" y="410" on="1"/>
        <pt x="212" y="410" on="0"/>
        <pt x="148" y="318" on="0"/>
        <pt x="148" y="244" on="1"/>
        <pt x="148" y="149" on="0"/>
        <pt x="223" y="62" on="0"/>
        <pt x="283" y="62" on="1"/>
        <pt x="310" y="62" on="0"/>
        <pt x="368" y="90" on="0"/>
        <pt x="382" y="116" on="1"/>
        <pt x="431" y="90" on="0"/>
        <pt x="431" y="60" on="1"/>
        <pt x="431" y="26" on="0"/>
        <pt x="337" y="-10" on="0"/>
        <pt x="279" y="-10" on="1"/>
        <pt x="236" y="-10" on="0"/>
        <pt x="153" y="19" on="0"/>
        <pt x="81" y="75" on="0"/>
        <pt x="38" y="171" on="0"/>
        <pt x="38" y="233" on="1"/>
        <pt x="38" y="357" on="0"/>
        <pt x="182" y="485" on="0"/>
        <pt x="274" y="485" on="1"/>
        <pt x="308" y="485" on="0"/>
        <pt x="339" y="475" on="1"/>
        <pt x="312" y="538" on="0"/>
        <pt x="312" y="588" on="1"/>
        <pt x="312" y="743" on="0"/>
        <pt x="581" y="743" on="1"/>
        <pt x="652" y="743" on="0"/>
        <pt x="652" y="688" on="1"/>
        <pt x="652" y="684" on="0"/>
        <pt x="647" y="622" on="0"/>
        <pt x="641" y="503" on="0"/>
        <pt x="641" y="432" on="1"/>
        <pt x="710" y="485" on="0"/>
        <pt x="796" y="485" on="1"/>
        <pt x="857" y="485" on="0"/>
        <pt x="933" y="413" on="0"/>
        <pt x="933" y="333" on="1"/>
        <pt x="933" y="327" on="0"/>
        <pt x="932" y="279" on="0"/>
        <pt x="930" y="200" on="0"/>
        <pt x="930" y="157" on="1"/>
        <pt x="930" y="75" on="0"/>
        <pt x="956" y="9" on="1"/>
        <pt x="925" y="-4" on="0"/>
        <pt x="900" y="-4" on="1"/>
        <pt x="859" y="-4" on="0"/>
        <pt x="825" y="30" on="0"/>
        <pt x="825" y="77" on="1"/>
        <pt x="825" y="115" on="0"/>
        <pt x="829" y="298" on="0"/>
      </contour>
    </TTGlyph>
    <TTGlyph name="circumflex" xMin="-2" yMin="519" xMax="291" yMax="702">
      <contour>
        <pt x="291" y="564" on="1"/>
        <pt x="291" y="543" on="0"/>
        <pt x="254" y="519" on="1"/>
        <pt x="237" y="540" on="0"/>
        <pt x="187" y="583" on="0"/>
        <pt x="170" y="594" on="1"/>
        <pt x="153" y="606" on="1"/>
        <pt x="66" y="531" on="0"/>
        <pt x="39" y="531" on="1"/>
        <pt x="18" y="531" on="0"/>
        <pt x="-2" y="557" on="1"/>
        <pt x="72" y="644" on="0"/>
        <pt x="154" y="702" on="1"/>
        <pt x="291" y="607" on="0"/>
      </contour>
    </TTGlyph>
    <TTGlyph name="colon" xMin="42" yMin="-10" xMax="187" yMax="485">
      <contour>
        <pt x="115" y="332" on="1"/>
        <pt x="84" y="332" on="0"/>
        <pt x="42" y="375" on="0"/>
        <pt x="42" y="408" on="1"/>
        <pt x="42" y="440" on="0"/>
        <pt x="85" y="485" on="0"/>
        <pt x="145" y="485" on="0"/>
        <pt x="187" y="440" on="0"/>
        <pt x="187" y="408" on="1"/>
        <pt x="187" y="375" on="0"/>
        <pt x="145" y="332" on="0"/>
      </contour>
      <contour>
        <pt x="115" y="-10" on="1"/>
        <pt x="84" y="-10" on="0"/>
        <pt x="42" y="33" on="0"/>
        <pt x="42" y="66" on="1"/>
        <pt x="42" y="98" on="0"/>
        <pt x="85" y="143" on="0"/>
        <pt x="145" y="143" on="0"/>
        <pt x="187" y="98" on="0"/>
        <pt x="187" y="66" on="1"/>
        <pt x="187" y="33" on="0"/>
        <pt x="145" y="-10" on="0"/>
      </contour>
    </TTGlyph>
    <TTGlyph name="comma" xMin="23" yMin="-154" xMax="194" yMax="120">
      <contour>
        <pt x="103" y="-29" on="1"/>
        <pt x="103" y="16" on="0"/>
        <pt x="54" y="25" on="1"/>
        <pt x="44" y="44" on="0"/>
        <pt x="44" y="63" on="1"/>
        <pt x="44" y="87" on="0"/>
        <pt x="86" y="120" on="0"/>
        <pt x="116" y="120" on="1"/>
        <pt x="148" y="120" on="0"/>
        <pt x="194" y="72" on="0"/>
        <pt x="194" y="22" on="1"/>
        <pt x="194" y="-44" on="0"/>
        <pt x="111" y="-154" on="0"/>
        <pt x="54" y="-154" on="1"/>
        <pt x="23" y="-154" on="0"/>
        <pt x="23" y="-116" on="1"/>
        <pt x="23" y="-106" on="0"/>
        <pt x="24" y="-101" on="1"/>
        <pt x="29" y="-101" on="1"/>
        <pt x="61" y="-101" on="0"/>
        <pt x="103" y="-57" on="0"/>
      </contour>
    </TTGlyph>
    <TTGlyph name="copyright" xMin="130" yMin="-34" xMax="822" yMax="674">
      <contour>
        <pt x="750" y="320" on="1"/>
        <pt x="750" y="452" on="0"/>
        <pt x="591" y="617" on="0"/>
        <pt x="477" y="617" on="1"/>
        <pt x="361" y="617" on="0"/>
        <pt x="202" y="453" on="0"/>
        <pt x="202" y="187" on="0"/>
        <pt x="361" y="23" on="0"/>
        <pt x="477" y="23" on="1"/>
        <pt x="591" y="23" on="0"/>
        <pt x="750" y="187" on="0"/>
      </contour>
      <contour>
        <pt x="822" y="320" on="1"/>
        <pt x="822" y="170" on="0"/>
        <pt x="621" y="-34" on="0"/>
        <pt x="477" y="-34" on="1"/>
        <pt x="330" y="-34" on="0"/>
        <pt x="130" y="169" on="0"/>
        <pt x="130" y="320" on="1"/>
        <pt x="130" y="472" on="0"/>
        <pt x="330" y="674" on="0"/>
        <pt x="477" y="674" on="1"/>
        <pt x="622" y="674" on="0"/>
        <pt x="822" y="472" on="0"/>
      </contour>
      <contour>
        <pt x="627" y="161" on="1"/>
        <pt x="627" y="135" on="0"/>
        <pt x="545" y="96" on="0"/>
        <pt x="489" y="96" on="1"/>
        <pt x="448" y="96" on="0"/>
        <pt x="374" y="119" on="0"/>
        <pt x="307" y="168" on="0"/>
        <pt x="267" y="259" on="0"/>
        <pt x="267" y="319" on="1"/>
        <pt x="267" y="433" on="0"/>
        <pt x="399" y="551" on="0"/>
        <pt x="483" y="551" on="1"/>
        <pt x="513" y="551" on="0"/>
        <pt x="576" y="534" on="0"/>
        <pt x="628" y="493" on="0"/>
        <pt x="628" y="464" on="1"/>
        <pt x="628" y="425" on="0"/>
        <pt x="555" y="415" on="1"/>
        <pt x="547" y="446" on="0"/>
        <pt x="501" y="478" on="0"/>
        <pt x="476" y="478" on="1"/>
        <pt x="436" y="478" on="0"/>
        <pt x="382" y="396" on="0"/>
        <pt x="382" y="330" on="1"/>
        <pt x="382" y="246" on="0"/>
        <pt x="451" y="169" on="0"/>
        <pt x="498" y="169" on="1"/>
        <pt x="552" y="169" on="0"/>
        <pt x="586" y="215" on="1"/>
        <pt x="627" y="190" on="0"/>
      </contour>
    </TTGlyph>
</ttFont>
